  0
SECTION
  2
HEADER
  9
$ACADVER
  1
AC1012
  9
$DWGCODEPAGE
  3
ansi_1252
  9
$INSBASE
 10
0.0
 20
0.0
 30
0.0
  9
$EXTMIN
 10
0.0
 20
0.0
 30
0.0
  9
$EXTMAX
 10
17.0
 20
11.0
 30
0.0
  9
$LIMMIN
 10
0.0
 20
0.0
  9
$LIMMAX
 10
0.0
 20
0.0
  9
$ORTHOMODE
 70
         0
  9
$REGENMODE
 70
         1
  9
$FILLMODE
 70
         1
  9
$QTEXTMODE
 70
         0
  9
$MIRRTEXT
 70
         1
  9
$DRAGMODE
 70
         2
  9
$LTSCALE
 40
1.0
  9
$OSMODE
 70
         0
  9
$ATTMODE
 70
         1
  9
$TEXTSIZE
 40
0.1666666667
  9
$TRACEWID
 40
0.05
  9
$TEXTSTYLE
  7
STANDARD
  9
$CLAYER
  8
0
  9
$CELTYPE
  6
CONTINUOUS
  9
$CECOLOR
 62
       256
  9
$CELTSCALE
 40
1.0
  9
$DELOBJ
 70
         1
  9
$DISPSILH
 70
         0
  9
$DIMSCALE
 40
1.0
  9
$DIMASZ
 40
0.1875
  9
$DIMEXO
 40
0.05
  9
$DIMDLI
 40
0.38
  9
$DIMRND
 40
0.0
  9
$DIMDLE
 40
0.125
  9
$DIMEXE
 40
0.18
  9
$DIMTP
 40
0.0
  9
$DIMTM
 40
0.0
  9
$DIMTXT
 40
0.1666666667
  9
$DIMCEN
 40
0.09
  9
$DIMTSZ
 40
0.0
  9
$DIMTOL
 70
         0
  9
$DIMLIM
 70
         0
  9
$DIMTIH
 70
         1
  9
$DIMTOH
 70
         1
  9
$DIMSE1
 70
         0
  9
$DIMSE2
 70
         0
  9
$DIMTAD
 70
         0
  9
$DIMZIN
 70
         0
  9
$DIMBLK
  1

  9
$DIMASO
 70
         1
  9
$DIMSHO
 70
         1
  9
$DIMPOST
  1

  9
$DIMAPOST
  1

  9
$DIMALT
 70
         0
  9
$DIMALTD
 70
         2
  9
$DIMALTF
 40
25.4
  9
$DIMLFAC
 40
6.0
  9
$DIMTOFL
 70
         0
  9
$DIMTVP
 40
0.0
  9
$DIMTIX
 70
         0
  9
$DIMSOXD
 70
         0
  9
$DIMSAH
 70
         0
  9
$DIMBLK1
  1

  9
$DIMBLK2
  1

  9
$DIMSTYLE
  2
STANDARD
  9
$DIMCLRD
 70
         0
  9
$DIMCLRE
 70
         0
  9
$DIMCLRT
 70
         0
  9
$DIMTFAC
 40
1.0
  9
$DIMGAP
 40
0.05
  9
$DIMJUST
 70
         0
  9
$DIMSD1
 70
         0
  9
$DIMSD2
 70
         0
  9
$DIMTOLJ
 70
         1
  9
$DIMTZIN
 70
         0
  9
$DIMALTZ
 70
         0
  9
$DIMALTTZ
 70
         0
  9
$DIMFIT
 70
         3
  9
$DIMUPT
 70
         0
  9
$DIMUNIT
 70
         2
  9
$DIMDEC
 70
         4
  9
$DIMTDEC
 70
         4
  9
$DIMALTU
 70
         2
  9
$DIMALTTD
 70
         2
  9
$DIMTXSTY
  7
STANDARD
  9
$DIMAUNIT
 70
         0
  9
$LUNITS
 70
         2
  9
$LUPREC
 70
         3
  9
$SKETCHINC
 40
0.1
  9
$FILLETRAD
 40
0.0
  9
$AUNITS
 70
         0
  9
$AUPREC
 70
         2
  9
$MENU
  1
acad
  9
$ELEVATION
 40
0.0
  9
$PELEVATION
 40
0.0
  9
$THICKNESS
 40
0.0
  9
$LIMCHECK
 70
         0
  9
$BLIPMODE
 70
         1
  9
$CHAMFERA
 40
0.0
  9
$CHAMFERB
 40
0.0
  9
$CHAMFERC
 40
0.0
  9
$CHAMFERD
 40
0.0
  9
$SKPOLY
 70
         0
  9
$TDCREATE
 40
0.000000000
  9
$TDUPDATE
 40
0.000000000
  9
$TDINDWG
 40
0.0000000000
  9
$TDUSRTIMER
 40
0.0000000000
  9
$USRTIMER
 70
         1
  9
$ANGBASE
 50
0.0
  9
$ANGDIR
 70
         0
  9
$PDMODE
 70
         0
  9
$PDSIZE
 40
-1.0
  9
$PLINEWID
 40
0.0
  9
$COORDS
 70
         0
  9
$SPLFRAME
 70
         0
  9
$SPLINETYPE
 70
         6
  9
$SPLINESEGS
 70
         8
  9
$ATTDIA
 70
         0
  9
$ATTREQ
 70
         1
  9
$HANDLING
 70
         1
  9
$HANDSEED
  5
570
  9
$SURFTAB1
 70
         6
  9
$SURFTAB2
 70
         6
  9
$SURFTYPE
 70
         6
  9
$SURFU
 70
         6
  9
$SURFV
 70
         6
  9
$UCSNAME
  2

  9
$UCSORG
 10
0.0
 20
0.0
 30
0.0
  9
$UCSXDIR
 10
1.0
 20
0.0
 30
0.0
  9
$UCSYDIR
 10
0.0
 20
1.0
 30
0.0
  9
$PUCSNAME
  2

  9
$PUCSORG
 10
0.0
 20
0.0
 30
0.0
  9
$PUCSXDIR
 10
1.0
 20
0.0
 30
0.0
  9
$PUCSYDIR
 10
0.0
 20
1.0
 30
0.0
  9
$USERI1
 70
         0
  9
$USERI2
 70
         0
  9
$USERI3
 70
         0
  9
$USERI4
 70
         0
  9
$USERI5
 70
         0
  9
$USERR1
 40
0.0
  9
$USERR2
 40
0.0
  9
$USERR3
 40
0.0
  9
$USERR4
 40
0.0
  9
$USERR5
 40
0.0
  9
$WORLDVIEW
 70
         1
  9
$SHADEDGE
 70
         3
  9
$SHADEDIF
 70
        70
  9
$TILEMODE
 70
         1
  9
$MAXACTVP
 70
        16
  9
$PINSBASE
 10
0.0
 20
0.0
 30
0.0
  9
$PLIMCHECK
 70
         0
  9
$PEXTMIN
 10
1.0000000000E+20
 20
1.0000000000E+20
 30
1.0000000000E+20
  9
$PEXTMAX
 10
-1.0000000000E+20
 20
-1.0000000000E+20
 30
-1.0000000000E+20
  9
$PLIMMIN
 10
0.0
 20
0.0
  9
$PLIMMAX
 10
12.0
 20
9.0
  9
$UNITMODE
 70
         0
  9
$VISRETAIN
 70
         0
  9
$PLINEGEN
 70
         1
  9
$PSLTSCALE
 70
         1
  9
$TREEDEPTH
 70
      3020
  9
$PICKSTYLE
 70
         1
  9
$CMLSTYLE
  2
STANDARD
  9
$CMLJUST
 70
         0
  9
$CMLSCALE
 40
1.0
  9
$SAVEIMAGES
 70
         0
  0
ENDSEC
  0
SECTION
  2
CLASSES
  0
CLASS
  1
LWPOLYLINE
  2
AcDbPolyline
  3
"AutoCAD"
 90
        0
280
         0
281
         1
  0
CLASS
  1
IMAGE
  2
AcDbRasterImage
  3
ISM
 90
      127
280
         0
281
         1
  0
CLASS
  1
OLE2FRAME
  2
AcDbOle2Frame
  3
""
 90
        0
280
         0
281
         1
  0
CLASS
  1
HATCH
  2
AcDbHatch
  3
"ACAD_SEDONA"
 90
        0
280
         0
281
         1
  0
CLASS
  1
DICTIONARYVAR
  2
AcDbDictionaryVar
  3
"AutoCAD"
 90
        0
280
         0
281
         0
  0
CLASS
  1
RASTERVARIABLES
  2
AcDbRasterVariables
  3
ISM
 90
        0
280
         0
281
         0
  0
CLASS
  1
IMAGEDEF
  2
AcDbRasterImageDef
  3
ISM
 90
        0
280
         0
281
         0
  0
CLASS
  1
IMAGEDEF_REACTOR
  2
AcDbRasterImageDefReactor
  3
ISM
 90
        1
280
         0
281
         0
  0
CLASS
  1
IDBUFFER
  2
AcDbIdBuffer
  3
"Acad"
 90
        0
280
         0
281
         0
  0
CLASS
  1
SPATIAL_FILTER
  2
AcDbSpatialFilter
  3
"Acad"
 90
        0
280
         0
281
         0
  0
CLASS
  1
XRECORD
  2
AcDbXrecord
  3
"<Built In>"
 90
        0
280
         0
281
         0
  0
CLASS
  1
SORTENTSTABLE
  2
AcDbSortentsTable
  3
"AutoCAD"
 90
        0
280
         0
281
         0
  0
CLASS
  1
LAYER_INDEX
  2
AcDbLayerIndex
  3
"Acad"
 90
        0
280
         0
281
         0
  0
CLASS
  1
SPATIAL_INDEX
  2
AcDbSpatialIndex
  3
"Acad"
 90
        0
280
         0
281
         0
  0
CLASS
  1
OBJECT_PTR
  2
CAseDLPNTableRecord
  3
"ASE-LPNTableRecord"
 90
        1
280
         0
281
         0
  0
CLASS
  1
LAYOUT
  2
AcDbLayout
  3
"AutoCAD 2000"
 90
        1
280
         0
281
         0
  0
CLASS
  1
PLOTSETTINGS
  2
AcDbPlotSettings
  3
"AutoCAD 2000"
 90
        1
280
         0
281
         0
  0
CLASS
  1
ACDBDICTIONARYWDFLT
  2
AcDbDictionaryWithDefault
  3
"AutoCAD 2000"
 90
        1
280
         0
281
         0
  0
CLASS
  1
ACDBPLACEHOLDER
  2
AcDbPlaceHolder
  3
"AutoCAD 2000"
 90
        1
280
         0
281
         0
  0
CLASS
  1
VBA_PROJECT
  2
AcDbVbaProject
  3
"acadvba"
 90
        1
280
         0
281
         0
  0
CLASS
  1
WIPEOUT
  2
AcDbWipeout
  3
WipeOut|AutoCAD Express Tool|expresstools@autodesk.com
 90
      127
280
         0
281
         1
  0
CLASS
  1
WIPEOUTVARIABLES
  2
AcDbWipeoutVariables
  3
WipeOut|AutoCAD Express Tool|expresstools@autodesk.com
 90
        0
280
         0
281
         0
  0
CLASS
  1
RTEXT
  2
RText
  3
RText|AutoCAD Express Tool|expresstools@autodesk.com
 90
        0
280
         0
281
         1
  0
CLASS
  1
ARCALIGNEDTEXT
  2
AcDbArcAlignedText
  3
ATEXT|AutoCAD Express Tool|expresstools@autodesk.com
 90
        0
280
         0
281
         1
  0
ENDSEC
  0
SECTION
  2
TABLES
  0
TABLE
  2
VPORT
  5
7
100
AcDbSymbolTable
 70
         1
  0
VPORT
  5
15
100
AcDbSymbolTableRecord
100
AcDbViewportTableRecord
  2
*ACTIVE
 70
         0
 10
0.0
 20
0.0
 11
1.0
 21
1.0
 12
8.5
 22
5.5
 13
0.0
 23
0.0
 14
1.0
 24
1.0
 15
0.0
 25
0.0
 16
0.0
 26
0.0
 36
1.0
 17
0.0
 27
0.0
 37
0.0
 40
11.0
 41
0.6470588235
 42
50.0
 43
0.0
 44
0.0
 50
0.0
 51
0.0
 71
         0
 72
      2000
 73
         1
 74
         1
 75
         0
 76
         0
 77
         0
 78
         0
  0
ENDTAB
  0
TABLE
  2
LTYPE
  5
4
100
AcDbSymbolTable
 70
         8
  0
LTYPE
  5
11
100
AcDbSymbolTableRecord
100
AcDbLinetypeTableRecord
  2
BYBLOCK
 70
        64
  3

 72
        65
 73
         0
 40
0.0
  0
LTYPE
  5
12
100
AcDbSymbolTableRecord
100
AcDbLinetypeTableRecord
  2
BYLAYER
 70
        64
  3

 72
        65
 73
         0
 40
0.0
  0
LTYPE
  5
13
100
AcDbSymbolTableRecord
100
AcDbLinetypeTableRecord
  2
CONTINUOUS
 70
        64
  3
Solid line
 72
        65
 73
         0
 40
0.0
  0
LTYPE
  5
1D
100
AcDbSymbolTableRecord
100
AcDbLinetypeTableRecord
  2
HIDDEN
 70
        64
  3
Hidden __ __ __ __ __ __ __ __ __ __ __ __ __ __
 72
        65
 73
         2
 40
0.075
 49
0.05
 74
         0
 49
-0.025
 74
         0
  0
LTYPE
  5
1E
100
AcDbSymbolTableRecord
100
AcDbLinetypeTableRecord
  2
PHANTOM
 70
        64
  3
Phantom ______  __  __  ______  __  __  ______
 72
        65
 73
         6
 40
0.5
 49
0.25
 74
         0
 49
-0.05
 74
         0
 49
0.05
 74
         0
 49
-0.05
 74
         0
 49
0.05
 74
         0
 49
-0.05
 74
         0
  0
LTYPE
  5
1F
100
AcDbSymbolTableRecord
100
AcDbLinetypeTableRecord
  2
CENTER
 70
        64
  3
Center ____ _ ____ _ ____ _ ____ _ ____ _ ____
 72
        65
 73
         4
 40
0.4
 49
0.25
 74
         0
 49
-0.05
 74
         0
 49
0.05
 74
         0
 49
-0.05
 74
         0
  0
LTYPE
  5
20
100
AcDbSymbolTableRecord
100
AcDbLinetypeTableRecord
  2
CENTERX2
 70
        64
  3
Center (2x) ________  __  ________  __  _____
 72
        65
 73
         4
 40
0.8
 49
0.5
 74
         0
 49
-0.1
 74
         0
 49
0.1
 74
         0
 49
-0.1
 74
         0
  0
LTYPE
  5
21
100
AcDbSymbolTableRecord
100
AcDbLinetypeTableRecord
  2
DOT2
 70
        64
  3
Dot (.5x) ........................................
 72
        65
 73
         2
 40
0.025
 49
0.0
 74
         0
 49
-0.025
 74
         0
  0
ENDTAB
  0
TABLE
  2
LAYER
  5
2
100
AcDbSymbolTable
 70
         2
  0
LAYER
  5
14
100
AcDbSymbolTableRecord
100
AcDbLayerTableRecord
  2
0
 70
         0
 62
         7
  6
CONTINUOUS
  0
LAYER
  5
23
100
AcDbSymbolTableRecord
100
AcDbLayerTableRecord
  2
DEFPOINTS
 70
         0
 62
         7
  6
CONTINUOUS
  0
ENDTAB
  0
TABLE
  2
STYLE
  5
3
100
AcDbSymbolTable
 70
         2
  0
STYLE
  5
17
100
AcDbSymbolTableRecord
100
AcDbTextStyleTableRecord
  2
STANDARD
 70
         0
 40
0.0
 41
1.0
 50
0.0
 71
         0
 42
0.0
  3
txt
  4

  0
STYLE
  5
CD
100
AcDbSymbolTableRecord
100
AcDbTextStyleTableRecord
  2
SLDTEXTSTYLE0
 70
         0
 40
0.0
 41
0.75
 50
0.0
 71
         0
 42
0.0
  3
txt
  4

  0
ENDTAB
  0
TABLE
  2
VIEW
  5
5
100
AcDbSymbolTable
 70
         0
  0
ENDTAB
  0
TABLE
  2
UCS
  5
6
100
AcDbSymbolTable
 70
         0
  0
ENDTAB
  0
TABLE
  2
APPID
  5
8
100
AcDbSymbolTable
 70
         1
  0
APPID
  5
16
100
AcDbSymbolTableRecord
100
AcDbRegAppTableRecord
  2
ACAD
 70
         0
  0
ENDTAB
  0
TABLE
  2
DIMSTYLE
  5
9
100
AcDbSymbolTable
 70
         3
  0
DIMSTYLE
105
18
100
AcDbSymbolTableRecord
100
AcDbDimStyleTableRecord
  2
STANDARD
 70
         0
  3

  4

  5

  6

  7

 40
1.0
 41
0.18
 42
0.0625
 43
0.38
 44
0.18
 45
0.0
 46
0.0
 47
0.0
 48
0.0
 71
         0
 72
         0
 73
         1
 74
         1
 75
         0
 76
         0
 77
         0
 78
         0
140
0.18
141
0.09
142
0.0
143
25.4
144
1.0
145
0.0
146
1.0
147
0.09
170
         0
171
         2
172
         0
173
         0
174
         0
175
         0
176
         0
177
         0
178
         0
270
         2
271
         4
272
         4
273
         2
274
         2
275
         0
280
         0
281
         0
282
         0
283
         1
284
         0
285
         0
286
         0
287
         0
288
         0
340
17
  0
DIMSTYLE
105
DC
100
AcDbSymbolTableRecord
100
AcDbDimStyleTableRecord
  2
SLDDIMSTYLE0
 70
         0
  3

  4

  5

  6
_CLOSED
  7
_CLOSED
 40
1.0
 41
0.1875
 42
0.0625
 43
0.38
 44
0.125
 45
0.0
 46
0.0
 47
0.0
 48
0.0
 71
         0
 72
         0
 73
         1
 74
         1
 75
         0
 76
         0
 77
         0
 78
        12
140
0.1666666667
141
0.09
142
0.0
143
25.4
144
6.0
145
0.0
146
1.0
147
0.0416666667
170
         0
171
         2
172
         0
173
         1
174
         0
175
         0
176
         7
177
         7
178
         7
270
         2
271
         3
272
         4
273
         2
274
         2
275
         0
280
         0
281
         0
282
         0
283
         1
284
        12
285
         0
286
         0
287
         0
288
         0
340
17
  0
DIMSTYLE
105
321
100
AcDbSymbolTableRecord
100
AcDbDimStyleTableRecord
  2
SLDDIMSTYLE1
 70
         0
  3

  4

  5

  6
_CLOSED
  7
_CLOSED
 40
1.0
 41
0.1875
 42
0.0625
 43
0.38
 44
0.125
 45
0.0
 46
0.0
 47
0.0
 48
0.0
 71
         0
 72
         0
 73
         1
 74
         1
 75
         0
 76
         0
 77
         0
 78
         4
140
0.1666666667
141
0.09
142
0.0
143
25.4
144
6.0
145
0.0
146
1.0
147
0.0416666667
170
         0
171
         2
172
         0
173
         1
174
         0
175
         0
176
         7
177
         7
178
         7
270
         2
271
         3
272
         4
273
         2
274
         2
275
         0
280
         0
281
         0
282
         0
283
         1
284
        12
285
         0
286
         0
287
         0
288
         0
340
17
  0
ENDTAB
  0
TABLE
  2
BLOCK_RECORD
  5
1
100
AcDbSymbolTable
 70
         6
  0
BLOCK_RECORD
  5
A
100
AcDbSymbolTableRecord
100
AcDbBlockTableRecord
  2
*MODEL_SPACE
  0
BLOCK_RECORD
  5
B
100
AcDbSymbolTableRecord
100
AcDbBlockTableRecord
  2
*PAPER_SPACE
  0
BLOCK_RECORD
  5
CB
100
AcDbSymbolTableRecord
100
AcDbBlockTableRecord
  2
*D0
  0
BLOCK_RECORD
  5
D3
100
AcDbSymbolTableRecord
100
AcDbBlockTableRecord
  2
_CLOSED
  0
BLOCK_RECORD
  5
E1
100
AcDbSymbolTableRecord
100
AcDbBlockTableRecord
  2
*D2
  0
BLOCK_RECORD
  5
318
100
AcDbSymbolTableRecord
100
AcDbBlockTableRecord
  2
*D3
  0
BLOCK_RECORD
  5
326
100
AcDbSymbolTableRecord
100
AcDbBlockTableRecord
  2
*D4
  0
BLOCK_RECORD
  5
560
100
AcDbSymbolTableRecord
100
AcDbBlockTableRecord
  2
*D5
  0
ENDTAB
  0
ENDSEC
  0
SECTION
  2
BLOCKS
  0
BLOCK
  5
D
100
AcDbEntity
  8
0
100
AcDbBlockBegin
  2
*MODEL_SPACE
 70
         0
 10
0.0
 20
0.0
 30
0.0
  3
*MODEL_SPACE
  1

  0
ENDBLK
  5
E
100
AcDbEntity
  8
0
100
AcDbBlockEnd
  0
BLOCK
  5
F
100
AcDbEntity
 67
         1
  8
0
100
AcDbBlockBegin
  2
*PAPER_SPACE
 70
         0
 10
0.0
 20
0.0
 30
0.0
  3
*PAPER_SPACE
  1

  0
ENDBLK
  5
10
100
AcDbEntity
 67
         1
  8
0
100
AcDbBlockEnd
  0
BLOCK
  5
CC
100
AcDbEntity
  8
0
 62
         7
100
AcDbBlockBegin
  2
*D0
 70
         1
 10
0.0
 20
0.0
 30
0.0
  3
*D0
  1

  0
MTEXT
  5
CE
100
AcDbEntity
  8
0
 62
         7
100
AcDbMText
 10
4.379535153
 20
1.4525818763
 30
0.0
 40
0.125
 41
0.0
 71
         7
 72
         1
  1
4.229
  7
SLDTEXTSTYLE0
  0
LINE
  5
CF
100
AcDbEntity
  8
0
 62
         7
100
AcDbLine
 10
4.8579656546
 20
1.1444621197
 30
0.0
 11
4.4622802605
 21
1.1444621197
 31
0.0
  0
LINE
  5
D0
100
AcDbEntity
  8
0
 62
         7
100
AcDbLine
 10
4.8567938517
 20
1.8493071486
 30
0.0
 11
4.4622802605
 21
1.8493071486
 31
0.0
  0
LINE
  5
D1
100
AcDbEntity
  8
0
 62
         7
100
AcDbLine
 10
4.5872802605
 20
1.1444621197
 30
0.0
 11
4.5872802605
 21
1.39779185
 31
0.0
  0
LINE
  5
D2
100
AcDbEntity
  8
0
 62
         7
100
AcDbLine
 10
4.5872802605
 20
1.8493071486
 30
0.0
 11
4.5872802605
 21
1.5959774183
 31
0.0
  0
INSERT
  5
DA
100
AcDbEntity
  8
0
100
AcDbBlockReference
  2
_CLOSED
 10
4.5872802605
 20
1.1444621197
 30
0.0
 41
0.1875
 42
0.1875
 50
270.0
  0
INSERT
  5
DB
100
AcDbEntity
  8
0
100
AcDbBlockReference
  2
_CLOSED
 10
4.5872802605
 20
1.8493071486
 30
0.0
 41
0.1875
 42
0.1875
 50
90.0
  0
POINT
  5
DD
100
AcDbEntity
  8
DEFPOINTS
 62
         7
100
AcDbPoint
 10
4.9079656546
 20
1.1444621197
 30
0.0
  0
POINT
  5
DE
100
AcDbEntity
  8
DEFPOINTS
 62
         7
100
AcDbPoint
 10
4.9067938517
 20
1.8493071486
 30
0.0
  0
ENDBLK
  5
DF
100
AcDbEntity
  8
0
 62
         7
100
AcDbBlockEnd
  0
BLOCK
  5
D4
100
AcDbEntity
  8
0
100
AcDbBlockBegin
  2
_CLOSED
 70
         0
 10
0.0
 20
0.0
 30
0.0
  3
_CLOSED
  1

  0
LINE
  5
D5
100
AcDbEntity
  8
0
  6
BYBLOCK
 62
         0
100
AcDbLine
 10
-1.0
 20
0.166667
 30
0.0
 11
0.0
 21
0.0
 31
0.0
  0
LINE
  5
D6
100
AcDbEntity
  8
0
  6
BYBLOCK
 62
         0
100
AcDbLine
 10
0.0
 20
0.0
 30
0.0
 11
-1.0
 21
-0.166667
 31
0.0
  0
LINE
  5
D7
100
AcDbEntity
  8
0
  6
BYBLOCK
 62
         0
100
AcDbLine
 10
-1.0
 20
0.166667
 30
0.0
 11
-1.0
 21
-0.166667
 31
0.0
  0
LINE
  5
D8
100
AcDbEntity
  8
0
  6
BYBLOCK
 62
         0
100
AcDbLine
 10
0.0
 20
0.0
 30
0.0
 11
-1.0
 21
0.0
 31
0.0
  0
ENDBLK
  5
D9
100
AcDbEntity
  8
0
100
AcDbBlockEnd
  0
BLOCK
  5
E2
100
AcDbEntity
  8
0
 62
         7
100
AcDbBlockBegin
  2
*D2
 70
         1
 10
0.0
 20
0.0
 30
0.0
  3
*D2
  1

  0
MTEXT
  5
E3
100
AcDbEntity
  8
0
 62
         7
100
AcDbMText
 10
3.9643051071
 20
1.5531466854
 30
0.0
 40
0.125
 41
0.0
 71
         7
 72
         1
  1
5.436
  7
SLDTEXTSTYLE0
  0
LINE
  5
E4
100
AcDbEntity
  8
0
 62
         7
100
AcDbLine
 10
9.0455000026
 20
2.0504367669
 30
0.0
 11
4.0470502146
 21
2.0504367669
 31
0.0
  0
LINE
  5
E5
100
AcDbEntity
  8
0
 62
         7
100
AcDbLine
 10
4.8579656546
 20
1.1444621197
 30
0.0
 11
4.0470502146
 21
1.1444621197
 31
0.0
  0
LINE
  5
E6
100
AcDbEntity
  8
0
 62
         7
100
AcDbLine
 10
4.1720502146
 20
2.0504367669
 30
0.0
 11
4.1720502146
 21
1.6965422275
 31
0.0
  0
LINE
  5
E7
100
AcDbEntity
  8
0
 62
         7
100
AcDbLine
 10
4.1720502146
 20
1.1444621197
 30
0.0
 11
4.1720502146
 21
1.4983566591
 31
0.0
  0
INSERT
  5
E8
100
AcDbEntity
  8
0
100
AcDbBlockReference
  2
_CLOSED
 10
4.1720502146
 20
2.0504367669
 30
0.0
 41
0.1875
 42
0.1875
 50
90.0
  0
INSERT
  5
E9
100
AcDbEntity
  8
0
100
AcDbBlockReference
  2
_CLOSED
 10
4.1720502146
 20
1.1444621197
 30
0.0
 41
0.1875
 42
0.1875
 50
270.0
  0
POINT
  5
EA
100
AcDbEntity
  8
DEFPOINTS
 62
         7
100
AcDbPoint
 10
9.0955000026
 20
2.0504367669
 30
0.0
  0
POINT
  5
EB
100
AcDbEntity
  8
DEFPOINTS
 62
         7
100
AcDbPoint
 10
4.9079656546
 20
1.1444621197
 30
0.0
  0
ENDBLK
  5
EC
100
AcDbEntity
  8
0
 62
         7
100
AcDbBlockEnd
  0
BLOCK
  5
319
100
AcDbEntity
  8
0
 62
         7
100
AcDbBlockBegin
  2
*D3
 70
         1
 10
0.0
 20
0.0
 30
0.0
  3
*D3
  1

  0
MTEXT
  5
31A
100
AcDbEntity
  8
0
 62
         7
100
AcDbMText
 10
4.2047650399
 20
4.8217623516
 30
0.0
 40
0.125
 41
0.0
 71
         7
 72
         1
  1
15.000
  7
SLDTEXTSTYLE0
  0
LINE
  5
31B
100
AcDbEntity
  8
0
 62
         7
100
AcDbLine
 10
4.8567938517
 20
6.1160593341
 30
0.0
 11
4.3336757268
 21
6.1160593341
 31
0.0
  0
LINE
  5
31C
100
AcDbEntity
  8
0
 62
         7
100
AcDbLine
 10
4.8567938517
 20
3.616070885
 30
0.0
 11
4.3336757268
 21
3.616070885
 31
0.0
  0
LINE
  5
31D
100
AcDbEntity
  8
0
 62
         7
100
AcDbLine
 10
4.4586757268
 20
6.1160593341
 30
0.0
 11
4.4586757268
 21
4.9651578937
 31
0.0
  0
LINE
  5
31E
100
AcDbEntity
  8
0
 62
         7
100
AcDbLine
 10
4.4586757268
 20
3.616070885
 30
0.0
 11
4.4586757268
 21
4.7669723254
 31
0.0
  0
INSERT
  5
31F
100
AcDbEntity
  8
0
100
AcDbBlockReference
  2
_CLOSED
 10
4.4586757268
 20
6.1160593341
 30
0.0
 41
0.1875
 42
0.1875
 50
90.0
  0
INSERT
  5
320
100
AcDbEntity
  8
0
100
AcDbBlockReference
  2
_CLOSED
 10
4.4586757268
 20
3.616070885
 30
0.0
 41
0.1875
 42
0.1875
 50
270.0
  0
POINT
  5
322
100
AcDbEntity
  8
DEFPOINTS
 62
         7
100
AcDbPoint
 10
4.9067938517
 20
6.1160593341
 30
0.0
  0
POINT
  5
323
100
AcDbEntity
  8
DEFPOINTS
 62
         7
100
AcDbPoint
 10
4.9067938517
 20
3.616070885
 30
0.0
  0
ENDBLK
  5
324
100
AcDbEntity
  8
0
 62
         7
100
AcDbBlockEnd
  0
BLOCK
  5
327
100
AcDbEntity
  8
0
 62
         7
100
AcDbBlockBegin
  2
*D4
 70
         1
 10
0.0
 20
0.0
 30
0.0
  3
*D4
  1

  0
MTEXT
  5
328
100
AcDbEntity
  8
0
 62
         7
100
AcDbMText
 10
8.7039932639
 20
6.4002846835
 30
0.0
 40
0.125
 41
0.0
 71
         7
 72
         1
  1
48.613
  7
SLDTEXTSTYLE0
  0
LINE
  5
329
100
AcDbEntity
  8
0
 62
         7
100
AcDbLine
 10
4.9067938517
 20
6.1660593341
 30
0.0
 11
4.9067938517
 21
6.5695874414
 31
0.0
  0
LINE
  5
32A
100
AcDbEntity
  8
0
 62
         7
100
AcDbLine
 10
13.0090138852
 20
4.8981562194
 30
0.0
 11
13.0090138852
 21
6.5695874414
 31
0.0
  0
LINE
  5
32B
100
AcDbEntity
  8
0
 62
         7
100
AcDbLine
 10
4.9067938517
 20
6.4445874414
 30
0.0
 11
8.6414932639
 21
6.4445874414
 31
0.0
  0
LINE
  5
32C
100
AcDbEntity
  8
0
 62
         7
100
AcDbLine
 10
13.0090138852
 20
6.4445874414
 30
0.0
 11
9.2743146378
 21
6.4445874414
 31
0.0
  0
INSERT
  5
32D
100
AcDbEntity
  8
0
100
AcDbBlockReference
  2
_CLOSED
 10
4.9067938517
 20
6.4445874414
 30
0.0
 41
0.1875
 42
0.1875
 50
180.0
  0
INSERT
  5
32E
100
AcDbEntity
  8
0
100
AcDbBlockReference
  2
_CLOSED
 10
13.0090138852
 20
6.4445874414
 30
0.0
 41
0.1875
 42
0.1875
 50
360.0
  0
POINT
  5
32F
100
AcDbEntity
  8
DEFPOINTS
 62
         7
100
AcDbPoint
 10
4.9067938517
 20
6.1160593341
 30
0.0
  0
POINT
  5
330
100
AcDbEntity
  8
DEFPOINTS
 62
         7
100
AcDbPoint
 10
13.0090140499
 20
4.8839751139
 30
0.0
  0
ENDBLK
  5
331
100
AcDbEntity
  8
0
 62
         7
100
AcDbBlockEnd
  0
BLOCK
  5
561
100
AcDbEntity
  8
0
 62
         7
100
AcDbBlockBegin
  2
*D5
 70
         1
 10
0.0
 20
0.0
 30
0.0
  3
*D5
  1

  0
MTEXT
  5
562
100
AcDbEntity
  8
0
 62
         7
100
AcDbMText
 10
3.1477570842
 20
1.2144819183
 30
0.0
 40
0.125
 41
0.0
 71
         7
 72
         1
  1
..125
  7
SLDTEXTSTYLE0
  0
LINE
  5
563
100
AcDbEntity
  8
0
 62
         7
100
AcDbLine
 10
3.4036378877
 20
1.6563291978
 30
0.0
 11
3.7834161403
 21
1.6563291978
 31
0.0
  0
LINE
  5
564
100
AcDbEntity
  8
0
 62
         7
100
AcDbLine
 10
3.401822143
 20
1.6355751416
 30
0.0
 11
3.7834161403
 21
1.6355751416
 31
0.0
  0
LINE
  5
565
100
AcDbEntity
  8
0
 62
         7
100
AcDbLine
 10
3.5334161403
 20
1.2587846762
 30
0.0
 11
3.6584161403
 21
1.2587846762
 31
0.0
  0
LINE
  5
566
100
AcDbEntity
  8
0
 62
         7
100
AcDbLine
 10
3.6584161403
 20
1.2587846762
 30
0.0
 11
3.6584161403
 21
1.6355751416
 31
0.0
  0
LINE
  5
567
100
AcDbEntity
  8
0
 62
         7
100
AcDbLine
 10
3.6584161403
 20
1.6563291978
 30
0.0
 11
3.6584161403
 21
2.0313291978
 31
0.0
  0
INSERT
  5
568
100
AcDbEntity
  8
0
100
AcDbBlockReference
  2
_CLOSED
 10
3.6584161403
 20
1.6563291978
 30
0.0
 41
0.1875
 42
0.1875
 50
270.0
  0
INSERT
  5
569
100
AcDbEntity
  8
0
100
AcDbBlockReference
  2
_CLOSED
 10
3.6584161403
 20
1.6355751416
 30
0.0
 41
0.1875
 42
0.1875
 50
90.0
  0
POINT
  5
56A
100
AcDbEntity
  8
DEFPOINTS
 62
         7
100
AcDbPoint
 10
3.3536378877
 20
1.6563291978
 30
0.0
  0
POINT
  5
56B
100
AcDbEntity
  8
DEFPOINTS
 62
         7
100
AcDbPoint
 10
3.351822143
 20
1.6355751416
 30
0.0
  0
ENDBLK
  5
56C
100
AcDbEntity
  8
0
 62
         7
100
AcDbBlockEnd
  0
ENDSEC
  0
SECTION
  2
ENTITIES
  0
LINE
  5
24
100
AcDbEntity
  8
0
  6
CONTINUOUS
 62
         7
100
AcDbLine
 10
9.0954995834
 20
2.0296033832
 30
0.0
 11
9.0954995806
 21
2.0296033832
 31
0.0
  0
POLYLINE
  5
25
100
AcDbEntity
  8
0
  6
CONTINUOUS
 62
         7
100
AcDb2dPolyline
 66
         1
 10
0.0
 20
0.0
 30
0.0
 70
       128
  0
VERTEX
  5
26
100
AcDbEntity
  8
0
100
AcDbVertex
100
AcDb2dVertex
 10
8.8516514281
 20
1.1444621197
 30
0.0
  0
VERTEX
  5
27
100
AcDbEntity
  8
0
100
AcDbVertex
100
AcDb2dVertex
 10
8.8821076862
 20
1.144522723
 30
0.0
  0
VERTEX
  5
28
100
AcDbEntity
  8
0
100
AcDbVertex
100
AcDb2dVertex
 10
8.9111645316
 20
1.1446245366
 30
0.0
  0
VERTEX
  5
29
100
AcDbEntity
  8
0
100
AcDbVertex
100
AcDb2dVertex
 10
8.9416961151
 20
1.1447784866
 30
0.0
  0
VERTEX
  5
2A
100
AcDbEntity
  8
0
100
AcDbVertex
100
AcDb2dVertex
 10
8.9706808379
 20
1.1449697566
 30
0.0
  0
VERTEX
  5
2B
100
AcDbEntity
  8
0
100
AcDbVertex
100
AcDb2dVertex
 10
8.9997866226
 20
1.1452066887
 30
0.0
  0
VERTEX
  5
2C
100
AcDbEntity
  8
0
100
AcDbVertex
100
AcDb2dVertex
 10
9.0293574765
 20
1.1454940634
 30
0.0
  0
VERTEX
  5
2D
100
AcDbEntity
  8
0
100
AcDbVertex
100
AcDb2dVertex
 10
9.0582918308
 20
1.1458213645
 30
0.0
  0
VERTEX
  5
2E
100
AcDbEntity
  8
0
100
AcDbVertex
100
AcDb2dVertex
 10
9.1394904994
 20
1.1469886413
 30
0.0
  0
VERTEX
  5
2F
100
AcDbEntity
  8
0
100
AcDbVertex
100
AcDb2dVertex
 10
9.2203940645
 20
1.1485267163
 30
0.0
  0
VERTEX
  5
30
100
AcDbEntity
  8
0
100
AcDbVertex
100
AcDb2dVertex
 10
9.3163320643
 20
1.1508537371
 30
0.0
  0
VERTEX
  5
31
100
AcDbEntity
  8
0
100
AcDbVertex
100
AcDb2dVertex
 10
9.4124082765
 20
1.1537478852
 30
0.0
  0
VERTEX
  5
32
100
AcDbEntity
  8
0
100
AcDbVertex
100
AcDb2dVertex
 10
9.5091320361
 20
1.15723106
 30
0.0
  0
VERTEX
  5
33
100
AcDbEntity
  8
0
100
AcDbVertex
100
AcDb2dVertex
 10
9.6807817846
 20
1.1648019115
 30
0.0
  0
VERTEX
  5
34
100
AcDbEntity
  8
0
100
AcDbVertex
100
AcDb2dVertex
 10
9.8532784589
 20
1.1741742432
 30
0.0
  0
VERTEX
  5
35
100
AcDbEntity
  8
0
100
AcDbVertex
100
AcDb2dVertex
 10
10.0256915362
 20
1.1852953838
 30
0.0
  0
VERTEX
  5
36
100
AcDbEntity
  8
0
100
AcDbVertex
100
AcDb2dVertex
 10
10.331744684
 20
1.2093869825
 30
0.0
  0
VERTEX
  5
37
100
AcDbEntity
  8
0
100
AcDbVertex
100
AcDb2dVertex
 10
10.6378378327
 20
1.2390893251
 30
0.0
  0
VERTEX
  5
38
100
AcDbEntity
  8
0
100
AcDbVertex
100
AcDb2dVertex
 10
10.9434903884
 20
1.2743626099
 30
0.0
  0
VERTEX
  5
39
100
AcDbEntity
  8
0
100
AcDbVertex
100
AcDb2dVertex
 10
11.2345593758
 20
1.3131909608
 30
0.0
  0
VERTEX
  5
3A
100
AcDbEntity
  8
0
100
AcDbVertex
100
AcDb2dVertex
 10
11.5248510451
 20
1.3570384702
 30
0.0
  0
VERTEX
  5
3B
100
AcDbEntity
  8
0
100
AcDbVertex
100
AcDb2dVertex
 10
11.813781031
 20
1.4058022792
 30
0.0
  0
VERTEX
  5
3C
100
AcDbEntity
  8
0
100
AcDbVertex
100
AcDb2dVertex
 10
12.1029418275
 20
1.4597396562
 30
0.0
  0
VERTEX
  5
3D
100
AcDbEntity
  8
0
100
AcDbVertex
100
AcDb2dVertex
 10
12.2297686622
 20
1.4850201099
 30
0.0
  0
VERTEX
  5
3E
100
AcDbEntity
  8
0
100
AcDbVertex
100
AcDb2dVertex
 10
12.3562833239
 20
1.5112406643
 30
0.0
  0
VERTEX
  5
3F
100
AcDbEntity
  8
0
100
AcDbVertex
100
AcDb2dVertex
 10
12.4825845167
 20
1.5384334362
 30
0.0
  0
VERTEX
  5
40
100
AcDbEntity
  8
0
100
AcDbVertex
100
AcDb2dVertex
 10
12.6082654952
 20
1.5665178738
 30
0.0
  0
VERTEX
  5
41
100
AcDbEntity
  8
0
100
AcDbVertex
100
AcDb2dVertex
 10
12.6823142381
 20
1.5835408865
 30
0.0
  0
VERTEX
  5
42
100
AcDbEntity
  8
0
100
AcDbVertex
100
AcDb2dVertex
 10
12.755856689
 20
1.6007861444
 30
0.0
  0
VERTEX
  5
43
100
AcDbEntity
  8
0
100
AcDbVertex
100
AcDb2dVertex
 10
12.8290431615
 20
1.6182735923
 30
0.0
  0
VERTEX
  5
44
100
AcDbEntity
  8
0
100
AcDbVertex
100
AcDb2dVertex
 10
12.8615791767
 20
1.6261497434
 30
0.0
  0
VERTEX
  5
45
100
AcDbEntity
  8
0
100
AcDbVertex
100
AcDb2dVertex
 10
12.8928251628
 20
1.6337719468
 30
0.0
  0
SEQEND
  5
46
100
AcDbEntity
  8
0
  0
LINE
  5
47
100
AcDbEntity
  8
0
  6
CONTINUOUS
 62
         7
100
AcDbLine
 10
8.8516514281
 20
1.1444621197
 30
0.0
 11
4.9079656546
 21
1.1444621197
 31
0.0
  0
LINE
  5
48
100
AcDbEntity
  8
0
  6
CONTINUOUS
 62
         7
100
AcDbLine
 10
4.9079656546
 20
1.1444621197
 30
0.0
 11
4.9079656532
 21
1.633759397
 31
0.0
  0
LINE
  5
49
100
AcDbEntity
  8
0
  6
CONTINUOUS
 62
         7
100
AcDbLine
 10
8.8516514281
 20
1.6337656427
 30
0.0
 11
8.8516514281
 21
2.0282491824
 31
0.0
  0
LINE
  5
4A
100
AcDbEntity
  8
0
  6
CONTINUOUS
 62
         7
100
AcDbLine
 10
13.0070763911
 20
1.6337722239
 30
0.0
 11
13.0090138852
 21
1.6779855933
 31
0.0
  0
POLYLINE
  5
4B
100
AcDbEntity
  8
0
  6
CONTINUOUS
 62
         7
100
AcDb2dPolyline
 66
         1
 10
0.0
 20
0.0
 30
0.0
 70
       128
  0
VERTEX
  5
4C
100
AcDbEntity
  8
0
100
AcDbVertex
100
AcDb2dVertex
 10
8.8516514281
 20
2.0282491824
 30
0.0
  0
VERTEX
  5
4D
100
AcDbEntity
  8
0
100
AcDbVertex
100
AcDb2dVertex
 10
9.071136103
 20
2.0295854161
 30
0.0
  0
VERTEX
  5
4E
100
AcDbEntity
  8
0
100
AcDbVertex
100
AcDb2dVertex
 10
9.2905177424
 20
2.0287292728
 30
0.0
  0
VERTEX
  5
4F
100
AcDbEntity
  8
0
100
AcDbVertex
100
AcDb2dVertex
 10
9.5094791924
 20
2.0256955595
 30
0.0
  0
VERTEX
  5
50
100
AcDbEntity
  8
0
100
AcDbVertex
100
AcDb2dVertex
 10
9.7277032993
 20
2.0204990835
 30
0.0
  0
VERTEX
  5
51
100
AcDbEntity
  8
0
100
AcDbVertex
100
AcDb2dVertex
 10
9.9451178412
 20
2.0131532591
 30
0.0
  0
VERTEX
  5
52
100
AcDbEntity
  8
0
100
AcDbVertex
100
AcDb2dVertex
 10
10.1615315595
 20
2.0036991537
 30
0.0
  0
VERTEX
  5
53
100
AcDbEntity
  8
0
100
AcDbVertex
100
AcDb2dVertex
 10
10.376630919
 20
1.9921878062
 30
0.0
  0
VERTEX
  5
54
100
AcDbEntity
  8
0
100
AcDbVertex
100
AcDb2dVertex
 10
10.5901023844
 20
1.9786702553
 30
0.0
  0
VERTEX
  5
55
100
AcDbEntity
  8
0
100
AcDbVertex
100
AcDb2dVertex
 10
10.801788039
 20
1.9631946696
 30
0.0
  0
VERTEX
  5
56
100
AcDbEntity
  8
0
100
AcDbVertex
100
AcDb2dVertex
 10
11.0117504599
 20
1.9458110074
 30
0.0
  0
VERTEX
  5
57
100
AcDbEntity
  8
0
100
AcDbVertex
100
AcDb2dVertex
 10
11.2197782472
 20
1.926588591
 30
0.0
  0
VERTEX
  5
58
100
AcDbEntity
  8
0
100
AcDbVertex
100
AcDb2dVertex
 10
11.4256600004
 20
1.9055967429
 30
0.0
  0
VERTEX
  5
59
100
AcDbEntity
  8
0
100
AcDbVertex
100
AcDb2dVertex
 10
11.6311587537
 20
1.8826806937
 30
0.0
  0
VERTEX
  5
5A
100
AcDbEntity
  8
0
100
AcDbVertex
100
AcDb2dVertex
 10
11.8344009285
 20
1.8580862999
 30
0.0
  0
VERTEX
  5
5B
100
AcDbEntity
  8
0
100
AcDbVertex
100
AcDb2dVertex
 10
12.0352096151
 20
1.8318978911
 30
0.0
  0
VERTEX
  5
5C
100
AcDbEntity
  8
0
100
AcDbVertex
100
AcDb2dVertex
 10
12.2334079036
 20
1.8041997973
 30
0.0
  0
VERTEX
  5
5D
100
AcDbEntity
  8
0
100
AcDbVertex
100
AcDb2dVertex
 10
12.4310243757
 20
1.7747447244
 30
0.0
  0
VERTEX
  5
5E
100
AcDbEntity
  8
0
100
AcDbVertex
100
AcDb2dVertex
 10
12.6261145548
 20
1.7438588873
 30
0.0
  0
VERTEX
  5
5F
100
AcDbEntity
  8
0
100
AcDbVertex
100
AcDb2dVertex
 10
12.8187529037
 20
1.7115899542
 30
0.0
  0
VERTEX
  5
60
100
AcDbEntity
  8
0
100
AcDbVertex
100
AcDb2dVertex
 10
13.0090138852
 20
1.6779855933
 30
0.0
  0
SEQEND
  5
61
100
AcDbEntity
  8
0
  0
LINE
  5
62
100
AcDbEntity
  8
0
  6
CONTINUOUS
 62
         7
100
AcDbLine
 10
13.0070763911
 20
1.6337722239
 30
0.0
 11
8.8516514281
 21
1.6337656427
 31
0.0
  0
LINE
  5
63
100
AcDbEntity
  8
0
  6
CONTINUOUS
 62
         7
100
AcDbLine
 10
8.8516514281
 20
1.6337656427
 30
0.0
 11
4.9079656546
 21
1.633759397
 31
0.0
  0
LINE
  5
64
100
AcDbEntity
  8
0
  6
CONTINUOUS
 62
         7
100
AcDbLine
 10
4.9079656546
 20
1.633759397
 30
0.0
 11
4.9079656546
 21
1.8285067963
 31
0.0
  0
LINE
  5
65
100
AcDbEntity
  8
0
  6
CONTINUOUS
 62
         7
100
AcDbLine
 10
4.9079656546
 20
1.8285067963
 30
0.0
 11
7.8606323213
 21
1.9948474066
 31
0.0
  0
POLYLINE
  5
66
100
AcDbEntity
  8
0
  6
CONTINUOUS
 62
         7
100
AcDb2dPolyline
 66
         1
 10
0.0
 20
0.0
 30
0.0
 70
       128
  0
VERTEX
  5
67
100
AcDbEntity
  8
0
100
AcDbVertex
100
AcDb2dVertex
 10
7.8606323213
 20
1.9948474066
 30
0.0
  0
VERTEX
  5
68
100
AcDbEntity
  8
0
100
AcDbVertex
100
AcDb2dVertex
 10
8.3559532759
 20
2.017143955
 30
0.0
  0
VERTEX
  5
69
100
AcDbEntity
  8
0
100
AcDbVertex
100
AcDb2dVertex
 10
8.8516514281
 20
2.0282491824
 30
0.0
  0
SEQEND
  5
6A
100
AcDbEntity
  8
0
  0
LINE
  5
6B
100
AcDbEntity
  8
0
  6
CONTINUOUS
 62
         7
100
AcDbLine
 10
12.9986514672
 20
1.6798602468
 30
0.0
 11
12.9986514679
 21
1.6799716392
 31
0.0
  0
LINE
  5
6C
100
AcDbEntity
  8
0
  6
CONTINUOUS
 62
         7
100
AcDbLine
 10
12.9986225225
 20
1.6798601716
 30
0.0
 11
12.998621235
 21
1.6798307914
 31
0.0
  0
LINE
  5
6D
100
AcDbEntity
  8
0
  6
CONTINUOUS
 62
         7
100
AcDbLine
 10
12.8928251628
 20
1.6337719468
 30
0.0
 11
13.0070025077
 21
1.6337721263
 31
0.0
  0
LINE
  5
6E
100
AcDbEntity
  8
0
  6
CONTINUOUS
 62
         7
100
AcDbLine
 10
13.0070765558
 20
1.6337721264
 30
0.0
 11
13.0090140499
 21
1.6779854959
 31
0.0
  0
LINE
  5
6F
100
AcDbEntity
  8
0
  6
CONTINUOUS
 62
         7
100
AcDbLine
 10
13.0070765558
 20
1.6337721264
 30
0.0
 11
13.0070025077
 21
1.6337721263
 31
0.0
  0
POLYLINE
  5
70
100
AcDbEntity
  8
0
  6
CONTINUOUS
 62
         7
100
AcDb2dPolyline
 66
         1
 10
0.0
 20
0.0
 30
0.0
 70
       128
  0
VERTEX
  5
71
100
AcDbEntity
  8
0
100
AcDbVertex
100
AcDb2dVertex
 10
13.0090138852
 20
1.6991576888
 30
0.0
  0
VERTEX
  5
72
100
AcDbEntity
  8
0
100
AcDbVertex
100
AcDb2dVertex
 10
12.773648981
 20
1.7404339697
 30
0.0
  0
VERTEX
  5
73
100
AcDbEntity
  8
0
100
AcDbVertex
100
AcDb2dVertex
 10
12.5346812788
 20
1.7796498866
 30
0.0
  0
VERTEX
  5
74
100
AcDbEntity
  8
0
100
AcDbVertex
100
AcDb2dVertex
 10
12.3727422604
 20
1.8046912148
 30
0.0
  0
VERTEX
  5
75
100
AcDbEntity
  8
0
100
AcDbVertex
100
AcDb2dVertex
 10
12.2090125936
 20
1.8287545914
 30
0.0
  0
VERTEX
  5
76
100
AcDbEntity
  8
0
100
AcDbVertex
100
AcDb2dVertex
 10
12.0435052035
 20
1.8518011186
 30
0.0
  0
VERTEX
  5
77
100
AcDbEntity
  8
0
100
AcDbVertex
100
AcDb2dVertex
 10
11.8766735151
 20
1.8737352149
 30
0.0
  0
VERTEX
  5
78
100
AcDbEntity
  8
0
100
AcDbVertex
100
AcDb2dVertex
 10
11.7081165141
 20
1.8945788228
 30
0.0
  0
VERTEX
  5
79
100
AcDbEntity
  8
0
100
AcDbVertex
100
AcDb2dVertex
 10
11.5379384897
 20
1.9142834586
 30
0.0
  0
VERTEX
  5
7A
100
AcDbEntity
  8
0
100
AcDbVertex
100
AcDb2dVertex
 10
11.3653664507
 20
1.9328931072
 30
0.0
  0
VERTEX
  5
7B
100
AcDbEntity
  8
0
100
AcDbVertex
100
AcDb2dVertex
 10
11.1912459875
 20
1.9502745164
 30
0.0
  0
VERTEX
  5
7C
100
AcDbEntity
  8
0
100
AcDbVertex
100
AcDb2dVertex
 10
11.0156959544
 20
1.9663832446
 30
0.0
  0
VERTEX
  5
7D
100
AcDbEntity
  8
0
100
AcDbVertex
100
AcDb2dVertex
 10
10.8080507711
 20
1.98359925
 30
0.0
  0
VERTEX
  5
7E
100
AcDbEntity
  8
0
100
AcDbVertex
100
AcDb2dVertex
 10
10.5984741257
 20
1.998966123
 30
0.0
  0
VERTEX
  5
7F
100
AcDbEntity
  8
0
100
AcDbVertex
100
AcDb2dVertex
 10
10.3872192882
 20
2.0124265284
 30
0.0
  0
VERTEX
  5
80
100
AcDbEntity
  8
0
100
AcDbVertex
100
AcDb2dVertex
 10
10.1745395287
 20
2.0239231315
 30
0.0
  0
VERTEX
  5
81
100
AcDbEntity
  8
0
100
AcDbVertex
100
AcDb2dVertex
 10
9.9606881171
 20
2.0333985972
 30
0.0
  0
VERTEX
  5
82
100
AcDbEntity
  8
0
100
AcDbVertex
100
AcDb2dVertex
 10
9.7403376205
 20
2.0409651034
 30
0.0
  0
VERTEX
  5
83
100
AcDbEntity
  8
0
100
AcDbVertex
100
AcDb2dVertex
 10
9.5189179636
 20
2.0463376476
 30
0.0
  0
VERTEX
  5
84
100
AcDbEntity
  8
0
100
AcDbVertex
100
AcDb2dVertex
 10
9.296769886
 20
2.0494954589
 30
0.0
  0
VERTEX
  5
85
100
AcDbEntity
  8
0
100
AcDbVertex
100
AcDb2dVertex
 10
9.0742341276
 20
2.0504177665
 30
0.0
  0
VERTEX
  5
86
100
AcDbEntity
  8
0
100
AcDbVertex
100
AcDb2dVertex
 10
8.8516514281
 20
2.0490837997
 30
0.0
  0
SEQEND
  5
87
100
AcDbEntity
  8
0
  0
LINE
  5
88
100
AcDbEntity
  8
0
  6
CONTINUOUS
 62
         7
100
AcDbLine
 10
13.0090138852
 20
1.6991576888
 30
0.0
 11
13.0090138852
 21
1.6779855933
 31
0.0
  0
POLYLINE
  5
89
100
AcDbEntity
  8
0
  6
CONTINUOUS
 62
         7
100
AcDb2dPolyline
 66
         1
 10
0.0
 20
0.0
 30
0.0
 70
       128
  0
VERTEX
  5
8A
100
AcDbEntity
  8
0
100
AcDbVertex
100
AcDb2dVertex
 10
8.8516514281
 20
2.0282491824
 30
0.0
  0
VERTEX
  5
8B
100
AcDbEntity
  8
0
100
AcDbVertex
100
AcDb2dVertex
 10
9.0359886765
 20
2.0295218249
 30
0.0
  0
VERTEX
  5
8C
100
AcDbEntity
  8
0
100
AcDbVertex
100
AcDb2dVertex
 10
9.2202329288
 20
2.0292481504
 30
0.0
  0
VERTEX
  5
8D
100
AcDbEntity
  8
0
100
AcDbVertex
100
AcDb2dVertex
 10
9.4042043475
 20
2.0274329708
 30
0.0
  0
VERTEX
  5
8E
100
AcDbEntity
  8
0
100
AcDbVertex
100
AcDb2dVertex
 10
9.5889144451
 20
2.0240570287
 30
0.0
  0
VERTEX
  5
8F
100
AcDbEntity
  8
0
100
AcDbVertex
100
AcDb2dVertex
 10
9.7731443961
 20
2.0191418132
 30
0.0
  0
VERTEX
  5
90
100
AcDbEntity
  8
0
100
AcDbVertex
100
AcDb2dVertex
 10
9.9566838734
 20
2.0127066397
 30
0.0
  0
VERTEX
  5
91
100
AcDbEntity
  8
0
100
AcDbVertex
100
AcDb2dVertex
 10
10.1383504081
 20
2.0048206243
 30
0.0
  0
VERTEX
  5
92
100
AcDbEntity
  8
0
100
AcDbVertex
100
AcDb2dVertex
 10
10.3191244154
 20
1.9954770032
 30
0.0
  0
VERTEX
  5
93
100
AcDbEntity
  8
0
100
AcDbVertex
100
AcDb2dVertex
 10
10.4988294251
 20
1.9847073019
 30
0.0
  0
VERTEX
  5
94
100
AcDbEntity
  8
0
100
AcDbVertex
100
AcDb2dVertex
 10
10.6785115877
 20
1.9724576247
 30
0.0
  0
VERTEX
  5
95
100
AcDbEntity
  8
0
100
AcDbVertex
100
AcDb2dVertex
 10
10.8569854504
 20
1.9588237945
 30
0.0
  0
VERTEX
  5
96
100
AcDbEntity
  8
0
100
AcDbVertex
100
AcDb2dVertex
 10
11.0341124812
 20
1.943845081
 30
0.0
  0
VERTEX
  5
97
100
AcDbEntity
  8
0
100
AcDbVertex
100
AcDb2dVertex
 10
11.2401825264
 20
1.9245940918
 30
0.0
  0
VERTEX
  5
98
100
AcDbEntity
  8
0
100
AcDbVertex
100
AcDb2dVertex
 10
11.4443246253
 20
1.9035873766
 30
0.0
  0
VERTEX
  5
99
100
AcDbEntity
  8
0
100
AcDbVertex
100
AcDb2dVertex
 10
11.6463563379
 20
1.8809013883
 30
0.0
  0
VERTEX
  5
9A
100
AcDbEntity
  8
0
100
AcDbVertex
100
AcDb2dVertex
 10
11.8460952243
 20
1.8566125798
 30
0.0
  0
VERTEX
  5
9B
100
AcDbEntity
  8
0
100
AcDbVertex
100
AcDb2dVertex
 10
12.0433588445
 20
1.830797404
 30
0.0
  0
VERTEX
  5
9C
100
AcDbEntity
  8
0
100
AcDbVertex
100
AcDb2dVertex
 10
12.2414110863
 20
1.8030441976
 30
0.0
  0
VERTEX
  5
9D
100
AcDbEntity
  8
0
100
AcDbVertex
100
AcDb2dVertex
 10
12.4369562623
 20
1.7738344534
 30
0.0
  0
VERTEX
  5
9E
100
AcDbEntity
  8
0
100
AcDbVertex
100
AcDb2dVertex
 10
12.6300408215
 20
1.7432201314
 30
0.0
  0
VERTEX
  5
9F
100
AcDbEntity
  8
0
100
AcDbVertex
100
AcDb2dVertex
 10
12.8207112128
 20
1.7112531914
 30
0.0
  0
VERTEX
  5
A0
100
AcDbEntity
  8
0
100
AcDbVertex
100
AcDb2dVertex
 10
13.0090138852
 20
1.6779855933
 30
0.0
  0
SEQEND
  5
A1
100
AcDbEntity
  8
0
  0
LINE
  5
A2
100
AcDbEntity
  8
0
  6
CONTINUOUS
 62
         7
100
AcDbLine
 10
8.8516514281
 20
2.0490837997
 30
0.0
 11
8.8516514281
 21
2.0282491824
 31
0.0
  0
POLYLINE
  5
A3
100
AcDbEntity
  8
0
  6
CONTINUOUS
 62
         7
100
AcDb2dPolyline
 66
         1
 10
0.0
 20
0.0
 30
0.0
 70
       128
  0
VERTEX
  5
A4
100
AcDbEntity
  8
0
100
AcDbVertex
100
AcDb2dVertex
 10
7.8606323213
 20
1.9948474066
 30
0.0
  0
VERTEX
  5
A5
100
AcDbEntity
  8
0
100
AcDbVertex
100
AcDb2dVertex
 10
8.1081650019
 20
2.0073910542
 30
0.0
  0
VERTEX
  5
A6
100
AcDbEntity
  8
0
100
AcDbVertex
100
AcDb2dVertex
 10
8.3558244727
 20
2.0171396134
 30
0.0
  0
VERTEX
  5
A7
100
AcDbEntity
  8
0
100
AcDbVertex
100
AcDb2dVertex
 10
8.60370634
 20
2.0240944776
 30
0.0
  0
VERTEX
  5
A8
100
AcDbEntity
  8
0
100
AcDbVertex
100
AcDb2dVertex
 10
8.8516514281
 20
2.0282491824
 30
0.0
  0
SEQEND
  5
A9
100
AcDbEntity
  8
0
  0
POLYLINE
  5
AA
100
AcDbEntity
  8
0
  6
CONTINUOUS
 62
         7
100
AcDb2dPolyline
 66
         1
 10
0.0
 20
0.0
 30
0.0
 70
       128
  0
VERTEX
  5
AB
100
AcDbEntity
  8
0
100
AcDbVertex
100
AcDb2dVertex
 10
8.8516514281
 20
2.0490837997
 30
0.0
  0
VERTEX
  5
AC
100
AcDbEntity
  8
0
100
AcDbVertex
100
AcDb2dVertex
 10
8.6038338611
 20
2.0449358893
 30
0.0
  0
VERTEX
  5
AD
100
AcDbEntity
  8
0
100
AcDbVertex
100
AcDb2dVertex
 10
8.3560793149
 20
2.0379933507
 30
0.0
  0
VERTEX
  5
AE
100
AcDbEntity
  8
0
100
AcDbVertex
100
AcDb2dVertex
 10
8.1082924855
 20
2.0282512
 30
0.0
  0
VERTEX
  5
AF
100
AcDbEntity
  8
0
100
AcDbVertex
100
AcDb2dVertex
 10
7.8606323213
 20
2.0157137418
 30
0.0
  0
SEQEND
  5
B0
100
AcDbEntity
  8
0
  0
LINE
  5
B1
100
AcDbEntity
  8
0
  6
CONTINUOUS
 62
         7
100
AcDbLine
 10
7.8606323213
 20
1.9948474066
 30
0.0
 11
4.9079656546
 21
1.8285067963
 31
0.0
  0
LINE
  5
B2
100
AcDbEntity
  8
0
  6
CONTINUOUS
 62
         7
100
AcDbLine
 10
4.9067938517
 20
1.8493071486
 30
0.0
 11
4.9079656546
 21
1.8285067963
 31
0.0
  0
LINE
  5
B3
100
AcDbEntity
  8
0
  6
CONTINUOUS
 62
         7
100
AcDbLine
 10
4.9067938517
 20
1.8493071486
 30
0.0
 11
7.8594605184
 21
2.0156477589
 31
0.0
  0
LINE
  5
B4
100
AcDbEntity
  8
0
  6
CONTINUOUS
 62
         7
100
AcDbLine
 10
7.8606323213
 20
2.0157137418
 30
0.0
 11
7.8594605184
 21
2.0156477589
 31
0.0
  0
POLYLINE
  5
B5
100
AcDbEntity
  8
0
  6
CONTINUOUS
 62
         7
100
AcDb2dPolyline
 66
         1
 10
0.0
 20
0.0
 30
0.0
 70
       128
  0
VERTEX
  5
B6
100
AcDbEntity
  8
0
100
AcDbVertex
100
AcDb2dVertex
 10
7.8594605184
 20
2.0156477589
 30
0.0
  0
VERTEX
  5
B7
100
AcDbEntity
  8
0
100
AcDbVertex
100
AcDb2dVertex
 10
7.9363908132
 20
2.0198464106
 30
0.0
  0
VERTEX
  5
B8
100
AcDbEntity
  8
0
100
AcDbVertex
100
AcDb2dVertex
 10
8.0099977287
 20
2.0236076678
 30
0.0
  0
VERTEX
  5
B9
100
AcDbEntity
  8
0
100
AcDbVertex
100
AcDb2dVertex
 10
8.0819541924
 20
2.0270482206
 30
0.0
  0
VERTEX
  5
BA
100
AcDbEntity
  8
0
100
AcDbVertex
100
AcDb2dVertex
 10
8.1509065293
 20
2.0301261047
 30
0.0
  0
VERTEX
  5
BB
100
AcDbEntity
  8
0
100
AcDbVertex
100
AcDb2dVertex
 10
8.216161919
 20
2.0328348887
 30
0.0
  0
VERTEX
  5
BC
100
AcDbEntity
  8
0
100
AcDbVertex
100
AcDb2dVertex
 10
8.277142166
 20
2.0351922318
 30
0.0
  0
VERTEX
  5
BD
100
AcDbEntity
  8
0
100
AcDbVertex
100
AcDb2dVertex
 10
8.33269982
 20
2.0371937811
 30
0.0
  0
VERTEX
  5
BE
100
AcDbEntity
  8
0
100
AcDbVertex
100
AcDb2dVertex
 10
8.3822439254
 20
2.0388585911
 30
0.0
  0
VERTEX
  5
BF
100
AcDbEntity
  8
0
100
AcDbVertex
100
AcDb2dVertex
 10
8.4253642759
 20
2.0402166022
 30
0.0
  0
VERTEX
  5
C0
100
AcDbEntity
  8
0
100
AcDbVertex
100
AcDb2dVertex
 10
8.4612477105
 20
2.0412819846
 30
0.0
  0
VERTEX
  5
C1
100
AcDbEntity
  8
0
100
AcDbVertex
100
AcDb2dVertex
 10
8.4894465329
 20
2.0420792953
 30
0.0
  0
VERTEX
  5
C2
100
AcDbEntity
  8
0
100
AcDbVertex
100
AcDb2dVertex
 10
8.5097982686
 20
2.0426313964
 30
0.0
  0
VERTEX
  5
C3
100
AcDbEntity
  8
0
100
AcDbVertex
100
AcDb2dVertex
 10
8.5219181629
 20
2.0429499324
 30
0.0
  0
VERTEX
  5
C4
100
AcDbEntity
  8
0
100
AcDbVertex
100
AcDb2dVertex
 10
8.525359038
 20
2.0430409689
 30
0.0
  0
SEQEND
  5
C5
100
AcDbEntity
  8
0
  0
LINE
  5
C6
100
AcDbEntity
  8
0
  6
CONTINUOUS
 62
         7
100
AcDbLine
 10
13.0090140499
 20
1.6779865028
 30
0.0
 11
13.0090138852
 21
1.6779855933
 31
0.0
  0
LINE
  5
C7
100
AcDbEntity
  8
0
  6
CONTINUOUS
 62
         7
100
AcDbLine
 10
13.0090140499
 20
1.699157659
 30
0.0
 11
13.0090140499
 21
1.6779865028
 31
0.0
  0
LINE
  5
C8
100
AcDbEntity
  8
0
  6
CONTINUOUS
 62
         7
100
AcDbLine
 10
13.0090140499
 20
1.699157659
 30
0.0
 11
13.0090138852
 21
1.6991576888
 31
0.0
  0
LINE
  5
C9
100
AcDbEntity
  8
0
  6
PHANTOM
 62
         7
100
AcDbLine
 10
8.8516514281
 20
1.6337656427
 30
0.0
 11
8.8516514281
 21
1.1444621197
 31
0.0
  0
LINE
  5
CA
100
AcDbEntity
  8
0
  6
PHANTOM
 62
         7
100
AcDbLine
 10
7.8606323213
 20
2.0157137418
 30
0.0
 11
7.8606323213
 21
1.9948474066
 31
0.0
  0
DIMENSION
  5
E0
100
AcDbEntity
  8
0
 62
         7
100
AcDbDimension
  2
*D0
 10
4.5872802605
 20
1.8493071486
 30
0.0
 11
4.5872802605
 21
1.4968846342
 31
0.0
 70
       160
  3
SLDDIMSTYLE0
100
AcDbAlignedDimension
 13
4.9079656546
 23
1.1444621197
 33
0.0
 14
4.9067938517
 24
1.8493071486
 34
0.0
 50
90.0
100
AcDbRotatedDimension
  0
DIMENSION
  5
ED
100
AcDbEntity
  8
0
 62
         7
100
AcDbDimension
  2
*D2
 10
4.1720502146
 20
1.1444621197
 30
0.0
 11
4.1720502146
 21
1.5974494433
 31
0.0
 70
       160
  3
SLDDIMSTYLE0
100
AcDbAlignedDimension
 13
9.0955000026
 23
2.0504367669
 33
0.0
 14
4.9079656546
 24
1.1444621197
 34
0.0
 50
90.0
100
AcDbRotatedDimension
  0
LINE
  5
EE
100
AcDbEntity
  8
0
  6
CONTINUOUS
 62
         7
100
AcDbLine
 10
13.8659984421
 20
2.0296034336
 30
0.0
 11
13.8632984893
 21
2.0296034336
 31
0.0
  0
LINE
  5
EF
100
AcDbEntity
  8
0
  6
CONTINUOUS
 62
         7
100
AcDbLine
 10
16.387262657
 20
2.0504367669
 30
0.0
 11
13.8632764598
 21
2.0504367669
 31
0.0
  0
LINE
  5
F0
100
AcDbEntity
  8
0
  6
CONTINUOUS
 62
         7
100
AcDbLine
 10
14.666202514
 20
1.8285067963
 30
0.0
 11
14.6670292857
 21
1.8285067963
 31
0.0
  0
LINE
  5
F1
100
AcDbEntity
  8
0
  6
CONTINUOUS
 62
         7
100
AcDbLine
 10
15.1262550179
 20
1.2846465113
 30
0.0
 11
15.1253417785
 21
1.2842588642
 31
0.0
  0
LINE
  5
F2
100
AcDbEntity
  8
0
  6
CONTINUOUS
 62
         7
100
AcDbLine
 10
15.1253417785
 20
1.2842588642
 30
0.0
 11
15.1244639351
 21
1.2846314867
 31
0.0
  0
POLYLINE
  5
F3
100
AcDbEntity
  8
0
  6
CONTINUOUS
 62
         7
100
AcDb2dPolyline
 66
         1
 10
0.0
 20
0.0
 30
0.0
 70
       128
  0
VERTEX
  5
F4
100
AcDbEntity
  8
0
100
AcDbVertex
100
AcDb2dVertex
 10
15.1172223872
 20
1.1444621197
 30
0.0
  0
VERTEX
  5
F5
100
AcDbEntity
  8
0
100
AcDbVertex
100
AcDb2dVertex
 10
15.1171442859
 20
1.144522723
 30
0.0
  0
VERTEX
  5
F6
100
AcDbEntity
  8
0
100
AcDbVertex
100
AcDb2dVertex
 10
15.1170866926
 20
1.1446245366
 30
0.0
  0
VERTEX
  5
F7
100
AcDbEntity
  8
0
100
AcDbVertex
100
AcDb2dVertex
 10
15.1170423698
 20
1.1447784866
 30
0.0
  0
VERTEX
  5
F8
100
AcDbEntity
  8
0
100
AcDbVertex
100
AcDb2dVertex
 10
15.117014273
 20
1.1449697566
 30
0.0
  0
VERTEX
  5
F9
100
AcDbEntity
  8
0
100
AcDbVertex
100
AcDb2dVertex
 10
15.1169982555
 20
1.1452066887
 30
0.0
  0
VERTEX
  5
FA
100
AcDbEntity
  8
0
100
AcDbVertex
100
AcDb2dVertex
 10
15.11699305
 20
1.1454940634
 30
0.0
  0
VERTEX
  5
FB
100
AcDbEntity
  8
0
100
AcDbVertex
100
AcDb2dVertex
 10
15.1169973631
 20
1.1458213645
 30
0.0
  0
VERTEX
  5
FC
100
AcDbEntity
  8
0
100
AcDbVertex
100
AcDb2dVertex
 10
15.1170470247
 20
1.1469886413
 30
0.0
  0
VERTEX
  5
FD
100
AcDbEntity
  8
0
100
AcDbVertex
100
AcDb2dVertex
 10
15.1171276605
 20
1.1485267163
 30
0.0
  0
VERTEX
  5
FE
100
AcDbEntity
  8
0
100
AcDbVertex
100
AcDb2dVertex
 10
15.1172215981
 20
1.1508537371
 30
0.0
  0
VERTEX
  5
FF
100
AcDbEntity
  8
0
100
AcDbVertex
100
AcDb2dVertex
 10
15.1172749416
 20
1.1537478852
 30
0.0
  0
VERTEX
  5
100
100
AcDbEntity
  8
0
100
AcDbVertex
100
AcDb2dVertex
 10
15.1172889336
 20
1.15723106
 30
0.0
  0
VERTEX
  5
101
100
AcDbEntity
  8
0
100
AcDbVertex
100
AcDb2dVertex
 10
15.117258824
 20
1.1648019115
 30
0.0
  0
VERTEX
  5
102
100
AcDbEntity
  8
0
100
AcDbVertex
100
AcDb2dVertex
 10
15.1172242148
 20
1.1741742432
 30
0.0
  0
VERTEX
  5
103
100
AcDbEntity
  8
0
100
AcDbVertex
100
AcDb2dVertex
 10
15.1172237045
 20
1.1852953838
 30
0.0
  0
VERTEX
  5
104
100
AcDbEntity
  8
0
100
AcDbVertex
100
AcDb2dVertex
 10
15.1172520246
 20
1.2093869825
 30
0.0
  0
VERTEX
  5
105
100
AcDbEntity
  8
0
100
AcDbVertex
100
AcDb2dVertex
 10
15.1172628087
 20
1.2390893251
 30
0.0
  0
VERTEX
  5
106
100
AcDbEntity
  8
0
100
AcDbVertex
100
AcDb2dVertex
 10
15.1172732497
 20
1.2743626099
 30
0.0
  0
VERTEX
  5
107
100
AcDbEntity
  8
0
100
AcDbVertex
100
AcDb2dVertex
 10
15.1172921498
 20
1.3131909608
 30
0.0
  0
VERTEX
  5
108
100
AcDbEntity
  8
0
100
AcDbVertex
100
AcDb2dVertex
 10
15.1173132047
 20
1.3570384702
 30
0.0
  0
VERTEX
  5
109
100
AcDbEntity
  8
0
100
AcDbVertex
100
AcDb2dVertex
 10
15.1173175654
 20
1.4058022792
 30
0.0
  0
VERTEX
  5
10A
100
AcDbEntity
  8
0
100
AcDbVertex
100
AcDb2dVertex
 10
15.1173515305
 20
1.4597396562
 30
0.0
  0
VERTEX
  5
10B
100
AcDbEntity
  8
0
100
AcDbVertex
100
AcDb2dVertex
 10
15.1173945249
 20
1.4850201099
 30
0.0
  0
VERTEX
  5
10C
100
AcDbEntity
  8
0
100
AcDbVertex
100
AcDb2dVertex
 10
15.1174292841
 20
1.5112406643
 30
0.0
  0
VERTEX
  5
10D
100
AcDbEntity
  8
0
100
AcDbVertex
100
AcDb2dVertex
 10
15.117423157
 20
1.5384334362
 30
0.0
  0
VERTEX
  5
10E
100
AcDbEntity
  8
0
100
AcDbVertex
100
AcDb2dVertex
 10
15.1173461083
 20
1.5665178738
 30
0.0
  0
VERTEX
  5
10F
100
AcDbEntity
  8
0
100
AcDbVertex
100
AcDb2dVertex
 10
15.1172776648
 20
1.5835408865
 30
0.0
  0
VERTEX
  5
110
100
AcDbEntity
  8
0
100
AcDbVertex
100
AcDb2dVertex
 10
15.117220949
 20
1.6007861444
 30
0.0
  0
VERTEX
  5
111
100
AcDbEntity
  8
0
100
AcDbVertex
100
AcDb2dVertex
 10
15.1171998322
 20
1.6182735923
 30
0.0
  0
VERTEX
  5
112
100
AcDbEntity
  8
0
100
AcDbVertex
100
AcDb2dVertex
 10
15.1172080783
 20
1.6261497434
 30
0.0
  0
VERTEX
  5
113
100
AcDbEntity
  8
0
100
AcDbVertex
100
AcDb2dVertex
 10
15.1172293661
 20
1.6338752531
 30
0.0
  0
VERTEX
  5
114
100
AcDbEntity
  8
0
100
AcDbVertex
100
AcDb2dVertex
 10
15.1172318809
 20
1.6344092452
 30
0.0
  0
SEQEND
  5
115
100
AcDbEntity
  8
0
  0
LINE
  5
116
100
AcDbEntity
  8
0
  6
CONTINUOUS
 62
         7
100
AcDbLine
 10
15.1245668758
 20
1.6779855933
 30
0.0
 11
15.1174333748
 21
1.6611801181
 31
0.0
  0
LINE
  5
117
100
AcDbEntity
  8
0
  6
CONTINUOUS
 62
         7
100
AcDbLine
 10
15.1253632774
 20
1.2681779482
 30
0.0
 11
15.1253614689
 21
1.2842672223
 31
0.0
  0
POLYLINE
  5
118
100
AcDbEntity
  8
0
  6
CONTINUOUS
 62
         7
100
AcDb2dPolyline
 66
         1
 10
0.0
 20
0.0
 30
0.0
 70
       128
  0
VERTEX
  5
119
100
AcDbEntity
  8
0
100
AcDbVertex
100
AcDb2dVertex
 10
15.1253611415
 20
1.2871795737
 30
0.0
  0
VERTEX
  5
11A
100
AcDbEntity
  8
0
100
AcDbVertex
100
AcDb2dVertex
 10
15.1253604406
 20
1.2934148378
 30
0.0
  0
VERTEX
  5
11B
100
AcDbEntity
  8
0
100
AcDbVertex
100
AcDb2dVertex
 10
15.1253630317
 20
1.3264222895
 30
0.0
  0
SEQEND
  5
11C
100
AcDbEntity
  8
0
  0
POLYLINE
  5
11D
100
AcDbEntity
  8
0
  6
CONTINUOUS
 62
         7
100
AcDb2dPolyline
 66
         1
 10
0.0
 20
0.0
 30
0.0
 70
       128
  0
VERTEX
  5
11E
100
AcDbEntity
  8
0
100
AcDbVertex
100
AcDb2dVertex
 10
15.1253601097
 20
1.3964606106
 30
0.0
  0
VERTEX
  5
11F
100
AcDbEntity
  8
0
100
AcDbVertex
100
AcDb2dVertex
 10
15.1253510882
 20
1.4247280732
 30
0.0
  0
VERTEX
  5
120
100
AcDbEntity
  8
0
100
AcDbVertex
100
AcDb2dVertex
 10
15.1253629445
 20
1.4782396565
 30
0.0
  0
SEQEND
  5
121
100
AcDbEntity
  8
0
  0
POLYLINE
  5
122
100
AcDbEntity
  8
0
  6
CONTINUOUS
 62
         7
100
AcDb2dPolyline
 66
         1
 10
0.0
 20
0.0
 30
0.0
 70
       128
  0
VERTEX
  5
123
100
AcDbEntity
  8
0
100
AcDbVertex
100
AcDb2dVertex
 10
15.1253528054
 20
1.5729909247
 30
0.0
  0
VERTEX
  5
124
100
AcDbEntity
  8
0
100
AcDbVertex
100
AcDb2dVertex
 10
15.1253140137
 20
1.5852890837
 30
0.0
  0
VERTEX
  5
125
100
AcDbEntity
  8
0
100
AcDbVertex
100
AcDb2dVertex
 10
15.1252386323
 20
1.6022957521
 30
0.0
  0
VERTEX
  5
126
100
AcDbEntity
  8
0
100
AcDbVertex
100
AcDb2dVertex
 10
15.125174886
 20
1.619524447
 30
0.0
  0
VERTEX
  5
127
100
AcDbEntity
  8
0
100
AcDbVertex
100
AcDb2dVertex
 10
15.1251494513
 20
1.6352526579
 30
0.0
  0
SEQEND
  5
128
100
AcDbEntity
  8
0
  0
LINE
  5
129
100
AcDbEntity
  8
0
  6
CONTINUOUS
 62
         7
100
AcDbLine
 10
15.125362619
 20
1.1636393042
 30
0.0
 11
15.1172223872
 21
1.1444621197
 31
0.0
  0
LINE
  5
12A
100
AcDbEntity
  8
0
  6
CONTINUOUS
 62
         7
100
AcDbLine
 10
13.9644917456
 20
1.633767247
 30
0.0
 11
15.1172223872
 21
1.1444621197
 31
0.0
  0
LINE
  5
12B
100
AcDbEntity
  8
0
  6
CONTINUOUS
 62
         7
100
AcDbLine
 10
13.8924008088
 20
1.6337656427
 30
0.0
 11
13.8578879711
 21
2.0282491824
 31
0.0
  0
POLYLINE
  5
12C
100
AcDbEntity
  8
0
  6
CONTINUOUS
 62
         7
100
AcDb2dPolyline
 66
         1
 10
0.0
 20
0.0
 30
0.0
 70
       128
  0
VERTEX
  5
12D
100
AcDbEntity
  8
0
100
AcDbVertex
100
AcDb2dVertex
 10
13.8618449194
 20
2.0294925578
 30
0.0
  0
VERTEX
  5
12E
100
AcDbEntity
  8
0
100
AcDbVertex
100
AcDb2dVertex
 10
13.862140434
 20
2.0295854161
 30
0.0
  0
VERTEX
  5
12F
100
AcDbEntity
  8
0
100
AcDbVertex
100
AcDb2dVertex
 10
13.8644154641
 20
2.0293986307
 30
0.0
  0
SEQEND
  5
130
100
AcDbEntity
  8
0
  0
POLYLINE
  5
131
100
AcDbEntity
  8
0
  6
CONTINUOUS
 62
         7
100
AcDb2dPolyline
 66
         1
 10
0.0
 20
0.0
 30
0.0
 70
       128
  0
VERTEX
  5
132
100
AcDbEntity
  8
0
100
AcDbVertex
100
AcDb2dVertex
 10
14.634545797
 20
1.8172730616
 30
0.0
  0
VERTEX
  5
133
100
AcDbEntity
  8
0
100
AcDbVertex
100
AcDb2dVertex
 10
14.6793034935
 20
1.8041997973
 30
0.0
  0
VERTEX
  5
134
100
AcDbEntity
  8
0
100
AcDbVertex
100
AcDb2dVertex
 10
14.7800182639
 20
1.7747447244
 30
0.0
  0
VERTEX
  5
135
100
AcDbEntity
  8
0
100
AcDbVertex
100
AcDb2dVertex
 10
14.8852577777
 20
1.7438588873
 30
0.0
  0
VERTEX
  5
136
100
AcDbEntity
  8
0
100
AcDbVertex
100
AcDb2dVertex
 10
14.9945577082
 20
1.7115899542
 30
0.0
  0
VERTEX
  5
137
100
AcDbEntity
  8
0
100
AcDbVertex
100
AcDb2dVertex
 10
15.1074537288
 20
1.6779855933
 30
0.0
  0
SEQEND
  5
138
100
AcDbEntity
  8
0
  0
LINE
  5
139
100
AcDbEntity
  8
0
  6
CONTINUOUS
 62
         7
100
AcDbLine
 10
15.1108017222
 20
1.6337722239
 30
0.0
 11
15.1074537288
 21
1.6779855933
 31
0.0
  0
POLYLINE
  5
13A
100
AcDbEntity
  8
0
  6
CONTINUOUS
 62
         7
100
AcDb2dPolyline
 66
         1
 10
0.0
 20
0.0
 30
0.0
 70
       128
  0
VERTEX
  5
13B
100
AcDbEntity
  8
0
100
AcDbVertex
100
AcDb2dVertex
 10
15.1108017222
 20
1.6337722239
 30
0.0
  0
VERTEX
  5
13C
100
AcDbEntity
  8
0
100
AcDbVertex
100
AcDb2dVertex
 10
15.0014209433
 20
1.6337719229
 30
0.0
  0
VERTEX
  5
13D
100
AcDbEntity
  8
0
100
AcDbVertex
100
AcDb2dVertex
 10
14.8955993419
 20
1.6337716187
 30
0.0
  0
VERTEX
  5
13E
100
AcDbEntity
  8
0
100
AcDbVertex
100
AcDb2dVertex
 10
14.7937584454
 20
1.6337713111
 30
0.0
  0
VERTEX
  5
13F
100
AcDbEntity
  8
0
100
AcDbVertex
100
AcDb2dVertex
 10
14.6963197814
 20
1.6337710001
 30
0.0
  0
VERTEX
  5
140
100
AcDbEntity
  8
0
100
AcDbVertex
100
AcDb2dVertex
 10
14.6036228331
 20
1.6337706852
 30
0.0
  0
VERTEX
  5
141
100
AcDbEntity
  8
0
100
AcDbVertex
100
AcDb2dVertex
 10
14.5159201184
 20
1.6337703666
 30
0.0
  0
VERTEX
  5
142
100
AcDbEntity
  8
0
100
AcDbVertex
100
AcDb2dVertex
 10
14.433353569
 20
1.6337700446
 30
0.0
  0
VERTEX
  5
143
100
AcDbEntity
  8
0
100
AcDbVertex
100
AcDb2dVertex
 10
14.3560651166
 20
1.6337697194
 30
0.0
  0
VERTEX
  5
144
100
AcDbEntity
  8
0
100
AcDbVertex
100
AcDb2dVertex
 10
14.2841148404
 20
1.6337693911
 30
0.0
  0
VERTEX
  5
145
100
AcDbEntity
  8
0
100
AcDbVertex
100
AcDb2dVertex
 10
14.2176427912
 20
1.6337690598
 30
0.0
  0
VERTEX
  5
146
100
AcDbEntity
  8
0
100
AcDbVertex
100
AcDb2dVertex
 10
14.1568768184
 20
1.6337687257
 30
0.0
  0
VERTEX
  5
147
100
AcDbEntity
  8
0
100
AcDbVertex
100
AcDb2dVertex
 10
14.1020447714
 20
1.6337683892
 30
0.0
  0
VERTEX
  5
148
100
AcDbEntity
  8
0
100
AcDbVertex
100
AcDb2dVertex
 10
14.0538424916
 20
1.6337680537
 30
0.0
  0
VERTEX
  5
149
100
AcDbEntity
  8
0
100
AcDbVertex
100
AcDb2dVertex
 10
14.0118723141
 20
1.6337677159
 30
0.0
  0
VERTEX
  5
14A
100
AcDbEntity
  8
0
100
AcDbVertex
100
AcDb2dVertex
 10
13.9762458094
 20
1.6337673763
 30
0.0
  0
VERTEX
  5
14B
100
AcDbEntity
  8
0
100
AcDbVertex
100
AcDb2dVertex
 10
13.9470745481
 20
1.6337670353
 30
0.0
  0
VERTEX
  5
14C
100
AcDbEntity
  8
0
100
AcDbVertex
100
AcDb2dVertex
 10
13.9240245683
 20
1.6337666883
 30
0.0
  0
VERTEX
  5
14D
100
AcDbEntity
  8
0
100
AcDbVertex
100
AcDb2dVertex
 10
13.9073200323
 20
1.6337663403
 30
0.0
  0
VERTEX
  5
14E
100
AcDbEntity
  8
0
100
AcDbVertex
100
AcDb2dVertex
 10
13.8968243194
 20
1.6337659916
 30
0.0
  0
VERTEX
  5
14F
100
AcDbEntity
  8
0
100
AcDbVertex
100
AcDb2dVertex
 10
13.8924008088
 20
1.6337656427
 30
0.0
  0
SEQEND
  5
150
100
AcDbEntity
  8
0
  0
POLYLINE
  5
151
100
AcDbEntity
  8
0
  6
CONTINUOUS
 62
         7
100
AcDb2dPolyline
 66
         1
 10
0.0
 20
0.0
 30
0.0
 70
       128
  0
VERTEX
  5
152
100
AcDbEntity
  8
0
100
AcDbVertex
100
AcDb2dVertex
 10
13.8608101105
 20
1.9948474066
 30
0.0
  0
VERTEX
  5
153
100
AcDbEntity
  8
0
100
AcDbVertex
100
AcDb2dVertex
 10
13.8588594839
 20
2.017143955
 30
0.0
  0
VERTEX
  5
154
100
AcDbEntity
  8
0
100
AcDbVertex
100
AcDb2dVertex
 10
13.8578879711
 20
2.0282491824
 30
0.0
  0
SEQEND
  5
155
100
AcDbEntity
  8
0
  0
LINE
  5
156
100
AcDbEntity
  8
0
  6
CONTINUOUS
 62
         7
100
AcDbLine
 10
15.1253630313
 20
1.6352311375
 30
0.0
 11
15.110929696
 21
1.6337722237
 31
0.0
  0
LINE
  5
157
100
AcDbEntity
  8
0
  6
CONTINUOUS
 62
         7
100
AcDbLine
 10
15.1108017222
 20
1.6337722239
 30
0.0
 11
15.110929696
 21
1.6337722237
 31
0.0
  0
POLYLINE
  5
158
100
AcDbEntity
  8
0
  6
CONTINUOUS
 62
         7
100
AcDb2dPolyline
 66
         1
 10
0.0
 20
0.0
 30
0.0
 70
       128
  0
VERTEX
  5
159
100
AcDbEntity
  8
0
100
AcDbVertex
100
AcDb2dVertex
 10
13.8924008088
 20
1.6337656427
 30
0.0
  0
VERTEX
  5
15A
100
AcDbEntity
  8
0
100
AcDbVertex
100
AcDb2dVertex
 10
13.892780479
 20
1.633765709
 30
0.0
  0
VERTEX
  5
15B
100
AcDbEntity
  8
0
100
AcDbVertex
100
AcDb2dVertex
 10
13.8941861459
 20
1.6337658416
 30
0.0
  0
VERTEX
  5
15C
100
AcDbEntity
  8
0
100
AcDbVertex
100
AcDb2dVertex
 10
13.8964596473
 20
1.6337659742
 30
0.0
  0
VERTEX
  5
15D
100
AcDbEntity
  8
0
100
AcDbVertex
100
AcDb2dVertex
 10
13.8996084037
 20
1.6337661067
 30
0.0
  0
VERTEX
  5
15E
100
AcDbEntity
  8
0
100
AcDbVertex
100
AcDb2dVertex
 10
13.9036399744
 20
1.6337662391
 30
0.0
  0
VERTEX
  5
15F
100
AcDbEntity
  8
0
100
AcDbVertex
100
AcDb2dVertex
 10
13.908562047
 20
1.6337663715
 30
0.0
  0
VERTEX
  5
160
100
AcDbEntity
  8
0
100
AcDbVertex
100
AcDb2dVertex
 10
13.9143824255
 20
1.6337665038
 30
0.0
  0
VERTEX
  5
161
100
AcDbEntity
  8
0
100
AcDbVertex
100
AcDb2dVertex
 10
13.9211090182
 20
1.633766636
 30
0.0
  0
VERTEX
  5
162
100
AcDbEntity
  8
0
100
AcDbVertex
100
AcDb2dVertex
 10
13.9287498239
 20
1.633766768
 30
0.0
  0
VERTEX
  5
163
100
AcDbEntity
  8
0
100
AcDbVertex
100
AcDb2dVertex
 10
13.9373129181
 20
1.6337668999
 30
0.0
  0
VERTEX
  5
164
100
AcDbEntity
  8
0
100
AcDbVertex
100
AcDb2dVertex
 10
13.9468064381
 20
1.6337670317
 30
0.0
  0
VERTEX
  5
165
100
AcDbEntity
  8
0
100
AcDbVertex
100
AcDb2dVertex
 10
13.9572385664
 20
1.6337671632
 30
0.0
  0
VERTEX
  5
166
100
AcDbEntity
  8
0
100
AcDbVertex
100
AcDb2dVertex
 10
13.968617514
 20
1.6337672946
 30
0.0
  0
VERTEX
  5
167
100
AcDbEntity
  8
0
100
AcDbVertex
100
AcDb2dVertex
 10
13.9809515024
 20
1.6337674258
 30
0.0
  0
VERTEX
  5
168
100
AcDbEntity
  8
0
100
AcDbVertex
100
AcDb2dVertex
 10
13.9874790913
 20
1.6337674913
 30
0.0
  0
VERTEX
  5
169
100
AcDbEntity
  8
0
100
AcDbVertex
100
AcDb2dVertex
 10
14.0012608874
 20
1.633767622
 30
0.0
  0
VERTEX
  5
16A
100
AcDbEntity
  8
0
100
AcDbVertex
100
AcDb2dVertex
 10
14.0160101269
 20
1.6337677526
 30
0.0
  0
VERTEX
  5
16B
100
AcDbEntity
  8
0
100
AcDbVertex
100
AcDb2dVertex
 10
14.0237438147
 20
1.6337678177
 30
0.0
  0
VERTEX
  5
16C
100
AcDbEntity
  8
0
100
AcDbVertex
100
AcDb2dVertex
 10
14.0399219023
 20
1.6337679478
 30
0.0
  0
VERTEX
  5
16D
100
AcDbEntity
  8
0
100
AcDbVertex
100
AcDb2dVertex
 10
14.0570366697
 20
1.6337680776
 30
0.0
  0
VERTEX
  5
16E
100
AcDbEntity
  8
0
100
AcDbVertex
100
AcDb2dVertex
 10
14.0750754167
 20
1.6337682071
 30
0.0
  0
VERTEX
  5
16F
100
AcDbEntity
  8
0
100
AcDbVertex
100
AcDb2dVertex
 10
14.094025477
 20
1.6337683363
 30
0.0
  0
VERTEX
  5
170
100
AcDbEntity
  8
0
100
AcDbVertex
100
AcDb2dVertex
 10
14.1138742371
 20
1.6337684651
 30
0.0
  0
VERTEX
  5
171
100
AcDbEntity
  8
0
100
AcDbVertex
100
AcDb2dVertex
 10
14.1346091547
 20
1.6337685936
 30
0.0
  0
VERTEX
  5
172
100
AcDbEntity
  8
0
100
AcDbVertex
100
AcDb2dVertex
 10
14.1562177748
 20
1.6337687217
 30
0.0
  0
VERTEX
  5
173
100
AcDbEntity
  8
0
100
AcDbVertex
100
AcDb2dVertex
 10
14.1786877455
 20
1.6337688494
 30
0.0
  0
VERTEX
  5
174
100
AcDbEntity
  8
0
100
AcDbVertex
100
AcDb2dVertex
 10
14.2020068318
 20
1.6337689768
 30
0.0
  0
VERTEX
  5
175
100
AcDbEntity
  8
0
100
AcDbVertex
100
AcDb2dVertex
 10
14.2261629285
 20
1.6337691038
 30
0.0
  0
VERTEX
  5
176
100
AcDbEntity
  8
0
100
AcDbVertex
100
AcDb2dVertex
 10
14.2511440727
 20
1.6337692303
 30
0.0
  0
VERTEX
  5
177
100
AcDbEntity
  8
0
100
AcDbVertex
100
AcDb2dVertex
 10
14.2769384541
 20
1.6337693565
 30
0.0
  0
VERTEX
  5
178
100
AcDbEntity
  8
0
100
AcDbVertex
100
AcDb2dVertex
 10
14.3035344303
 20
1.6337694822
 30
0.0
  0
VERTEX
  5
179
100
AcDbEntity
  8
0
100
AcDbVertex
100
AcDb2dVertex
 10
14.3309220101
 20
1.6337696075
 30
0.0
  0
VERTEX
  5
17A
100
AcDbEntity
  8
0
100
AcDbVertex
100
AcDb2dVertex
 10
14.3449104519
 20
1.63376967
 30
0.0
  0
VERTEX
  5
17B
100
AcDbEntity
  8
0
100
AcDbVertex
100
AcDb2dVertex
 10
14.3590944616
 20
1.6337697324
 30
0.0
  0
VERTEX
  5
17C
100
AcDbEntity
  8
0
100
AcDbVertex
100
AcDb2dVertex
 10
14.3880466039
 20
1.6337698568
 30
0.0
  0
VERTEX
  5
17D
100
AcDbEntity
  8
0
100
AcDbVertex
100
AcDb2dVertex
 10
14.4177722094
 20
1.6337699808
 30
0.0
  0
VERTEX
  5
17E
100
AcDbEntity
  8
0
100
AcDbVertex
100
AcDb2dVertex
 10
14.448265388
 20
1.6337701043
 30
0.0
  0
VERTEX
  5
17F
100
AcDbEntity
  8
0
100
AcDbVertex
100
AcDb2dVertex
 10
14.4795202486
 20
1.6337702273
 30
0.0
  0
VERTEX
  5
180
100
AcDbEntity
  8
0
100
AcDbVertex
100
AcDb2dVertex
 10
14.5115309035
 20
1.6337703498
 30
0.0
  0
VERTEX
  5
181
100
AcDbEntity
  8
0
100
AcDbVertex
100
AcDb2dVertex
 10
14.5278176229
 20
1.6337704109
 30
0.0
  0
VERTEX
  5
182
100
AcDbEntity
  8
0
100
AcDbVertex
100
AcDb2dVertex
 10
14.5442910829
 20
1.6337704718
 30
0.0
  0
VERTEX
  5
183
100
AcDbEntity
  8
0
100
AcDbVertex
100
AcDb2dVertex
 10
14.577795688
 20
1.6337705933
 30
0.0
  0
VERTEX
  5
184
100
AcDbEntity
  8
0
100
AcDbVertex
100
AcDb2dVertex
 10
14.6120384835
 20
1.6337707144
 30
0.0
  0
VERTEX
  5
185
100
AcDbEntity
  8
0
100
AcDbVertex
100
AcDb2dVertex
 10
14.6470136324
 20
1.6337708348
 30
0.0
  0
VERTEX
  5
186
100
AcDbEntity
  8
0
100
AcDbVertex
100
AcDb2dVertex
 10
14.6827144502
 20
1.6337709548
 30
0.0
  0
VERTEX
  5
187
100
AcDbEntity
  8
0
100
AcDbVertex
100
AcDb2dVertex
 10
14.7191239499
 20
1.6337710742
 30
0.0
  0
VERTEX
  5
188
100
AcDbEntity
  8
0
100
AcDbVertex
100
AcDb2dVertex
 10
14.7562185486
 20
1.6337711931
 30
0.0
  0
VERTEX
  5
189
100
AcDbEntity
  8
0
100
AcDbVertex
100
AcDb2dVertex
 10
14.7939747991
 20
1.6337713114
 30
0.0
  0
VERTEX
  5
18A
100
AcDbEntity
  8
0
100
AcDbVertex
100
AcDb2dVertex
 10
14.8323695246
 20
1.6337714293
 30
0.0
  0
VERTEX
  5
18B
100
AcDbEntity
  8
0
100
AcDbVertex
100
AcDb2dVertex
 10
14.871379832
 20
1.6337715466
 30
0.0
  0
VERTEX
  5
18C
100
AcDbEntity
  8
0
100
AcDbVertex
100
AcDb2dVertex
 10
14.9109831227
 20
1.6337716634
 30
0.0
  0
VERTEX
  5
18D
100
AcDbEntity
  8
0
100
AcDbVertex
100
AcDb2dVertex
 10
14.951157099
 20
1.6337717798
 30
0.0
  0
VERTEX
  5
18E
100
AcDbEntity
  8
0
100
AcDbVertex
100
AcDb2dVertex
 10
14.9918797684
 20
1.6337718956
 30
0.0
  0
VERTEX
  5
18F
100
AcDbEntity
  8
0
100
AcDbVertex
100
AcDb2dVertex
 10
15.0331294456
 20
1.633772011
 30
0.0
  0
VERTEX
  5
190
100
AcDbEntity
  8
0
100
AcDbVertex
100
AcDb2dVertex
 10
15.0718199432
 20
1.6337721176
 30
0.0
  0
VERTEX
  5
191
100
AcDbEntity
  8
0
100
AcDbVertex
100
AcDb2dVertex
 10
15.110929696
 20
1.6337722237
 30
0.0
  0
SEQEND
  5
192
100
AcDbEntity
  8
0
  0
LINE
  5
193
100
AcDbEntity
  8
0
  6
CONTINUOUS
 62
         7
100
AcDbLine
 10
13.8924008088
 20
1.6337656427
 30
0.0
 11
13.8924008087
 21
1.633759397
 31
0.0
  0
LINE
  5
194
100
AcDbEntity
  8
0
  6
CONTINUOUS
 62
         7
100
AcDbLine
 10
13.8924008087
 20
1.633759397
 30
0.0
 11
13.875362619
 21
1.8285067963
 31
0.0
  0
LINE
  5
195
100
AcDbEntity
  8
0
  6
CONTINUOUS
 62
         7
100
AcDbLine
 10
13.875362619
 20
1.8285067963
 30
0.0
 11
13.8608101105
 21
1.9948474066
 31
0.0
  0
LINE
  5
196
100
AcDbEntity
  8
0
  6
CONTINUOUS
 62
         7
100
AcDbLine
 10
13.892472341
 20
1.6337656552
 30
0.0
 11
13.8924008087
 21
1.633759397
 31
0.0
  0
LINE
  5
197
100
AcDbEntity
  8
0
  6
CONTINUOUS
 62
         7
100
AcDbLine
 10
15.1399246296
 20
1.6337721264
 30
0.0
 11
15.1432726233
 21
1.6779854959
 31
0.0
  0
POLYLINE
  5
198
100
AcDbEntity
  8
0
  6
CONTINUOUS
 62
         7
100
AcDb2dPolyline
 66
         1
 10
0.0
 20
0.0
 30
0.0
 70
       128
  0
VERTEX
  5
199
100
AcDbEntity
  8
0
100
AcDbVertex
100
AcDb2dVertex
 10
16.3928378093
 20
2.028249135
 30
0.0
  0
VERTEX
  5
19A
100
AcDbEntity
  8
0
100
AcDbVertex
100
AcDb2dVertex
 10
16.3885853766
 20
2.0295853661
 30
0.0
  0
VERTEX
  5
19B
100
AcDbEntity
  8
0
100
AcDbVertex
100
AcDb2dVertex
 10
16.3884952768
 20
2.0295779686
 30
0.0
  0
SEQEND
  5
19C
100
AcDbEntity
  8
0
  0
POLYLINE
  5
19D
100
AcDbEntity
  8
0
  6
CONTINUOUS
 62
         7
100
AcDb2dPolyline
 66
         1
 10
0.0
 20
0.0
 30
0.0
 70
       128
  0
VERTEX
  5
19E
100
AcDbEntity
  8
0
100
AcDbVertex
100
AcDb2dVertex
 10
16.3864137108
 20
2.029407066
 30
0.0
  0
VERTEX
  5
19F
100
AcDbEntity
  8
0
100
AcDbVertex
100
AcDb2dVertex
 10
16.3781576557
 20
2.0287292201
 30
0.0
  0
VERTEX
  5
1A0
100
AcDbEntity
  8
0
100
AcDbVertex
100
AcDb2dVertex
 10
16.3614056772
 20
2.0256955042
 30
0.0
  0
VERTEX
  5
1A1
100
AcDbEntity
  8
0
100
AcDbVertex
100
AcDb2dVertex
 10
16.3435100757
 20
2.0216914874
 30
0.0
  0
SEQEND
  5
1A2
100
AcDbEntity
  8
0
  0
POLYLINE
  5
1A3
100
AcDbEntity
  8
0
  6
CONTINUOUS
 62
         7
100
AcDb2dPolyline
 66
         1
 10
0.0
 20
0.0
 30
0.0
 70
       128
  0
VERTEX
  5
1A4
100
AcDbEntity
  8
0
100
AcDbVertex
100
AcDb2dVertex
 10
15.616180434
 20
1.8172729741
 30
0.0
  0
VERTEX
  5
1A5
100
AcDbEntity
  8
0
100
AcDbVertex
100
AcDb2dVertex
 10
15.5714227519
 20
1.8041997092
 30
0.0
  0
VERTEX
  5
1A6
100
AcDbEntity
  8
0
100
AcDbVertex
100
AcDb2dVertex
 10
15.4707080087
 20
1.7747446339
 30
0.0
  0
VERTEX
  5
1A7
100
AcDbEntity
  8
0
100
AcDbVertex
100
AcDb2dVertex
 10
15.3654685218
 20
1.7438587944
 30
0.0
  0
VERTEX
  5
1A8
100
AcDbEntity
  8
0
100
AcDbVertex
100
AcDb2dVertex
 10
15.2561686177
 20
1.711589859
 30
0.0
  0
VERTEX
  5
1A9
100
AcDbEntity
  8
0
100
AcDbVertex
100
AcDb2dVertex
 10
15.1432726233
 20
1.6779854959
 30
0.0
  0
SEQEND
  5
1AA
100
AcDbEntity
  8
0
  0
LINE
  5
1AB
100
AcDbEntity
  8
0
  6
CONTINUOUS
 62
         7
100
AcDbLine
 10
16.3583249716
 20
1.6337655953
 30
0.0
 11
16.3928378093
 21
2.028249135
 31
0.0
  0
POLYLINE
  5
1AC
100
AcDbEntity
  8
0
  6
CONTINUOUS
 62
         7
100
AcDb2dPolyline
 66
         1
 10
0.0
 20
0.0
 30
0.0
 70
       128
  0
VERTEX
  5
1AD
100
AcDbEntity
  8
0
100
AcDbVertex
100
AcDb2dVertex
 10
15.1399246296
 20
1.6337721264
 30
0.0
  0
VERTEX
  5
1AE
100
AcDbEntity
  8
0
100
AcDbVertex
100
AcDb2dVertex
 10
15.2493053824
 20
1.6337718277
 30
0.0
  0
VERTEX
  5
1AF
100
AcDbEntity
  8
0
100
AcDbVertex
100
AcDb2dVertex
 10
15.3551269574
 20
1.6337715258
 30
0.0
  0
VERTEX
  5
1B0
100
AcDbEntity
  8
0
100
AcDbVertex
100
AcDb2dVertex
 10
15.4569678272
 20
1.6337712206
 30
0.0
  0
VERTEX
  5
1B1
100
AcDbEntity
  8
0
100
AcDbVertex
100
AcDb2dVertex
 10
15.5544064642
 20
1.6337709119
 30
0.0
  0
VERTEX
  5
1B2
100
AcDbEntity
  8
0
100
AcDbVertex
100
AcDb2dVertex
 10
15.6471033851
 20
1.6337705994
 30
0.0
  0
VERTEX
  5
1B3
100
AcDbEntity
  8
0
100
AcDbVertex
100
AcDb2dVertex
 10
15.7348060722
 20
1.6337702832
 30
0.0
  0
VERTEX
  5
1B4
100
AcDbEntity
  8
0
100
AcDbVertex
100
AcDb2dVertex
 10
15.8173725936
 20
1.6337699637
 30
0.0
  0
VERTEX
  5
1B5
100
AcDbEntity
  8
0
100
AcDbVertex
100
AcDb2dVertex
 10
15.8946610178
 20
1.633769641
 30
0.0
  0
VERTEX
  5
1B6
100
AcDbEntity
  8
0
100
AcDbVertex
100
AcDb2dVertex
 10
15.9666112654
 20
1.6337693152
 30
0.0
  0
VERTEX
  5
1B7
100
AcDbEntity
  8
0
100
AcDbVertex
100
AcDb2dVertex
 10
16.0330832859
 20
1.6337689864
 30
0.0
  0
VERTEX
  5
1B8
100
AcDbEntity
  8
0
100
AcDbVertex
100
AcDb2dVertex
 10
16.0938492297
 20
1.6337686549
 30
0.0
  0
VERTEX
  5
1B9
100
AcDbEntity
  8
0
100
AcDbVertex
100
AcDb2dVertex
 10
16.1486812475
 20
1.6337683209
 30
0.0
  0
VERTEX
  5
1BA
100
AcDbEntity
  8
0
100
AcDbVertex
100
AcDb2dVertex
 10
16.1968834981
 20
1.6337679879
 30
0.0
  0
VERTEX
  5
1BB
100
AcDbEntity
  8
0
100
AcDbVertex
100
AcDb2dVertex
 10
16.2388536463
 20
1.6337676527
 30
0.0
  0
VERTEX
  5
1BC
100
AcDbEntity
  8
0
100
AcDbVertex
100
AcDb2dVertex
 10
16.2744801215
 20
1.6337673157
 30
0.0
  0
VERTEX
  5
1BD
100
AcDbEntity
  8
0
100
AcDbVertex
100
AcDb2dVertex
 10
16.3036513532
 20
1.6337669773
 30
0.0
  0
VERTEX
  5
1BE
100
AcDbEntity
  8
0
100
AcDbVertex
100
AcDb2dVertex
 10
16.3267013029
 20
1.6337666329
 30
0.0
  0
VERTEX
  5
1BF
100
AcDbEntity
  8
0
100
AcDbVertex
100
AcDb2dVertex
 10
16.3434058086
 20
1.6337662875
 30
0.0
  0
VERTEX
  5
1C0
100
AcDbEntity
  8
0
100
AcDbVertex
100
AcDb2dVertex
 10
16.3539014912
 20
1.6337659415
 30
0.0
  0
VERTEX
  5
1C1
100
AcDbEntity
  8
0
100
AcDbVertex
100
AcDb2dVertex
 10
16.3583249716
 20
1.6337655953
 30
0.0
  0
SEQEND
  5
1C2
100
AcDbEntity
  8
0
  0
LINE
  5
1C3
100
AcDbEntity
  8
0
  6
CONTINUOUS
 62
         7
100
AcDbLine
 10
15.1399246296
 20
1.6337721264
 30
0.0
 11
15.1397966558
 21
1.6337721263
 31
0.0
  0
LINE
  5
1C4
100
AcDbEntity
  8
0
  6
CONTINUOUS
 62
         7
100
AcDbLine
 10
15.1253626938
 20
1.6352311034
 30
0.0
 11
15.1397966558
 21
1.6337721263
 31
0.0
  0
POLYLINE
  5
1C5
100
AcDbEntity
  8
0
  6
CONTINUOUS
 62
         7
100
AcDb2dPolyline
 66
         1
 10
0.0
 20
0.0
 30
0.0
 70
       128
  0
VERTEX
  5
1C6
100
AcDbEntity
  8
0
100
AcDbVertex
100
AcDb2dVertex
 10
16.3583249716
 20
1.6337655953
 30
0.0
  0
VERTEX
  5
1C7
100
AcDbEntity
  8
0
100
AcDbVertex
100
AcDb2dVertex
 10
16.3579453071
 20
1.6337656611
 30
0.0
  0
VERTEX
  5
1C8
100
AcDbEntity
  8
0
100
AcDbVertex
100
AcDb2dVertex
 10
16.3565396518
 20
1.6337657927
 30
0.0
  0
VERTEX
  5
1C9
100
AcDbEntity
  8
0
100
AcDbVertex
100
AcDb2dVertex
 10
16.3542661618
 20
1.6337659242
 30
0.0
  0
VERTEX
  5
1CA
100
AcDbEntity
  8
0
100
AcDbVertex
100
AcDb2dVertex
 10
16.351117417
 20
1.6337660557
 30
0.0
  0
VERTEX
  5
1CB
100
AcDbEntity
  8
0
100
AcDbVertex
100
AcDb2dVertex
 10
16.3470858578
 20
1.6337661872
 30
0.0
  0
VERTEX
  5
1CC
100
AcDbEntity
  8
0
100
AcDbVertex
100
AcDb2dVertex
 10
16.3421637967
 20
1.6337663185
 30
0.0
  0
VERTEX
  5
1CD
100
AcDbEntity
  8
0
100
AcDbVertex
100
AcDb2dVertex
 10
16.3363434296
 20
1.6337664498
 30
0.0
  0
VERTEX
  5
1CE
100
AcDbEntity
  8
0
100
AcDbVertex
100
AcDb2dVertex
 10
16.3296168484
 20
1.633766581
 30
0.0
  0
VERTEX
  5
1CF
100
AcDbEntity
  8
0
100
AcDbVertex
100
AcDb2dVertex
 10
16.3219760542
 20
1.633766712
 30
0.0
  0
VERTEX
  5
1D0
100
AcDbEntity
  8
0
100
AcDbVertex
100
AcDb2dVertex
 10
16.3134129714
 20
1.6337668429
 30
0.0
  0
VERTEX
  5
1D1
100
AcDbEntity
  8
0
100
AcDbVertex
100
AcDb2dVertex
 10
16.3039194629
 20
1.6337669737
 30
0.0
  0
VERTEX
  5
1D2
100
AcDbEntity
  8
0
100
AcDbVertex
100
AcDb2dVertex
 10
16.2934873461
 20
1.6337671042
 30
0.0
  0
VERTEX
  5
1D3
100
AcDbEntity
  8
0
100
AcDbVertex
100
AcDb2dVertex
 10
16.2821084098
 20
1.6337672346
 30
0.0
  0
VERTEX
  5
1D4
100
AcDbEntity
  8
0
100
AcDbVertex
100
AcDb2dVertex
 10
16.2697744328
 20
1.6337673648
 30
0.0
  0
VERTEX
  5
1D5
100
AcDbEntity
  8
0
100
AcDbVertex
100
AcDb2dVertex
 10
16.2632468495
 20
1.6337674298
 30
0.0
  0
VERTEX
  5
1D6
100
AcDbEntity
  8
0
100
AcDbVertex
100
AcDb2dVertex
 10
16.2494650648
 20
1.6337675596
 30
0.0
  0
VERTEX
  5
1D7
100
AcDbEntity
  8
0
100
AcDbVertex
100
AcDb2dVertex
 10
16.2347158366
 20
1.6337676891
 30
0.0
  0
VERTEX
  5
1D8
100
AcDbEntity
  8
0
100
AcDbVertex
100
AcDb2dVertex
 10
16.2269821545
 20
1.6337677538
 30
0.0
  0
VERTEX
  5
1D9
100
AcDbEntity
  8
0
100
AcDbVertex
100
AcDb2dVertex
 10
16.2108040782
 20
1.6337678829
 30
0.0
  0
VERTEX
  5
1DA
100
AcDbEntity
  8
0
100
AcDbVertex
100
AcDb2dVertex
 10
16.1936893221
 20
1.6337680117
 30
0.0
  0
VERTEX
  5
1DB
100
AcDbEntity
  8
0
100
AcDbVertex
100
AcDb2dVertex
 10
16.1756505863
 20
1.6337681402
 30
0.0
  0
VERTEX
  5
1DC
100
AcDbEntity
  8
0
100
AcDbVertex
100
AcDb2dVertex
 10
16.1567005373
 20
1.6337682684
 30
0.0
  0
VERTEX
  5
1DD
100
AcDbEntity
  8
0
100
AcDbVertex
100
AcDb2dVertex
 10
16.1368517884
 20
1.6337683962
 30
0.0
  0
VERTEX
  5
1DE
100
AcDbEntity
  8
0
100
AcDbVertex
100
AcDb2dVertex
 10
16.116116882
 20
1.6337685237
 30
0.0
  0
VERTEX
  5
1DF
100
AcDbEntity
  8
0
100
AcDbVertex
100
AcDb2dVertex
 10
16.0945082729
 20
1.6337686509
 30
0.0
  0
VERTEX
  5
1E0
100
AcDbEntity
  8
0
100
AcDbVertex
100
AcDb2dVertex
 10
16.0720383133
 20
1.6337687776
 30
0.0
  0
VERTEX
  5
1E1
100
AcDbEntity
  8
0
100
AcDbVertex
100
AcDb2dVertex
 10
16.0487192381
 20
1.633768904
 30
0.0
  0
VERTEX
  5
1E2
100
AcDbEntity
  8
0
100
AcDbVertex
100
AcDb2dVertex
 10
16.0245631524
 20
1.63376903
 30
0.0
  0
VERTEX
  5
1E3
100
AcDbEntity
  8
0
100
AcDbVertex
100
AcDb2dVertex
 10
15.9995820192
 20
1.6337691556
 30
0.0
  0
VERTEX
  5
1E4
100
AcDbEntity
  8
0
100
AcDbVertex
100
AcDb2dVertex
 10
15.9737876488
 20
1.6337692808
 30
0.0
  0
VERTEX
  5
1E5
100
AcDbEntity
  8
0
100
AcDbVertex
100
AcDb2dVertex
 10
15.9471916835
 20
1.6337694056
 30
0.0
  0
VERTEX
  5
1E6
100
AcDbEntity
  8
0
100
AcDbVertex
100
AcDb2dVertex
 10
15.9198041146
 20
1.6337695299
 30
0.0
  0
VERTEX
  5
1E7
100
AcDbEntity
  8
0
100
AcDbVertex
100
AcDb2dVertex
 10
15.9058156782
 20
1.633769592
 30
0.0
  0
VERTEX
  5
1E8
100
AcDbEntity
  8
0
100
AcDbVertex
100
AcDb2dVertex
 10
15.8916316739
 20
1.6337696539
 30
0.0
  0
VERTEX
  5
1E9
100
AcDbEntity
  8
0
100
AcDbVertex
100
AcDb2dVertex
 10
15.8626795424
 20
1.6337697773
 30
0.0
  0
VERTEX
  5
1EA
100
AcDbEntity
  8
0
100
AcDbVertex
100
AcDb2dVertex
 10
15.8329539477
 20
1.6337699004
 30
0.0
  0
VERTEX
  5
1EB
100
AcDbEntity
  8
0
100
AcDbVertex
100
AcDb2dVertex
 10
15.8024607798
 20
1.6337700229
 30
0.0
  0
VERTEX
  5
1EC
100
AcDbEntity
  8
0
100
AcDbVertex
100
AcDb2dVertex
 10
15.7712059299
 20
1.633770145
 30
0.0
  0
VERTEX
  5
1ED
100
AcDbEntity
  8
0
100
AcDbVertex
100
AcDb2dVertex
 10
15.7391952856
 20
1.6337702666
 30
0.0
  0
VERTEX
  5
1EE
100
AcDbEntity
  8
0
100
AcDbVertex
100
AcDb2dVertex
 10
15.7229085715
 20
1.6337703272
 30
0.0
  0
VERTEX
  5
1EF
100
AcDbEntity
  8
0
100
AcDbVertex
100
AcDb2dVertex
 10
15.7064351168
 20
1.6337703877
 30
0.0
  0
VERTEX
  5
1F0
100
AcDbEntity
  8
0
100
AcDbVertex
100
AcDb2dVertex
 10
15.6729305222
 20
1.6337705083
 30
0.0
  0
VERTEX
  5
1F1
100
AcDbEntity
  8
0
100
AcDbVertex
100
AcDb2dVertex
 10
15.6386877373
 20
1.6337706284
 30
0.0
  0
VERTEX
  5
1F2
100
AcDbEntity
  8
0
100
AcDbVertex
100
AcDb2dVertex
 10
15.6037125988
 20
1.6337707479
 30
0.0
  0
VERTEX
  5
1F3
100
AcDbEntity
  8
0
100
AcDbVertex
100
AcDb2dVertex
 10
15.5680117915
 20
1.633770867
 30
0.0
  0
VERTEX
  5
1F4
100
AcDbEntity
  8
0
100
AcDbVertex
100
AcDb2dVertex
 10
15.5316023021
 20
1.6337709855
 30
0.0
  0
VERTEX
  5
1F5
100
AcDbEntity
  8
0
100
AcDbVertex
100
AcDb2dVertex
 10
15.4945077137
 20
1.6337711034
 30
0.0
  0
VERTEX
  5
1F6
100
AcDbEntity
  8
0
100
AcDbVertex
100
AcDb2dVertex
 10
15.4567514735
 20
1.6337712209
 30
0.0
  0
VERTEX
  5
1F7
100
AcDbEntity
  8
0
100
AcDbVertex
100
AcDb2dVertex
 10
15.4183567583
 20
1.6337713378
 30
0.0
  0
VERTEX
  5
1F8
100
AcDbEntity
  8
0
100
AcDbVertex
100
AcDb2dVertex
 10
15.379346461
 20
1.6337714543
 30
0.0
  0
VERTEX
  5
1F9
100
AcDbEntity
  8
0
100
AcDbVertex
100
AcDb2dVertex
 10
15.3397431804
 20
1.6337715702
 30
0.0
  0
VERTEX
  5
1FA
100
AcDbEntity
  8
0
100
AcDbVertex
100
AcDb2dVertex
 10
15.2995692143
 20
1.6337716857
 30
0.0
  0
VERTEX
  5
1FB
100
AcDbEntity
  8
0
100
AcDbVertex
100
AcDb2dVertex
 10
15.2588465549
 20
1.6337718007
 30
0.0
  0
VERTEX
  5
1FC
100
AcDbEntity
  8
0
100
AcDbVertex
100
AcDb2dVertex
 10
15.2175968878
 20
1.6337719152
 30
0.0
  0
VERTEX
  5
1FD
100
AcDbEntity
  8
0
100
AcDbVertex
100
AcDb2dVertex
 10
15.1789063994
 20
1.6337720209
 30
0.0
  0
VERTEX
  5
1FE
100
AcDbEntity
  8
0
100
AcDbVertex
100
AcDb2dVertex
 10
15.1397966558
 20
1.6337721263
 30
0.0
  0
SEQEND
  5
1FF
100
AcDbEntity
  8
0
  0
LINE
  5
200
100
AcDbEntity
  8
0
  6
CONTINUOUS
 62
         7
100
AcDbLine
 10
16.3582534404
 20
1.6337656077
 30
0.0
 11
16.3583244293
 21
1.633759397
 31
0.0
  0
LINE
  5
201
100
AcDbEntity
  8
0
  6
CONTINUOUS
 62
         7
100
AcDbLine
 10
16.3583249716
 20
1.6337655953
 30
0.0
 11
16.3583244293
 21
1.633759397
 31
0.0
  0
POLYLINE
  5
202
100
AcDbEntity
  8
0
  6
CONTINUOUS
 62
         7
100
AcDb2dPolyline
 66
         1
 10
0.0
 20
0.0
 30
0.0
 70
       128
  0
VERTEX
  5
203
100
AcDbEntity
  8
0
100
AcDbVertex
100
AcDb2dVertex
 10
15.1432727231
 20
1.6779855933
 30
0.0
  0
VERTEX
  5
204
100
AcDbEntity
  8
0
100
AcDbVertex
100
AcDb2dVertex
 10
15.2822251987
 20
1.7193013758
 30
0.0
  0
VERTEX
  5
205
100
AcDbEntity
  8
0
100
AcDbVertex
100
AcDb2dVertex
 10
15.4154959489
 20
1.758554811
 30
0.0
  0
VERTEX
  5
206
100
AcDbEntity
  8
0
100
AcDbVertex
100
AcDb2dVertex
 10
15.5010250113
 20
1.7836201007
 30
0.0
  0
VERTEX
  5
207
100
AcDbEntity
  8
0
100
AcDbVertex
100
AcDb2dVertex
 10
15.5834062533
 20
1.8077065055
 30
0.0
  0
VERTEX
  5
208
100
AcDbEntity
  8
0
100
AcDbVertex
100
AcDb2dVertex
 10
15.6624060715
 20
1.8307750942
 30
0.0
  0
VERTEX
  5
209
100
AcDbEntity
  8
0
100
AcDbVertex
100
AcDb2dVertex
 10
15.7376761897
 20
1.8527301932
 30
0.0
  0
VERTEX
  5
20A
100
AcDbEntity
  8
0
100
AcDbVertex
100
AcDb2dVertex
 10
15.809383264
 20
1.873593774
 30
0.0
  0
VERTEX
  5
20B
100
AcDbEntity
  8
0
100
AcDbVertex
100
AcDb2dVertex
 10
15.8774287462
 20
1.8933173088
 30
0.0
  0
VERTEX
  5
20C
100
AcDbEntity
  8
0
100
AcDbVertex
100
AcDb2dVertex
 10
15.9420334371
 20
1.9119448358
 30
0.0
  0
VERTEX
  5
20D
100
AcDbEntity
  8
0
100
AcDbVertex
100
AcDb2dVertex
 10
15.970488823
 20
1.9200943962
 30
0.0
  0
SEQEND
  5
20E
100
AcDbEntity
  8
0
  0
LINE
  5
20F
100
AcDbEntity
  8
0
  6
CONTINUOUS
 62
         7
100
AcDbLine
 10
15.1432727231
 20
1.6779855933
 30
0.0
 11
15.1432726233
 21
1.6779865028
 31
0.0
  0
LINE
  5
210
100
AcDbEntity
  8
0
  6
CONTINUOUS
 62
         7
100
AcDbLine
 10
15.1432726233
 20
1.699157659
 30
0.0
 11
15.1432726233
 21
1.6779865028
 31
0.0
  0
POLYLINE
  5
211
100
AcDbEntity
  8
0
  6
CONTINUOUS
 62
         7
100
AcDb2dPolyline
 66
         1
 10
0.0
 20
0.0
 30
0.0
 70
       128
  0
VERTEX
  5
212
100
AcDbEntity
  8
0
100
AcDbVertex
100
AcDb2dVertex
 10
16.3928378093
 20
2.0490837997
 30
0.0
  0
VERTEX
  5
213
100
AcDbEntity
  8
0
100
AcDbVertex
100
AcDb2dVertex
 10
16.3896818538
 20
2.0503552357
 30
0.0
  0
VERTEX
  5
214
100
AcDbEntity
  8
0
100
AcDbVertex
100
AcDb2dVertex
 10
16.3821921082
 20
2.050081821
 30
0.0
  0
VERTEX
  5
215
100
AcDbEntity
  8
0
100
AcDbVertex
100
AcDb2dVertex
 10
16.3702753156
 20
2.0482683632
 30
0.0
  0
VERTEX
  5
216
100
AcDbEntity
  8
0
100
AcDbVertex
100
AcDb2dVertex
 10
16.3537204297
 20
2.0448956278
 30
0.0
  0
VERTEX
  5
217
100
AcDbEntity
  8
0
100
AcDbVertex
100
AcDb2dVertex
 10
16.3324988631
 20
2.0399850819
 30
0.0
  0
VERTEX
  5
218
100
AcDbEntity
  8
0
100
AcDbVertex
100
AcDb2dVertex
 10
16.3065356482
 20
2.0335560216
 30
0.0
  0
VERTEX
  5
219
100
AcDbEntity
  8
0
100
AcDbVertex
100
AcDb2dVertex
 10
16.2759347868
 20
2.0256774863
 30
0.0
  0
VERTEX
  5
21A
100
AcDbEntity
  8
0
100
AcDbVertex
100
AcDb2dVertex
 10
16.240611083
 20
2.0163427253
 30
0.0
  0
VERTEX
  5
21B
100
AcDbEntity
  8
0
100
AcDbVertex
100
AcDb2dVertex
 10
16.2007028498
 20
2.005583233
 30
0.0
  0
VERTEX
  5
21C
100
AcDbEntity
  8
0
100
AcDbVertex
100
AcDb2dVertex
 10
16.1560508934
 20
1.9933451767
 30
0.0
  0
VERTEX
  5
21D
100
AcDbEntity
  8
0
100
AcDbVertex
100
AcDb2dVertex
 10
16.1070375295
 20
1.9797242788
 30
0.0
  0
VERTEX
  5
21E
100
AcDbEntity
  8
0
100
AcDbVertex
100
AcDb2dVertex
 10
16.053816706
 20
1.9647597709
 30
0.0
  0
VERTEX
  5
21F
100
AcDbEntity
  8
0
100
AcDbVertex
100
AcDb2dVertex
 10
15.9861670207
 20
1.9455273129
 30
0.0
  0
VERTEX
  5
220
100
AcDbEntity
  8
0
100
AcDbVertex
100
AcDb2dVertex
 10
15.9130336288
 20
1.9245408411
 30
0.0
  0
VERTEX
  5
221
100
AcDbEntity
  8
0
100
AcDbVertex
100
AcDb2dVertex
 10
15.8345917261
 20
1.9018767342
 30
0.0
  0
VERTEX
  5
222
100
AcDbEntity
  8
0
100
AcDbVertex
100
AcDb2dVertex
 10
15.7510165081
 20
1.8776113708
 30
0.0
  0
VERTEX
  5
223
100
AcDbEntity
  8
0
100
AcDbVertex
100
AcDb2dVertex
 10
15.6624831708
 20
1.8518211295
 30
0.0
  0
VERTEX
  5
224
100
AcDbEntity
  8
0
100
AcDbVertex
100
AcDb2dVertex
 10
15.5674140995
 20
1.8240948106
 30
0.0
  0
VERTEX
  5
225
100
AcDbEntity
  8
0
100
AcDbVertex
100
AcDb2dVertex
 10
15.4675212954
 20
1.7949133918
 30
0.0
  0
VERTEX
  5
226
100
AcDbEntity
  8
0
100
AcDbVertex
100
AcDb2dVertex
 10
15.3632419723
 20
1.7643287854
 30
0.0
  0
VERTEX
  5
227
100
AcDbEntity
  8
0
100
AcDbVertex
100
AcDb2dVertex
 10
15.2550133437
 20
1.7323929037
 30
0.0
  0
VERTEX
  5
228
100
AcDbEntity
  8
0
100
AcDbVertex
100
AcDb2dVertex
 10
15.1432726233
 20
1.699157659
 30
0.0
  0
SEQEND
  5
229
100
AcDbEntity
  8
0
  0
LINE
  5
22A
100
AcDbEntity
  8
0
  6
CONTINUOUS
 62
         7
100
AcDbLine
 10
16.3928378093
 20
2.0490837997
 30
0.0
 11
16.3928378093
 21
2.0282491824
 31
0.0
  0
LINE
  5
22B
100
AcDbEntity
  8
0
  6
CONTINUOUS
 62
         7
100
AcDbLine
 10
15.1432726233
 20
1.699157659
 30
0.0
 11
15.1074537288
 21
1.6991576888
 31
0.0
  0
POLYLINE
  5
22C
100
AcDbEntity
  8
0
  6
CONTINUOUS
 62
         7
100
AcDb2dPolyline
 66
         1
 10
0.0
 20
0.0
 30
0.0
 70
       128
  0
VERTEX
  5
22D
100
AcDbEntity
  8
0
100
AcDbVertex
100
AcDb2dVertex
 10
15.1074537288
 20
1.6991576888
 30
0.0
  0
VERTEX
  5
22E
100
AcDbEntity
  8
0
100
AcDbVertex
100
AcDb2dVertex
 10
14.968498249
 20
1.7404339697
 30
0.0
  0
VERTEX
  5
22F
100
AcDbEntity
  8
0
100
AcDbVertex
100
AcDb2dVertex
 10
14.8352250444
 20
1.7796498866
 30
0.0
  0
VERTEX
  5
230
100
AcDbEntity
  8
0
100
AcDbVertex
100
AcDb2dVertex
 10
14.7496946712
 20
1.8046912148
 30
0.0
  0
VERTEX
  5
231
100
AcDbEntity
  8
0
100
AcDbVertex
100
AcDb2dVertex
 10
14.6673123608
 20
1.8287545914
 30
0.0
  0
VERTEX
  5
232
100
AcDbEntity
  8
0
100
AcDbVertex
100
AcDb2dVertex
 10
14.5883117041
 20
1.8518011186
 30
0.0
  0
VERTEX
  5
233
100
AcDbEntity
  8
0
100
AcDbVertex
100
AcDb2dVertex
 10
14.5130409491
 20
1.8737352149
 30
0.0
  0
VERTEX
  5
234
100
AcDbEntity
  8
0
100
AcDbVertex
100
AcDb2dVertex
 10
14.4413334406
 20
1.8945788228
 30
0.0
  0
VERTEX
  5
235
100
AcDbEntity
  8
0
100
AcDbVertex
100
AcDb2dVertex
 10
14.3732877119
 20
1.9142834586
 30
0.0
  0
VERTEX
  5
236
100
AcDbEntity
  8
0
100
AcDbVertex
100
AcDb2dVertex
 10
14.30868298
 20
1.9328931072
 30
0.0
  0
VERTEX
  5
237
100
AcDbEntity
  8
0
100
AcDbVertex
100
AcDb2dVertex
 10
14.2479349717
 20
1.9502745164
 30
0.0
  0
VERTEX
  5
238
100
AcDbEntity
  8
0
100
AcDbVertex
100
AcDb2dVertex
 10
14.1911627124
 20
1.9663832446
 30
0.0
  0
VERTEX
  5
239
100
AcDbEntity
  8
0
100
AcDbVertex
100
AcDb2dVertex
 10
14.1297991612
 20
1.98359925
 30
0.0
  0
VERTEX
  5
23A
100
AcDbEntity
  8
0
100
AcDbVertex
100
AcDb2dVertex
 10
14.0742330054
 20
1.998966123
 30
0.0
  0
VERTEX
  5
23B
100
AcDbEntity
  8
0
100
AcDbVertex
100
AcDb2dVertex
 10
14.0247135192
 20
2.0124265284
 30
0.0
  0
VERTEX
  5
23C
100
AcDbEntity
  8
0
100
AcDbVertex
100
AcDb2dVertex
 10
13.9814899767
 20
2.0239231315
 30
0.0
  0
VERTEX
  5
23D
100
AcDbEntity
  8
0
100
AcDbVertex
100
AcDb2dVertex
 10
13.944811652
 20
2.0333985972
 30
0.0
  0
VERTEX
  5
23E
100
AcDbEntity
  8
0
100
AcDbVertex
100
AcDb2dVertex
 10
13.9141099004
 20
2.0409651034
 30
0.0
  0
VERTEX
  5
23F
100
AcDbEntity
  8
0
100
AcDbVertex
100
AcDb2dVertex
 10
13.8902145433
 20
2.0463376476
 30
0.0
  0
VERTEX
  5
240
100
AcDbEntity
  8
0
100
AcDbVertex
100
AcDb2dVertex
 10
13.872977694
 20
2.0494954589
 30
0.0
  0
VERTEX
  5
241
100
AcDbEntity
  8
0
100
AcDbVertex
100
AcDb2dVertex
 10
13.8622514656
 20
2.0504177665
 30
0.0
  0
VERTEX
  5
242
100
AcDbEntity
  8
0
100
AcDbVertex
100
AcDb2dVertex
 10
13.8578879711
 20
2.0490837997
 30
0.0
  0
SEQEND
  5
243
100
AcDbEntity
  8
0
  0
LINE
  5
244
100
AcDbEntity
  8
0
  6
CONTINUOUS
 62
         7
100
AcDbLine
 10
15.1432726233
 20
1.6779865028
 30
0.0
 11
15.1074537288
 21
1.6779855933
 31
0.0
  0
LINE
  5
245
100
AcDbEntity
  8
0
  6
CONTINUOUS
 62
         7
100
AcDbLine
 10
15.1074537288
 20
1.6991576888
 30
0.0
 11
15.1074537288
 21
1.6779855933
 31
0.0
  0
LINE
  5
246
100
AcDbEntity
  8
0
  6
CONTINUOUS
 62
         7
100
AcDbLine
 10
15.1074537288
 20
1.6779855933
 30
0.0
 11
15.1432727231
 21
1.6779855933
 31
0.0
  0
LINE
  5
247
100
AcDbEntity
  8
0
  6
CONTINUOUS
 62
         7
100
AcDbLine
 10
13.8608101105
 20
1.9948474066
 30
0.0
 11
13.8591340381
 21
2.0140056599
 31
0.0
  0
POLYLINE
  5
248
100
AcDbEntity
  8
0
  6
CONTINUOUS
 62
         7
100
AcDb2dPolyline
 66
         1
 10
0.0
 20
0.0
 30
0.0
 70
       128
  0
VERTEX
  5
249
100
AcDbEntity
  8
0
100
AcDbVertex
100
AcDb2dVertex
 10
13.8644154641
 20
2.0293986307
 30
0.0
  0
VERTEX
  5
24A
100
AcDbEntity
  8
0
100
AcDbVertex
100
AcDb2dVertex
 10
13.8685337268
 20
2.0292481504
 30
0.0
  0
VERTEX
  5
24B
100
AcDbEntity
  8
0
100
AcDbVertex
100
AcDb2dVertex
 10
13.8804505471
 20
2.0274329708
 30
0.0
  0
VERTEX
  5
24C
100
AcDbEntity
  8
0
100
AcDbVertex
100
AcDb2dVertex
 10
13.8970054811
 20
2.0240570287
 30
0.0
  0
VERTEX
  5
24D
100
AcDbEntity
  8
0
100
AcDbVertex
100
AcDb2dVertex
 10
13.9182270977
 20
2.0191418132
 30
0.0
  0
VERTEX
  5
24E
100
AcDbEntity
  8
0
100
AcDbVertex
100
AcDb2dVertex
 10
13.9441903548
 20
2.0127066397
 30
0.0
  0
VERTEX
  5
24F
100
AcDbEntity
  8
0
100
AcDbVertex
100
AcDb2dVertex
 10
13.9747912012
 20
2.0048206243
 30
0.0
  0
VERTEX
  5
250
100
AcDbEntity
  8
0
100
AcDbVertex
100
AcDb2dVertex
 10
14.0101148492
 20
1.9954770032
 30
0.0
  0
VERTEX
  5
251
100
AcDbEntity
  8
0
100
AcDbVertex
100
AcDb2dVertex
 10
14.0500229705
 20
1.9847073019
 30
0.0
  0
VERTEX
  5
252
100
AcDbEntity
  8
0
100
AcDbVertex
100
AcDb2dVertex
 10
14.0946747892
 20
1.9724576247
 30
0.0
  0
VERTEX
  5
253
100
AcDbEntity
  8
0
100
AcDbVertex
100
AcDb2dVertex
 10
14.1436879398
 20
1.9588237945
 30
0.0
  0
VERTEX
  5
254
100
AcDbEntity
  8
0
100
AcDbVertex
100
AcDb2dVertex
 10
14.1969084565
 20
1.943845081
 30
0.0
  0
VERTEX
  5
255
100
AcDbEntity
  8
0
100
AcDbVertex
100
AcDb2dVertex
 10
14.2645586092
 20
1.9245940918
 30
0.0
  0
VERTEX
  5
256
100
AcDbEntity
  8
0
100
AcDbVertex
100
AcDb2dVertex
 10
14.337692447
 20
1.9035873766
 30
0.0
  0
VERTEX
  5
257
100
AcDbEntity
  8
0
100
AcDbVertex
100
AcDb2dVertex
 10
14.4161347401
 20
1.8809013883
 30
0.0
  0
VERTEX
  5
258
100
AcDbEntity
  8
0
100
AcDbVertex
100
AcDb2dVertex
 10
14.4997102585
 20
1.8566125798
 30
0.0
  0
VERTEX
  5
259
100
AcDbEntity
  8
0
100
AcDbVertex
100
AcDb2dVertex
 10
14.5882437722
 20
1.830797404
 30
0.0
  0
VERTEX
  5
25A
100
AcDbEntity
  8
0
100
AcDbVertex
100
AcDb2dVertex
 10
14.683313083
 20
1.8030441976
 30
0.0
  0
VERTEX
  5
25B
100
AcDbEntity
  8
0
100
AcDbVertex
100
AcDb2dVertex
 10
14.783205974
 20
1.7738344534
 30
0.0
  0
VERTEX
  5
25C
100
AcDbEntity
  8
0
100
AcDbVertex
100
AcDb2dVertex
 10
14.8874852053
 20
1.7432201314
 30
0.0
  0
VERTEX
  5
25D
100
AcDbEntity
  8
0
100
AcDbVertex
100
AcDb2dVertex
 10
14.9957135369
 20
1.7112531914
 30
0.0
  0
VERTEX
  5
25E
100
AcDbEntity
  8
0
100
AcDbVertex
100
AcDb2dVertex
 10
15.1074537288
 20
1.6779855933
 30
0.0
  0
SEQEND
  5
25F
100
AcDbEntity
  8
0
  0
LINE
  5
260
100
AcDbEntity
  8
0
  6
CONTINUOUS
 62
         7
100
AcDbLine
 10
16.3928378093
 20
2.0282491824
 30
0.0
 11
16.3899155336
 21
1.9948474066
 31
0.0
  0
LINE
  5
261
100
AcDbEntity
  8
0
  6
CONTINUOUS
 62
         7
100
AcDbLine
 10
13.8578879711
 20
2.0490837997
 30
0.0
 11
13.8578879711
 21
2.0282491824
 31
0.0
  0
LINE
  5
262
100
AcDbEntity
  8
0
  6
CONTINUOUS
 62
         7
100
AcDbLine
 10
16.375362619
 20
1.8285067963
 30
0.0
 11
16.3899155336
 21
1.9948474066
 31
0.0
  0
LINE
  5
263
100
AcDbEntity
  8
0
  6
CONTINUOUS
 62
         7
100
AcDbLine
 10
13.8608101105
 20
1.9948474066
 30
0.0
 11
13.875362619
 21
1.8285067963
 31
0.0
  0
LINE
  5
264
100
AcDbEntity
  8
0
  6
CONTINUOUS
 62
         7
100
AcDbLine
 10
14.666202514
 20
1.8285067963
 30
0.0
 11
14.6670292857
 21
1.8285067963
 31
0.0
  0
LINE
  5
265
100
AcDbEntity
  8
0
  6
CONTINUOUS
 62
         7
100
AcDbLine
 10
15.1261583622
 20
1.6779855933
 30
0.0
 11
15.1332918632
 21
1.6611801181
 31
0.0
  0
LINE
  5
266
100
AcDbEntity
  8
0
  6
CONTINUOUS
 62
         7
100
AcDbLine
 10
15.1253619606
 20
1.2681779481
 30
0.0
 11
15.1253637693
 21
1.2842681987
 31
0.0
  0
POLYLINE
  5
267
100
AcDbEntity
  8
0
  6
CONTINUOUS
 62
         7
100
AcDb2dPolyline
 66
         1
 10
0.0
 20
0.0
 30
0.0
 70
       128
  0
VERTEX
  5
268
100
AcDbEntity
  8
0
100
AcDbVertex
100
AcDb2dVertex
 10
15.1253640965
 20
1.2871795737
 30
0.0
  0
VERTEX
  5
269
100
AcDbEntity
  8
0
100
AcDbVertex
100
AcDb2dVertex
 10
15.1253647974
 20
1.2934148378
 30
0.0
  0
VERTEX
  5
26A
100
AcDbEntity
  8
0
100
AcDbVertex
100
AcDb2dVertex
 10
15.1253622064
 20
1.3264222891
 30
0.0
  0
SEQEND
  5
26B
100
AcDbEntity
  8
0
  0
POLYLINE
  5
26C
100
AcDbEntity
  8
0
  6
CONTINUOUS
 62
         7
100
AcDb2dPolyline
 66
         1
 10
0.0
 20
0.0
 30
0.0
 70
       128
  0
VERTEX
  5
26D
100
AcDbEntity
  8
0
100
AcDbVertex
100
AcDb2dVertex
 10
15.1253651283
 20
1.3964606107
 30
0.0
  0
VERTEX
  5
26E
100
AcDbEntity
  8
0
100
AcDbVertex
100
AcDb2dVertex
 10
15.1253741498
 20
1.4247280732
 30
0.0
  0
VERTEX
  5
26F
100
AcDbEntity
  8
0
100
AcDbVertex
100
AcDb2dVertex
 10
15.1253622936
 20
1.4782396564
 30
0.0
  0
SEQEND
  5
270
100
AcDbEntity
  8
0
  0
POLYLINE
  5
271
100
AcDbEntity
  8
0
  6
CONTINUOUS
 62
         7
100
AcDb2dPolyline
 66
         1
 10
0.0
 20
0.0
 30
0.0
 70
       128
  0
VERTEX
  5
272
100
AcDbEntity
  8
0
100
AcDbVertex
100
AcDb2dVertex
 10
15.1253724326
 20
1.5729909247
 30
0.0
  0
VERTEX
  5
273
100
AcDbEntity
  8
0
100
AcDbVertex
100
AcDb2dVertex
 10
15.1254112244
 20
1.5852890837
 30
0.0
  0
VERTEX
  5
274
100
AcDbEntity
  8
0
100
AcDbVertex
100
AcDb2dVertex
 10
15.1254866057
 20
1.6022957521
 30
0.0
  0
VERTEX
  5
275
100
AcDbEntity
  8
0
100
AcDbVertex
100
AcDb2dVertex
 10
15.1255503521
 20
1.619524447
 30
0.0
  0
VERTEX
  5
276
100
AcDbEntity
  8
0
100
AcDbVertex
100
AcDb2dVertex
 10
15.1255757171
 20
1.6352095711
 30
0.0
  0
SEQEND
  5
277
100
AcDbEntity
  8
0
  0
POLYLINE
  5
278
100
AcDbEntity
  8
0
  6
CONTINUOUS
 62
         7
100
AcDb2dPolyline
 66
         1
 10
0.0
 20
0.0
 30
0.0
 70
       128
  0
VERTEX
  5
279
100
AcDbEntity
  8
0
100
AcDbVertex
100
AcDb2dVertex
 10
15.1335028509
 20
1.1444621197
 30
0.0
  0
VERTEX
  5
27A
100
AcDbEntity
  8
0
100
AcDbVertex
100
AcDb2dVertex
 10
15.1335809521
 20
1.144522723
 30
0.0
  0
VERTEX
  5
27B
100
AcDbEntity
  8
0
100
AcDbVertex
100
AcDb2dVertex
 10
15.1336385454
 20
1.1446245366
 30
0.0
  0
VERTEX
  5
27C
100
AcDbEntity
  8
0
100
AcDbVertex
100
AcDb2dVertex
 10
15.1336828682
 20
1.1447784866
 30
0.0
  0
VERTEX
  5
27D
100
AcDbEntity
  8
0
100
AcDbVertex
100
AcDb2dVertex
 10
15.133710965
 20
1.1449697566
 30
0.0
  0
VERTEX
  5
27E
100
AcDbEntity
  8
0
100
AcDbVertex
100
AcDb2dVertex
 10
15.1337269825
 20
1.1452066887
 30
0.0
  0
VERTEX
  5
27F
100
AcDbEntity
  8
0
100
AcDbVertex
100
AcDb2dVertex
 10
15.133732188
 20
1.1454940634
 30
0.0
  0
VERTEX
  5
280
100
AcDbEntity
  8
0
100
AcDbVertex
100
AcDb2dVertex
 10
15.1337278749
 20
1.1458213645
 30
0.0
  0
VERTEX
  5
281
100
AcDbEntity
  8
0
100
AcDbVertex
100
AcDb2dVertex
 10
15.1336782133
 20
1.1469886413
 30
0.0
  0
VERTEX
  5
282
100
AcDbEntity
  8
0
100
AcDbVertex
100
AcDb2dVertex
 10
15.1335975775
 20
1.1485267163
 30
0.0
  0
VERTEX
  5
283
100
AcDbEntity
  8
0
100
AcDbVertex
100
AcDb2dVertex
 10
15.1335036399
 20
1.1508537371
 30
0.0
  0
VERTEX
  5
284
100
AcDbEntity
  8
0
100
AcDbVertex
100
AcDb2dVertex
 10
15.1334502965
 20
1.1537478852
 30
0.0
  0
VERTEX
  5
285
100
AcDbEntity
  8
0
100
AcDbVertex
100
AcDb2dVertex
 10
15.1334363044
 20
1.15723106
 30
0.0
  0
VERTEX
  5
286
100
AcDbEntity
  8
0
100
AcDbVertex
100
AcDb2dVertex
 10
15.1334664141
 20
1.1648019115
 30
0.0
  0
VERTEX
  5
287
100
AcDbEntity
  8
0
100
AcDbVertex
100
AcDb2dVertex
 10
15.1335010232
 20
1.1741742432
 30
0.0
  0
VERTEX
  5
288
100
AcDbEntity
  8
0
100
AcDbVertex
100
AcDb2dVertex
 10
15.1335015335
 20
1.1852953838
 30
0.0
  0
VERTEX
  5
289
100
AcDbEntity
  8
0
100
AcDbVertex
100
AcDb2dVertex
 10
15.1334732134
 20
1.2093869825
 30
0.0
  0
VERTEX
  5
28A
100
AcDbEntity
  8
0
100
AcDbVertex
100
AcDb2dVertex
 10
15.1334624294
 20
1.2390893251
 30
0.0
  0
VERTEX
  5
28B
100
AcDbEntity
  8
0
100
AcDbVertex
100
AcDb2dVertex
 10
15.1334519883
 20
1.2743626099
 30
0.0
  0
VERTEX
  5
28C
100
AcDbEntity
  8
0
100
AcDbVertex
100
AcDb2dVertex
 10
15.1334330883
 20
1.3131909608
 30
0.0
  0
VERTEX
  5
28D
100
AcDbEntity
  8
0
100
AcDbVertex
100
AcDb2dVertex
 10
15.1334120333
 20
1.3570384702
 30
0.0
  0
VERTEX
  5
28E
100
AcDbEntity
  8
0
100
AcDbVertex
100
AcDb2dVertex
 10
15.1334076726
 20
1.4058022792
 30
0.0
  0
VERTEX
  5
28F
100
AcDbEntity
  8
0
100
AcDbVertex
100
AcDb2dVertex
 10
15.1333737075
 20
1.4597396562
 30
0.0
  0
VERTEX
  5
290
100
AcDbEntity
  8
0
100
AcDbVertex
100
AcDb2dVertex
 10
15.1333307132
 20
1.4850201099
 30
0.0
  0
VERTEX
  5
291
100
AcDbEntity
  8
0
100
AcDbVertex
100
AcDb2dVertex
 10
15.133295954
 20
1.5112406643
 30
0.0
  0
VERTEX
  5
292
100
AcDbEntity
  8
0
100
AcDbVertex
100
AcDb2dVertex
 10
15.133302081
 20
1.5384334362
 30
0.0
  0
VERTEX
  5
293
100
AcDbEntity
  8
0
100
AcDbVertex
100
AcDb2dVertex
 10
15.1333791297
 20
1.5665178738
 30
0.0
  0
VERTEX
  5
294
100
AcDbEntity
  8
0
100
AcDbVertex
100
AcDb2dVertex
 10
15.1334475733
 20
1.5835408865
 30
0.0
  0
VERTEX
  5
295
100
AcDbEntity
  8
0
100
AcDbVertex
100
AcDb2dVertex
 10
15.133504289
 20
1.6007861444
 30
0.0
  0
VERTEX
  5
296
100
AcDbEntity
  8
0
100
AcDbVertex
100
AcDb2dVertex
 10
15.1335254059
 20
1.6182735923
 30
0.0
  0
VERTEX
  5
297
100
AcDbEntity
  8
0
100
AcDbVertex
100
AcDb2dVertex
 10
15.1335171598
 20
1.6261497434
 30
0.0
  0
VERTEX
  5
298
100
AcDbEntity
  8
0
100
AcDbVertex
100
AcDb2dVertex
 10
15.1334958719
 20
1.6338752531
 30
0.0
  0
VERTEX
  5
299
100
AcDbEntity
  8
0
100
AcDbVertex
100
AcDb2dVertex
 10
15.1334933571
 20
1.6344092604
 30
0.0
  0
SEQEND
  5
29A
100
AcDbEntity
  8
0
  0
LINE
  5
29B
100
AcDbEntity
  8
0
  6
CONTINUOUS
 62
         7
100
AcDbLine
 10
15.125362619
 20
1.1636393042
 30
0.0
 11
15.1335028509
 21
1.1444621197
 31
0.0
  0
LINE
  5
29C
100
AcDbEntity
  8
0
  6
CONTINUOUS
 62
         7
100
AcDbLine
 10
16.286233352
 20
1.6337671873
 30
0.0
 11
15.1335028509
 21
1.1444621197
 31
0.0
  0
LINE
  5
29D
100
AcDbEntity
  8
0
  6
CONTINUOUS
 62
         7
100
AcDbLine
 10
8.5253583647
 20
4.8660651096
 30
0.0
 11
6.0746323213
 21
4.8660651096
 31
0.0
  0
LINE
  5
29E
100
AcDbEntity
  8
0
  6
CONTINUOUS
 62
         7
100
AcDbLine
 10
5.9496323213
 20
4.8660651096
 30
0.0
 11
5.0537989879
 21
4.8660651096
 31
0.0
  0
LINE
  5
29F
100
AcDbEntity
  8
0
  6
CONTINUOUS
 62
         7
100
AcDbLine
 10
7.8594605184
 20
6.1306122487
 30
0.0
 11
7.8606323184
 21
6.1306180242
 31
0.0
  0
POLYLINE
  5
2A0
100
AcDbEntity
  8
0
  6
CONTINUOUS
 62
         7
100
AcDb2dPolyline
 66
         1
 10
0.0
 20
0.0
 30
0.0
 70
       128
  0
VERTEX
  5
2A1
100
AcDbEntity
  8
0
100
AcDbVertex
100
AcDb2dVertex
 10
7.8606323184
 20
6.1306180242
 30
0.0
  0
VERTEX
  5
2A2
100
AcDbEntity
  8
0
100
AcDbVertex
100
AcDb2dVertex
 10
8.108149546
 20
6.131715394
 30
0.0
  0
VERTEX
  5
2A3
100
AcDbEntity
  8
0
100
AcDbVertex
100
AcDb2dVertex
 10
8.3558250676
 20
6.1325683408
 30
0.0
  0
VERTEX
  5
2A4
100
AcDbEntity
  8
0
100
AcDbVertex
100
AcDb2dVertex
 10
8.6036907882
 20
6.1331767841
 30
0.0
  0
VERTEX
  5
2A5
100
AcDbEntity
  8
0
100
AcDbVertex
100
AcDb2dVertex
 10
8.8516514252
 20
6.1335402999
 30
0.0
  0
SEQEND
  5
2A6
100
AcDbEntity
  8
0
  0
LINE
  5
2A7
100
AcDbEntity
  8
0
  6
CONTINUOUS
 62
         7
100
AcDbLine
 10
13.0090140499
 20
4.8839751139
 30
0.0
 11
13.0090138852
 21
4.8481562194
 31
0.0
  0
POLYLINE
  5
2A8
100
AcDbEntity
  8
0
  6
CONTINUOUS
 62
         7
100
AcDb2dPolyline
 66
         1
 10
0.0
 20
0.0
 30
0.0
 70
       128
  0
VERTEX
  5
2A9
100
AcDbEntity
  8
0
100
AcDbVertex
100
AcDb2dVertex
 10
13.0090138852
 20
4.8481562194
 30
0.0
  0
VERTEX
  5
2AA
100
AcDbEntity
  8
0
100
AcDbVertex
100
AcDb2dVertex
 10
12.773648981
 20
4.7092007397
 30
0.0
  0
VERTEX
  5
2AB
100
AcDbEntity
  8
0
100
AcDbVertex
100
AcDb2dVertex
 10
12.5346812788
 20
4.575927535
 30
0.0
  0
VERTEX
  5
2AC
100
AcDbEntity
  8
0
100
AcDbVertex
100
AcDb2dVertex
 10
12.3727422604
 20
4.4903971618
 30
0.0
  0
VERTEX
  5
2AD
100
AcDbEntity
  8
0
100
AcDbVertex
100
AcDb2dVertex
 10
12.2090125936
 20
4.4080148514
 30
0.0
  0
VERTEX
  5
2AE
100
AcDbEntity
  8
0
100
AcDbVertex
100
AcDb2dVertex
 10
12.0435052035
 20
4.3290141947
 30
0.0
  0
VERTEX
  5
2AF
100
AcDbEntity
  8
0
100
AcDbVertex
100
AcDb2dVertex
 10
11.8766735151
 20
4.2537434397
 30
0.0
  0
VERTEX
  5
2B0
100
AcDbEntity
  8
0
100
AcDbVertex
100
AcDb2dVertex
 10
11.7081165141
 20
4.1820359312
 30
0.0
  0
VERTEX
  5
2B1
100
AcDbEntity
  8
0
100
AcDbVertex
100
AcDb2dVertex
 10
11.5379384897
 20
4.1139902025
 30
0.0
  0
VERTEX
  5
2B2
100
AcDbEntity
  8
0
100
AcDbVertex
100
AcDb2dVertex
 10
11.3653664507
 20
4.0493854706
 30
0.0
  0
VERTEX
  5
2B3
100
AcDbEntity
  8
0
100
AcDbVertex
100
AcDb2dVertex
 10
11.1912459875
 20
3.9886374623
 30
0.0
  0
VERTEX
  5
2B4
100
AcDbEntity
  8
0
100
AcDbVertex
100
AcDb2dVertex
 10
11.0156959544
 20
3.931865203
 30
0.0
  0
VERTEX
  5
2B5
100
AcDbEntity
  8
0
100
AcDbVertex
100
AcDb2dVertex
 10
10.8080507711
 20
3.8705016518
 30
0.0
  0
VERTEX
  5
2B6
100
AcDbEntity
  8
0
100
AcDbVertex
100
AcDb2dVertex
 10
10.5984741257
 20
3.814935496
 30
0.0
  0
VERTEX
  5
2B7
100
AcDbEntity
  8
0
100
AcDbVertex
100
AcDb2dVertex
 10
10.3872192882
 20
3.7654160098
 30
0.0
  0
VERTEX
  5
2B8
100
AcDbEntity
  8
0
100
AcDbVertex
100
AcDb2dVertex
 10
10.1745395287
 20
3.7221924673
 30
0.0
  0
VERTEX
  5
2B9
100
AcDbEntity
  8
0
100
AcDbVertex
100
AcDb2dVertex
 10
9.9606881171
 20
3.6855141426
 30
0.0
  0
VERTEX
  5
2BA
100
AcDbEntity
  8
0
100
AcDbVertex
100
AcDb2dVertex
 10
9.7403376205
 20
3.654812391
 30
0.0
  0
VERTEX
  5
2BB
100
AcDbEntity
  8
0
100
AcDbVertex
100
AcDb2dVertex
 10
9.5189179636
 20
3.630917034
 30
0.0
  0
VERTEX
  5
2BC
100
AcDbEntity
  8
0
100
AcDbVertex
100
AcDb2dVertex
 10
9.296769886
 20
3.6136801846
 30
0.0
  0
VERTEX
  5
2BD
100
AcDbEntity
  8
0
100
AcDbVertex
100
AcDb2dVertex
 10
9.0742341276
 20
3.6029539562
 30
0.0
  0
VERTEX
  5
2BE
100
AcDbEntity
  8
0
100
AcDbVertex
100
AcDb2dVertex
 10
8.8516514281
 20
3.5985904617
 30
0.0
  0
SEQEND
  5
2BF
100
AcDbEntity
  8
0
  0
POLYLINE
  5
2C0
100
AcDbEntity
  8
0
  6
CONTINUOUS
 62
         7
100
AcDb2dPolyline
 66
         1
 10
0.0
 20
0.0
 30
0.0
 70
       128
  0
VERTEX
  5
2C1
100
AcDbEntity
  8
0
100
AcDbVertex
100
AcDb2dVertex
 10
8.8516514281
 20
3.5985904617
 30
0.0
  0
VERTEX
  5
2C2
100
AcDbEntity
  8
0
100
AcDbVertex
100
AcDb2dVertex
 10
8.6038497419
 20
3.5989536319
 30
0.0
  0
VERTEX
  5
2C3
100
AcDbEntity
  8
0
100
AcDbVertex
100
AcDb2dVertex
 10
8.3560793149
 20
3.5995616029
 30
0.0
  0
VERTEX
  5
2C4
100
AcDbEntity
  8
0
100
AcDbVertex
100
AcDb2dVertex
 10
8.108308377
 20
3.6004146399
 30
0.0
  0
VERTEX
  5
2C5
100
AcDbEntity
  8
0
100
AcDbVertex
100
AcDb2dVertex
 10
7.8606323213
 20
3.6015126011
 30
0.0
  0
SEQEND
  5
2C6
100
AcDbEntity
  8
0
  0
LINE
  5
2C7
100
AcDbEntity
  8
0
  6
CONTINUOUS
 62
         7
100
AcDbLine
 10
7.8606323213
 20
3.6015126011
 30
0.0
 11
7.8594605184
 21
3.6015183765
 31
0.0
  0
POLYLINE
  5
2C8
100
AcDbEntity
  8
0
  6
CONTINUOUS
 62
         7
100
AcDb2dPolyline
 66
         1
 10
0.0
 20
0.0
 30
0.0
 70
       128
  0
VERTEX
  5
2C9
100
AcDbEntity
  8
0
100
AcDbVertex
100
AcDb2dVertex
 10
7.8594605184
 20
5.5327317762
 30
0.0
  0
VERTEX
  5
2CA
100
AcDbEntity
  8
0
100
AcDbVertex
100
AcDb2dVertex
 10
7.9363908132
 20
5.528264901
 30
0.0
  0
VERTEX
  5
2CB
100
AcDbEntity
  8
0
100
AcDbVertex
100
AcDb2dVertex
 10
8.0099977287
 20
5.515410386
 30
0.0
  0
VERTEX
  5
2CC
100
AcDbEntity
  8
0
100
AcDbVertex
100
AcDb2dVertex
 10
8.0819541924
 20
5.4943498413
 30
0.0
  0
VERTEX
  5
2CD
100
AcDbEntity
  8
0
100
AcDbVertex
100
AcDb2dVertex
 10
8.1509065293
 20
5.4654796557
 30
0.0
  0
VERTEX
  5
2CE
100
AcDbEntity
  8
0
100
AcDbVertex
100
AcDb2dVertex
 10
8.216161919
 20
5.4289603699
 30
0.0
  0
VERTEX
  5
2CF
100
AcDbEntity
  8
0
100
AcDbVertex
100
AcDb2dVertex
 10
8.277142166
 20
5.3852469879
 30
0.0
  0
VERTEX
  5
2D0
100
AcDbEntity
  8
0
100
AcDbVertex
100
AcDb2dVertex
 10
8.33269982
 20
5.3351608883
 30
0.0
  0
VERTEX
  5
2D1
100
AcDbEntity
  8
0
100
AcDbVertex
100
AcDb2dVertex
 10
8.3822439254
 20
5.2790680169
 30
0.0
  0
VERTEX
  5
2D2
100
AcDbEntity
  8
0
100
AcDbVertex
100
AcDb2dVertex
 10
8.4253642759
 20
5.217599484
 30
0.0
  0
VERTEX
  5
2D3
100
AcDbEntity
  8
0
100
AcDbVertex
100
AcDb2dVertex
 10
8.4612477105
 20
5.1519106065
 30
0.0
  0
VERTEX
  5
2D4
100
AcDbEntity
  8
0
100
AcDbVertex
100
AcDb2dVertex
 10
8.4894465329
 20
5.0825702218
 30
0.0
  0
VERTEX
  5
2D5
100
AcDbEntity
  8
0
100
AcDbVertex
100
AcDb2dVertex
 10
8.5097982686
 20
5.0102845669
 30
0.0
  0
VERTEX
  5
2D6
100
AcDbEntity
  8
0
100
AcDbVertex
100
AcDb2dVertex
 10
8.5219181629
 20
4.9364138479
 30
0.0
  0
VERTEX
  5
2D7
100
AcDbEntity
  8
0
100
AcDbVertex
100
AcDb2dVertex
 10
8.5255730941
 20
4.8616741053
 30
0.0
  0
VERTEX
  5
2D8
100
AcDbEntity
  8
0
100
AcDbVertex
100
AcDb2dVertex
 10
8.5208522345
 20
4.7867549553
 30
0.0
  0
VERTEX
  5
2D9
100
AcDbEntity
  8
0
100
AcDbVertex
100
AcDb2dVertex
 10
8.507844842
 20
4.713065802
 30
0.0
  0
VERTEX
  5
2DA
100
AcDbEntity
  8
0
100
AcDbVertex
100
AcDb2dVertex
 10
8.4865648282
 20
4.6413430651
 30
0.0
  0
VERTEX
  5
2DB
100
AcDbEntity
  8
0
100
AcDbVertex
100
AcDb2dVertex
 10
8.4573281253
 20
4.5722229203
 30
0.0
  0
VERTEX
  5
2DC
100
AcDbEntity
  8
0
100
AcDbVertex
100
AcDb2dVertex
 10
8.4206863239
 20
4.5070038547
 30
0.0
  0
VERTEX
  5
2DD
100
AcDbEntity
  8
0
100
AcDbVertex
100
AcDb2dVertex
 10
8.3768734604
 20
4.4463456866
 30
0.0
  0
VERTEX
  5
2DE
100
AcDbEntity
  8
0
100
AcDbVertex
100
AcDb2dVertex
 10
8.3264150766
 20
4.3907785981
 30
0.0
  0
VERTEX
  5
2DF
100
AcDbEntity
  8
0
100
AcDbVertex
100
AcDb2dVertex
 10
8.2702615211
 20
4.3413463828
 30
0.0
  0
VERTEX
  5
2E0
100
AcDbEntity
  8
0
100
AcDbVertex
100
AcDb2dVertex
 10
8.2088516717
 20
4.2985953133
 30
0.0
  0
VERTEX
  5
2E1
100
AcDbEntity
  8
0
100
AcDbVertex
100
AcDb2dVertex
 10
8.1428571773
 20
4.2628538398
 30
0.0
  0
VERTEX
  5
2E2
100
AcDbEntity
  8
0
100
AcDbVertex
100
AcDb2dVertex
 10
8.0735209503
 20
4.2347946455
 30
0.0
  0
VERTEX
  5
2E3
100
AcDbEntity
  8
0
100
AcDbVertex
100
AcDb2dVertex
 10
8.003647641
 20
4.2152705566
 30
0.0
  0
VERTEX
  5
2E4
100
AcDbEntity
  8
0
100
AcDbVertex
100
AcDb2dVertex
 10
7.9318698707
 20
4.2034015883
 30
0.0
  0
VERTEX
  5
2E5
100
AcDbEntity
  8
0
100
AcDbVertex
100
AcDb2dVertex
 10
7.8594605184
 20
4.1993984429
 30
0.0
  0
SEQEND
  5
2E6
100
AcDbEntity
  8
0
  0
POLYLINE
  5
2E7
100
AcDbEntity
  8
0
  6
CONTINUOUS
 62
         7
100
AcDb2dPolyline
 66
         1
 10
0.0
 20
0.0
 30
0.0
 70
       128
  0
VERTEX
  5
2E8
100
AcDbEntity
  8
0
100
AcDbVertex
100
AcDb2dVertex
 10
8.8516514252
 20
6.1335402999
 30
0.0
  0
VERTEX
  5
2E9
100
AcDbEntity
  8
0
100
AcDbVertex
100
AcDb2dVertex
 10
9.0359886486
 20
6.1303843444
 30
0.0
  0
VERTEX
  5
2EA
100
AcDbEntity
  8
0
100
AcDbVertex
100
AcDb2dVertex
 10
9.2202328624
 20
6.1228945989
 30
0.0
  0
VERTEX
  5
2EB
100
AcDbEntity
  8
0
100
AcDbVertex
100
AcDb2dVertex
 10
9.404204266
 20
6.1109778062
 30
0.0
  0
VERTEX
  5
2EC
100
AcDbEntity
  8
0
100
AcDbVertex
100
AcDb2dVertex
 10
9.5889141698
 20
6.0944229203
 30
0.0
  0
VERTEX
  5
2ED
100
AcDbEntity
  8
0
100
AcDbVertex
100
AcDb2dVertex
 10
9.7731439874
 20
6.0732013537
 30
0.0
  0
VERTEX
  5
2EE
100
AcDbEntity
  8
0
100
AcDbVertex
100
AcDb2dVertex
 10
9.9566834261
 20
6.0472381388
 30
0.0
  0
VERTEX
  5
2EF
100
AcDbEntity
  8
0
100
AcDbVertex
100
AcDb2dVertex
 10
10.1383502543
 20
6.0166372774
 30
0.0
  0
VERTEX
  5
2F0
100
AcDbEntity
  8
0
100
AcDbVertex
100
AcDb2dVertex
 10
10.3191246741
 20
5.9813135736
 30
0.0
  0
VERTEX
  5
2F1
100
AcDbEntity
  8
0
100
AcDbVertex
100
AcDb2dVertex
 10
10.498830241
 20
5.9414053404
 30
0.0
  0
VERTEX
  5
2F2
100
AcDbEntity
  8
0
100
AcDbVertex
100
AcDb2dVertex
 10
10.6785129518
 20
5.896753384
 30
0.0
  0
VERTEX
  5
2F3
100
AcDbEntity
  8
0
100
AcDbVertex
100
AcDb2dVertex
 10
10.8569875276
 20
5.8477400201
 30
0.0
  0
VERTEX
  5
2F4
100
AcDbEntity
  8
0
100
AcDbVertex
100
AcDb2dVertex
 10
11.0341154538
 20
5.7945191966
 30
0.0
  0
VERTEX
  5
2F5
100
AcDbEntity
  8
0
100
AcDbVertex
100
AcDb2dVertex
 10
11.240183976
 20
5.7268695113
 30
0.0
  0
VERTEX
  5
2F6
100
AcDbEntity
  8
0
100
AcDbVertex
100
AcDb2dVertex
 10
11.4443248565
 20
5.6537361195
 30
0.0
  0
VERTEX
  5
2F7
100
AcDbEntity
  8
0
100
AcDbVertex
100
AcDb2dVertex
 10
11.6463556686
 20
5.5752942167
 30
0.0
  0
VERTEX
  5
2F8
100
AcDbEntity
  8
0
100
AcDbVertex
100
AcDb2dVertex
 10
11.8460939855
 20
5.4917189988
 30
0.0
  0
VERTEX
  5
2F9
100
AcDbEntity
  8
0
100
AcDbVertex
100
AcDb2dVertex
 10
12.0433573805
 20
5.4031856614
 30
0.0
  0
VERTEX
  5
2FA
100
AcDbEntity
  8
0
100
AcDbVertex
100
AcDb2dVertex
 10
12.2414092993
 20
5.3081165901
 30
0.0
  0
VERTEX
  5
2FB
100
AcDbEntity
  8
0
100
AcDbVertex
100
AcDb2dVertex
 10
12.436954477
 20
5.2082237861
 30
0.0
  0
VERTEX
  5
2FC
100
AcDbEntity
  8
0
100
AcDbVertex
100
AcDb2dVertex
 10
12.6300393622
 20
5.1039444629
 30
0.0
  0
VERTEX
  5
2FD
100
AcDbEntity
  8
0
100
AcDbVertex
100
AcDb2dVertex
 10
12.8207104037
 20
4.9957158343
 30
0.0
  0
VERTEX
  5
2FE
100
AcDbEntity
  8
0
100
AcDbVertex
100
AcDb2dVertex
 10
13.0090140499
 20
4.8839751139
 30
0.0
  0
SEQEND
  5
2FF
100
AcDbEntity
  8
0
  0
LINE
  5
300
100
AcDbEntity
  8
0
  6
CONTINUOUS
 62
         7
100
AcDbLine
 10
7.8594605184
 20
5.5327317762
 30
0.0
 11
4.9067938517
 21
5.5327317762
 31
0.0
  0
LINE
  5
301
100
AcDbEntity
  8
0
  6
CONTINUOUS
 62
         7
100
AcDbLine
 10
4.9067938517
 20
6.1160593341
 30
0.0
 11
4.9067938517
 21
5.5327317762
 31
0.0
  0
LINE
  5
302
100
AcDbEntity
  8
0
  6
CONTINUOUS
 62
         7
100
AcDbLine
 10
7.8594605184
 20
6.1306122487
 30
0.0
 11
4.9067938517
 21
6.1160593341
 31
0.0
  0
LINE
  5
303
100
AcDbEntity
  8
0
  6
CONTINUOUS
 62
         7
100
AcDbLine
 10
4.9067938517
 20
4.1993984429
 30
0.0
 11
4.9067938517
 21
3.616070885
 31
0.0
  0
LINE
  5
304
100
AcDbEntity
  8
0
  6
CONTINUOUS
 62
         7
100
AcDbLine
 10
4.9067938517
 20
4.1993984429
 30
0.0
 11
7.8594605184
 21
4.1993984429
 31
0.0
  0
LINE
  5
305
100
AcDbEntity
  8
0
  6
CONTINUOUS
 62
         7
100
AcDbLine
 10
4.9067938517
 20
3.616070885
 30
0.0
 11
7.8594605184
 21
3.6015183765
 31
0.0
  0
LINE
  5
306
100
AcDbEntity
  8
0
  6
CONTINUOUS
 62
         7
100
AcDbLine
 10
5.0537989879
 20
5.4077317763
 30
0.0
 11
5.0537989879
 21
4.324398443
 31
0.0
  0
LINE
  5
307
100
AcDbEntity
  8
0
  6
CONTINUOUS
 62
         7
100
AcDbLine
 10
5.0537989879
 20
4.324398443
 30
0.0
 11
5.9496323213
 21
4.324398443
 31
0.0
  0
LINE
  5
308
100
AcDbEntity
  8
0
  6
CONTINUOUS
 62
         7
100
AcDbLine
 10
5.9496323213
 20
4.324398443
 30
0.0
 11
5.9496323213
 21
5.4077317763
 31
0.0
  0
LINE
  5
309
100
AcDbEntity
  8
0
  6
CONTINUOUS
 62
         7
100
AcDbLine
 10
5.9496323213
 20
5.4077317763
 30
0.0
 11
5.0537989879
 21
5.4077317763
 31
0.0
  0
LINE
  5
30A
100
AcDbEntity
  8
0
  6
CONTINUOUS
 62
         7
100
AcDbLine
 10
4.9079656546
 20
5.5327317763
 30
0.0
 11
4.9079656546
 21
4.199398443
 31
0.0
  0
LINE
  5
30B
100
AcDbEntity
  8
0
  6
CONTINUOUS
 62
         7
100
AcDbLine
 10
5.0121323213
 20
5.449398443
 30
0.0
 11
5.0121323213
 21
4.2827317763
 31
0.0
  0
LINE
  5
30C
100
AcDbEntity
  8
0
  6
CONTINUOUS
 62
         7
100
AcDbLine
 10
5.0121323213
 20
4.2827317763
 30
0.0
 11
5.9912989879
 21
4.2827317763
 31
0.0
  0
LINE
  5
30D
100
AcDbEntity
  8
0
  6
CONTINUOUS
 62
         7
100
AcDbLine
 10
5.9912989879
 20
4.2827317763
 30
0.0
 11
5.9912989879
 21
5.449398443
 31
0.0
  0
LINE
  5
30E
100
AcDbEntity
  8
0
  6
CONTINUOUS
 62
         7
100
AcDbLine
 10
5.9912989879
 20
5.449398443
 30
0.0
 11
5.0121323213
 21
5.449398443
 31
0.0
  0
LINE
  5
30F
100
AcDbEntity
  8
0
  6
CONTINUOUS
 62
         7
100
AcDbLine
 10
6.0746323213
 20
4.199398443
 30
0.0
 11
6.0746323213
 21
5.5327317763
 31
0.0
  0
LINE
  5
310
100
AcDbEntity
  8
0
  6
CONTINUOUS
 62
         7
100
AcDbLine
 10
8.5253583647
 20
4.8660651096
 30
0.0
 11
6.0746323213
 21
4.8660651096
 31
0.0
  0
LINE
  5
311
100
AcDbEntity
  8
0
  6
CONTINUOUS
 62
         7
100
AcDbLine
 10
5.9496323213
 20
4.8660651096
 30
0.0
 11
5.0537989879
 21
4.8660651096
 31
0.0
  0
LINE
  5
312
100
AcDbEntity
  8
0
  6
CONTINUOUS
 62
         7
100
AcDbLine
 10
6.0746323213
 20
5.2827317763
 30
0.0
 11
8.3790079049
 21
5.2827317763
 31
0.0
  0
LINE
  5
313
100
AcDbEntity
  8
0
  6
CONTINUOUS
 62
         7
100
AcDbLine
 10
8.3422057646
 20
5.324398443
 30
0.0
 11
6.0746323213
 21
5.324398443
 31
0.0
  0
LINE
  5
314
100
AcDbEntity
  8
0
  6
CONTINUOUS
 62
         7
100
AcDbLine
 10
8.3418096203
 20
4.4077317763
 30
0.0
 11
6.0746323213
 21
4.4077317763
 31
0.0
  0
LINE
  5
315
100
AcDbEntity
  8
0
  6
CONTINUOUS
 62
         7
100
AcDbLine
 10
6.0746323213
 20
4.449398443
 30
0.0
 11
8.3790784396
 21
4.449398443
 31
0.0
  0
LINE
  5
316
100
AcDbEntity
  8
0
  6
PHANTOM
 62
         7
100
AcDbLine
 10
7.8594605184
 20
6.1306122487
 30
0.0
 11
7.8594605184
 21
5.5327317762
 31
0.0
  0
LINE
  5
317
100
AcDbEntity
  8
0
  6
PHANTOM
 62
         7
100
AcDbLine
 10
7.8594605184
 20
4.1993984429
 30
0.0
 11
7.8594605184
 21
3.6015183765
 31
0.0
  0
DIMENSION
  5
325
100
AcDbEntity
  8
0
 62
         7
100
AcDbDimension
  2
*D3
 10
4.4586757268
 20
3.616070885
 30
0.0
 11
4.4586757268
 21
4.8660651096
 31
0.0
 70
       160
  3
SLDDIMSTYLE1
100
AcDbAlignedDimension
 13
4.9067938517
 23
6.1160593341
 33
0.0
 14
4.9067938517
 24
3.616070885
 34
0.0
 50
-90.0
100
AcDbRotatedDimension
  0
DIMENSION
  5
332
100
AcDbEntity
  8
0
 62
         7
100
AcDbDimension
  2
*D4
 10
13.0090140499
 20
6.4445874414
 30
0.0
 11
8.9579039508
 21
6.4445874414
 31
0.0
 70
       160
  3
SLDDIMSTYLE0
100
AcDbAlignedDimension
 13
4.9067938517
 23
6.1160593341
 33
0.0
 14
13.0090140499
 24
4.8839751139
 34
0.0
 50
180.0
100
AcDbRotatedDimension
  0
LINE
  5
333
100
AcDbEntity
  8
0
  6
CONTINUOUS
 62
         7
100
AcDbLine
 10
2.9713713422
 20
6.5056166853
 30
0.0
 11
2.980568772
 21
6.6217040213
 31
0.0
  0
LINE
  5
334
100
AcDbEntity
  8
0
  6
CONTINUOUS
 62
         7
100
AcDbLine
 10
2.980568772
 20
6.6217040213
 30
0.0
 11
1.2423771447
 21
7.6251406891
 31
0.0
  0
LINE
  5
335
100
AcDbEntity
  8
0
  6
CONTINUOUS
 62
         7
100
AcDbLine
 10
2.1114729584
 20
6.5805309134
 30
0.0
 11
2.9713713422
 21
6.5056166853
 31
0.0
  0
LINE
  5
336
100
AcDbEntity
  8
0
  6
CONTINUOUS
 62
         7
100
AcDbLine
 10
1.2515745745
 20
7.4984342266
 30
0.0
 11
2.1114729584
 21
6.5805309134
 31
0.0
  0
LINE
  5
337
100
AcDbEntity
  8
0
  6
CONTINUOUS
 62
         7
100
AcDbLine
 10
1.2423771447
 20
7.6251406891
 30
0.0
 11
1.2515745745
 21
7.4984342266
 31
0.0
  0
LINE
  5
338
100
AcDbEntity
  8
0
  6
CONTINUOUS
 62
         7
100
AcDbLine
 10
2.6129295174
 20
7.3536335833
 30
0.0
 11
2.8457607348
 21
7.1050966051
 31
0.0
  0
LINE
  5
339
100
AcDbEntity
  8
0
  6
CONTINUOUS
 62
         7
100
AcDbLine
 10
2.6129295174
 20
7.3536335833
 30
0.0
 11
2.6129295174
 21
7.5524779249
 31
0.0
  0
LINE
  5
33A
100
AcDbEntity
  8
0
  6
CONTINUOUS
 62
         7
100
AcDbLine
 10
2.6129295174
 20
7.5524779249
 30
0.0
 11
2.5822882235
 21
7.5701667673
 31
0.0
  0
LINE
  5
33B
100
AcDbEntity
  8
0
  6
CONTINUOUS
 62
         7
100
AcDbLine
 10
2.5822882235
 20
7.5701667673
 30
0.0
 11
2.5822882235
 21
7.3863418029
 31
0.0
  0
LINE
  5
33C
100
AcDbEntity
  8
0
  6
CONTINUOUS
 62
         7
100
AcDbLine
 10
2.222921701
 20
7.7699495963
 30
0.0
 11
2.2356324446
 21
7.7563814424
 31
0.0
  0
LINE
  5
33D
100
AcDbEntity
  8
0
  6
CONTINUOUS
 62
         7
100
AcDbLine
 10
2.465026349
 20
7.5115136431
 30
0.0
 11
2.5822882235
 21
7.3863418029
 31
0.0
  0
LINE
  5
33E
100
AcDbEntity
  8
0
  6
CONTINUOUS
 62
         7
100
AcDbLine
 10
2.4208297807
 20
7.8632935888
 30
0.0
 11
2.3931322753
 21
7.8792830184
 31
0.0
  0
LINE
  5
33F
100
AcDbEntity
  8
0
  6
CONTINUOUS
 62
         7
100
AcDbLine
 10
2.465026349
 20
7.7350314009
 30
0.0
 11
2.4656156046
 21
7.7346912308
 31
0.0
  0
LINE
  5
340
100
AcDbEntity
  8
0
  6
CONTINUOUS
 62
         7
100
AcDbLine
 10
2.4656156046
 20
7.7346912308
 30
0.0
 11
2.4656156046
 21
7.7523940068
 31
0.0
  0
LINE
  5
341
100
AcDbEntity
  8
0
  6
CONTINUOUS
 62
         7
100
AcDbLine
 10
2.4502925632
 20
7.8803020912
 30
0.0
 11
2.4210235285
 21
7.8971987452
 31
0.0
  0
LINE
  5
342
100
AcDbEntity
  8
0
  6
CONTINUOUS
 62
         7
100
AcDbLine
 10
2.5828774792
 20
7.3866819729
 30
0.0
 11
2.5822882235
 21
7.3863418029
 31
0.0
  0
LINE
  5
343
100
AcDbEntity
  8
0
  6
CONTINUOUS
 62
         7
100
AcDbLine
 10
4.1918511196
 20
8.8664800239
 30
0.0
 11
4.2939301924
 21
8.7575151498
 31
0.0
  0
LINE
  5
344
100
AcDbEntity
  8
0
  6
CONTINUOUS
 62
         7
100
AcDbLine
 10
4.5557053987
 20
8.4780817497
 30
0.0
 11
4.7282576092
 21
8.2938899327
 31
0.0
  0
LINE
  5
345
100
AcDbEntity
  8
0
  6
CONTINUOUS
 62
         7
100
AcDbLine
 10
4.5562945585
 20
8.6793283003
 30
0.0
 11
4.5574731656
 21
8.6786479049
 31
0.0
  0
LINE
  5
346
100
AcDbEntity
  8
0
  6
CONTINUOUS
 62
         7
100
AcDbLine
 10
4.5574731656
 20
8.6786479049
 30
0.0
 11
4.5574731656
 21
8.81050781
 31
0.0
  0
POLYLINE
  5
347
100
AcDbEntity
  8
0
  6
CONTINUOUS
 62
         7
100
AcDb2dPolyline
 66
         1
 10
0.0
 20
0.0
 30
0.0
 70
       128
  0
VERTEX
  5
348
100
AcDbEntity
  8
0
100
AcDbVertex
100
AcDb2dVertex
 10
4.2857738608
 20
8.8646742746
 30
0.0
  0
VERTEX
  5
349
100
AcDbEntity
  8
0
100
AcDbVertex
100
AcDb2dVertex
 10
4.2870266556
 20
8.8578691443
 30
0.0
  0
VERTEX
  5
34A
100
AcDbEntity
  8
0
100
AcDbVertex
100
AcDb2dVertex
 10
4.2910527583
 20
8.8418488387
 30
0.0
  0
VERTEX
  5
34B
100
AcDbEntity
  8
0
100
AcDbVertex
100
AcDb2dVertex
 10
4.296592525
 20
8.825678727
 30
0.0
  0
VERTEX
  5
34C
100
AcDbEntity
  8
0
100
AcDbVertex
100
AcDb2dVertex
 10
4.3035511689
 20
8.8096354843
 30
0.0
  0
VERTEX
  5
34D
100
AcDbEntity
  8
0
100
AcDbVertex
100
AcDb2dVertex
 10
4.3118096257
 20
8.793993615
 30
0.0
  0
VERTEX
  5
34E
100
AcDbEntity
  8
0
100
AcDbVertex
100
AcDb2dVertex
 10
4.3212265908
 20
8.7790207557
 30
0.0
  0
VERTEX
  5
34F
100
AcDbEntity
  8
0
100
AcDbVertex
100
AcDb2dVertex
 10
4.3240903916
 20
8.7749262622
 30
0.0
  0
SEQEND
  5
350
100
AcDbEntity
  8
0
  0
POLYLINE
  5
351
100
AcDbEntity
  8
0
  6
CONTINUOUS
 62
         7
100
AcDb2dPolyline
 66
         1
 10
0.0
 20
0.0
 30
0.0
 70
       128
  0
VERTEX
  5
352
100
AcDbEntity
  8
0
100
AcDbVertex
100
AcDb2dVertex
 10
4.776454099
 20
8.6776946363
 30
0.0
  0
VERTEX
  5
353
100
AcDbEntity
  8
0
100
AcDbVertex
100
AcDb2dVertex
 10
4.7657956016
 20
8.6768089591
 30
0.0
  0
VERTEX
  5
354
100
AcDbEntity
  8
0
100
AcDbVertex
100
AcDb2dVertex
 10
4.7523228354
 20
8.6737580361
 30
0.0
  0
VERTEX
  5
355
100
AcDbEntity
  8
0
100
AcDbVertex
100
AcDb2dVertex
 10
4.7398678816
 20
8.6686011386
 30
0.0
  0
VERTEX
  5
356
100
AcDbEntity
  8
0
100
AcDbVertex
100
AcDb2dVertex
 10
4.7285585448
 20
8.6613911834
 30
0.0
  0
VERTEX
  5
357
100
AcDbEntity
  8
0
100
AcDbVertex
100
AcDb2dVertex
 10
4.7185108741
 20
8.6522021544
 30
0.0
  0
VERTEX
  5
358
100
AcDbEntity
  8
0
100
AcDbVertex
100
AcDb2dVertex
 10
4.7098279722
 20
8.6411283434
 30
0.0
  0
VERTEX
  5
359
100
AcDbEntity
  8
0
100
AcDbVertex
100
AcDb2dVertex
 10
4.7025989375
 20
8.6282833828
 30
0.0
  0
VERTEX
  5
35A
100
AcDbEntity
  8
0
100
AcDbVertex
100
AcDb2dVertex
 10
4.6968979496
 20
8.6137990791
 30
0.0
  0
VERTEX
  5
35B
100
AcDbEntity
  8
0
100
AcDbVertex
100
AcDb2dVertex
 10
4.6927835083
 20
8.597824061
 30
0.0
  0
VERTEX
  5
35C
100
AcDbEntity
  8
0
100
AcDbVertex
100
AcDb2dVertex
 10
4.6902978335
 20
8.5805222537
 30
0.0
  0
VERTEX
  5
35D
100
AcDbEntity
  8
0
100
AcDbVertex
100
AcDb2dVertex
 10
4.6894664314
 20
8.5620711973
 30
0.0
  0
VERTEX
  5
35E
100
AcDbEntity
  8
0
100
AcDbVertex
100
AcDb2dVertex
 10
4.6902978335
 20
8.5426602245
 30
0.0
  0
VERTEX
  5
35F
100
AcDbEntity
  8
0
100
AcDbVertex
100
AcDb2dVertex
 10
4.6927835083
 20
8.5224885182
 30
0.0
  0
VERTEX
  5
360
100
AcDbEntity
  8
0
100
AcDbVertex
100
AcDb2dVertex
 10
4.6968979496
 20
8.5017630673
 30
0.0
  0
VERTEX
  5
361
100
AcDbEntity
  8
0
100
AcDbVertex
100
AcDb2dVertex
 10
4.7025989375
 20
8.4806965431
 30
0.0
  0
VERTEX
  5
362
100
AcDbEntity
  8
0
100
AcDbVertex
100
AcDb2dVertex
 10
4.7098279722
 20
8.4595051166
 30
0.0
  0
VERTEX
  5
363
100
AcDbEntity
  8
0
100
AcDbVertex
100
AcDb2dVertex
 10
4.7185108741
 20
8.4384062405
 30
0.0
  0
VERTEX
  5
364
100
AcDbEntity
  8
0
100
AcDbVertex
100
AcDb2dVertex
 10
4.7285585448
 20
8.4176164178
 30
0.0
  0
VERTEX
  5
365
100
AcDbEntity
  8
0
100
AcDbVertex
100
AcDb2dVertex
 10
4.7398678816
 20
8.3973489803
 30
0.0
  0
VERTEX
  5
366
100
AcDbEntity
  8
0
100
AcDbVertex
100
AcDb2dVertex
 10
4.7523228354
 20
8.3778118992
 30
0.0
  0
VERTEX
  5
367
100
AcDbEntity
  8
0
100
AcDbVertex
100
AcDb2dVertex
 10
4.7657956016
 20
8.3592056515
 30
0.0
  0
VERTEX
  5
368
100
AcDbEntity
  8
0
100
AcDbVertex
100
AcDb2dVertex
 10
4.7801479313
 20
8.3417211625
 30
0.0
  0
VERTEX
  5
369
100
AcDbEntity
  8
0
100
AcDbVertex
100
AcDb2dVertex
 10
4.7908514251
 20
8.3300245735
 30
0.0
  0
SEQEND
  5
36A
100
AcDbEntity
  8
0
  0
POLYLINE
  5
36B
100
AcDbEntity
  8
0
  6
CONTINUOUS
 62
         7
100
AcDb2dPolyline
 66
         1
 10
0.0
 20
0.0
 30
0.0
 70
       128
  0
VERTEX
  5
36C
100
AcDbEntity
  8
0
100
AcDbVertex
100
AcDb2dVertex
 10
4.718929214
 20
8.5790796996
 30
0.0
  0
VERTEX
  5
36D
100
AcDbEntity
  8
0
100
AcDbVertex
100
AcDb2dVertex
 10
4.719760616
 20
8.5596687268
 30
0.0
  0
VERTEX
  5
36E
100
AcDbEntity
  8
0
100
AcDbVertex
100
AcDb2dVertex
 10
4.7222462909
 20
8.5394970205
 30
0.0
  0
VERTEX
  5
36F
100
AcDbEntity
  8
0
100
AcDbVertex
100
AcDb2dVertex
 10
4.7263607321
 20
8.5187715697
 30
0.0
  0
VERTEX
  5
370
100
AcDbEntity
  8
0
100
AcDbVertex
100
AcDb2dVertex
 10
4.73206172
 20
8.4977050454
 30
0.0
  0
VERTEX
  5
371
100
AcDbEntity
  8
0
100
AcDbVertex
100
AcDb2dVertex
 10
4.7392907548
 20
8.4765136189
 30
0.0
  0
VERTEX
  5
372
100
AcDbEntity
  8
0
100
AcDbVertex
100
AcDb2dVertex
 10
4.7479736566
 20
8.4554147428
 30
0.0
  0
VERTEX
  5
373
100
AcDbEntity
  8
0
100
AcDbVertex
100
AcDb2dVertex
 10
4.7580213273
 20
8.4346249202
 30
0.0
  0
VERTEX
  5
374
100
AcDbEntity
  8
0
100
AcDbVertex
100
AcDb2dVertex
 10
4.7693306641
 20
8.4143574826
 30
0.0
  0
VERTEX
  5
375
100
AcDbEntity
  8
0
100
AcDbVertex
100
AcDb2dVertex
 10
4.781785618
 20
8.3948204016
 30
0.0
  0
VERTEX
  5
376
100
AcDbEntity
  8
0
100
AcDbVertex
100
AcDb2dVertex
 10
4.7952583841
 20
8.3762141539
 30
0.0
  0
VERTEX
  5
377
100
AcDbEntity
  8
0
100
AcDbVertex
100
AcDb2dVertex
 10
4.8096107138
 20
8.3587296648
 30
0.0
  0
VERTEX
  5
378
100
AcDbEntity
  8
0
100
AcDbVertex
100
AcDb2dVertex
 10
4.8173146062
 20
8.3502035744
 30
0.0
  0
SEQEND
  5
379
100
AcDbEntity
  8
0
  0
POLYLINE
  5
37A
100
AcDbEntity
  8
0
  6
CONTINUOUS
 62
         7
100
AcDb2dPolyline
 66
         1
 10
0.0
 20
0.0
 30
0.0
 70
       128
  0
VERTEX
  5
37B
100
AcDbEntity
  8
0
100
AcDbVertex
100
AcDb2dVertex
 10
4.7526197883
 20
8.6738514069
 30
0.0
  0
VERTEX
  5
37C
100
AcDbEntity
  8
0
100
AcDbVertex
100
AcDb2dVertex
 10
4.7479736566
 20
8.6692106567
 30
0.0
  0
VERTEX
  5
37D
100
AcDbEntity
  8
0
100
AcDbVertex
100
AcDb2dVertex
 10
4.7392907548
 20
8.6581368457
 30
0.0
  0
VERTEX
  5
37E
100
AcDbEntity
  8
0
100
AcDbVertex
100
AcDb2dVertex
 10
4.73206172
 20
8.6452918851
 30
0.0
  0
VERTEX
  5
37F
100
AcDbEntity
  8
0
100
AcDbVertex
100
AcDb2dVertex
 10
4.7263607321
 20
8.6308075814
 30
0.0
  0
VERTEX
  5
380
100
AcDbEntity
  8
0
100
AcDbVertex
100
AcDb2dVertex
 10
4.7222462909
 20
8.6148325633
 30
0.0
  0
VERTEX
  5
381
100
AcDbEntity
  8
0
100
AcDbVertex
100
AcDb2dVertex
 10
4.719760616
 20
8.5975307561
 30
0.0
  0
VERTEX
  5
382
100
AcDbEntity
  8
0
100
AcDbVertex
100
AcDb2dVertex
 10
4.718929214
 20
8.5790796996
 30
0.0
  0
SEQEND
  5
383
100
AcDbEntity
  8
0
  0
POLYLINE
  5
384
100
AcDbEntity
  8
0
  6
CONTINUOUS
 62
         7
100
AcDb2dPolyline
 66
         1
 10
0.0
 20
0.0
 30
0.0
 70
       128
  0
VERTEX
  5
385
100
AcDbEntity
  8
0
100
AcDbVertex
100
AcDb2dVertex
 10
4.3196303649
 20
8.8619257005
 30
0.0
  0
VERTEX
  5
386
100
AcDbEntity
  8
0
100
AcDbVertex
100
AcDb2dVertex
 10
4.3205155408
 20
8.858857341
 30
0.0
  0
VERTEX
  5
387
100
AcDbEntity
  8
0
100
AcDbVertex
100
AcDb2dVertex
 10
4.3260553076
 20
8.8426872293
 30
0.0
  0
VERTEX
  5
388
100
AcDbEntity
  8
0
100
AcDbVertex
100
AcDb2dVertex
 10
4.3330139515
 20
8.8266439867
 30
0.0
  0
VERTEX
  5
389
100
AcDbEntity
  8
0
100
AcDbVertex
100
AcDb2dVertex
 10
4.3412724082
 20
8.8110021173
 30
0.0
  0
VERTEX
  5
38A
100
AcDbEntity
  8
0
100
AcDbVertex
100
AcDb2dVertex
 10
4.3506893733
 20
8.7960292581
 30
0.0
  0
VERTEX
  5
38B
100
AcDbEntity
  8
0
100
AcDbVertex
100
AcDb2dVertex
 10
4.3535531742
 20
8.7919347646
 30
0.0
  0
SEQEND
  5
38C
100
AcDbEntity
  8
0
  0
LINE
  5
38D
100
AcDbEntity
  8
0
  6
CONTINUOUS
 62
         7
100
AcDbLine
 10
2.9714140318
 20
6.5056129661
 30
0.0
 11
2.9771700449
 21
6.4866311367
 31
0.0
  0
LINE
  5
38E
100
AcDbEntity
  8
0
  6
CONTINUOUS
 62
         7
100
AcDbLine
 10
2.1114729584
 20
6.5805309134
 30
0.0
 11
2.9714140318
 21
6.5056129661
 31
0.0
  0
LINE
  5
38F
100
AcDbEntity
  8
0
  6
CONTINUOUS
 62
         7
100
AcDbLine
 10
2.1172289715
 20
6.561549084
 30
0.0
 11
2.9771700449
 21
6.4866311367
 31
0.0
  0
LINE
  5
390
100
AcDbEntity
  8
0
  6
CONTINUOUS
 62
         7
100
AcDbLine
 10
2.1114729584
 20
6.5805309134
 30
0.0
 11
2.1172289715
 21
6.561549084
 31
0.0
  0
LINE
  5
391
100
AcDbEntity
  8
0
  6
CONTINUOUS
 62
         7
100
AcDbLine
 10
5.7719155686
 20
8.0709367718
 30
0.0
 11
5.7963198302
 21
8.3789604013
 31
0.0
  0
LINE
  5
392
100
AcDbEntity
  8
0
  6
CONTINUOUS
 62
         7
100
AcDbLine
 10
5.7719155686
 20
8.0709367718
 30
0.0
 11
2.9833086154
 21
6.4611031439
 31
0.0
  0
LINE
  5
393
100
AcDbEntity
  8
0
  6
CONTINUOUS
 62
         7
100
AcDbLine
 10
2.9833086154
 20
6.4611031439
 30
0.0
 11
2.9953564348
 21
6.6131672853
 31
0.0
  0
LINE
  5
394
100
AcDbEntity
  8
0
  6
CONTINUOUS
 62
         7
100
AcDbLine
 10
2.9953564348
 20
6.6131672853
 30
0.0
 11
5.0934972349
 21
7.9483412983
 31
0.0
  0
POLYLINE
  5
395
100
AcDbEntity
  8
0
  6
CONTINUOUS
 62
         7
100
AcDb2dPolyline
 66
         1
 10
0.0
 20
0.0
 30
0.0
 70
       128
  0
VERTEX
  5
396
100
AcDbEntity
  8
0
100
AcDbVertex
100
AcDb2dVertex
 10
5.0934972349
 20
7.9483412983
 30
0.0
  0
VERTEX
  5
397
100
AcDbEntity
  8
0
100
AcDbVertex
100
AcDb2dVertex
 10
5.445121342
 20
8.1679431091
 30
0.0
  0
VERTEX
  5
398
100
AcDbEntity
  8
0
100
AcDbVertex
100
AcDb2dVertex
 10
5.7963198302
 20
8.3789604013
 30
0.0
  0
SEQEND
  5
399
100
AcDbEntity
  8
0
  0
LINE
  5
39A
100
AcDbEntity
  8
0
  6
CONTINUOUS
 62
         7
100
AcDbLine
 10
2.980568772
 20
6.6217040213
 30
0.0
 11
2.9953564348
 21
6.6131672853
 31
0.0
  0
LINE
  5
39B
100
AcDbEntity
  8
0
  6
CONTINUOUS
 62
         7
100
AcDbLine
 10
2.9686332815
 20
6.4710576634
 30
0.0
 11
2.9833086154
 21
6.4611031439
 31
0.0
  0
LINE
  5
39C
100
AcDbEntity
  8
0
  6
CONTINUOUS
 62
         7
100
AcDbLine
 10
2.980568772
 20
6.6217040213
 30
0.0
 11
2.9686332815
 21
6.4710576634
 31
0.0
  0
POLYLINE
  5
39D
100
AcDbEntity
  8
0
  6
CONTINUOUS
 62
         7
100
AcDb2dPolyline
 66
         1
 10
0.0
 20
0.0
 30
0.0
 70
       128
  0
VERTEX
  5
39E
100
AcDbEntity
  8
0
100
AcDbVertex
100
AcDb2dVertex
 10
5.7963198302
 20
8.3789604013
 30
0.0
  0
VERTEX
  5
39F
100
AcDbEntity
  8
0
100
AcDbVertex
100
AcDb2dVertex
 10
5.9485119869
 20
8.4713818977
 30
0.0
  0
VERTEX
  5
3A0
100
AcDbEntity
  8
0
100
AcDbVertex
100
AcDb2dVertex
 10
6.0962646982
 20
8.564491947
 30
0.0
  0
VERTEX
  5
3A1
100
AcDbEntity
  8
0
100
AcDbVertex
100
AcDb2dVertex
 10
6.2392483655
 20
8.6582339862
 30
0.0
  0
VERTEX
  5
3A2
100
AcDbEntity
  8
0
100
AcDbVertex
100
AcDb2dVertex
 10
6.3454886427
 20
8.7309055022
 30
0.0
  0
SEQEND
  5
3A3
100
AcDbEntity
  8
0
  0
LINE
  5
3A4
100
AcDbEntity
  8
0
  6
CONTINUOUS
 62
         7
100
AcDbLine
 10
7.8487051906
 20
10.2645596641
 30
0.0
 11
7.8524425946
 21
10.3000859132
 31
0.0
  0
POLYLINE
  5
3A5
100
AcDbEntity
  8
0
  6
CONTINUOUS
 62
         7
100
AcDb2dPolyline
 66
         1
 10
0.0
 20
0.0
 30
0.0
 70
       128
  0
VERTEX
  5
3A6
100
AcDbEntity
  8
0
100
AcDbVertex
100
AcDb2dVertex
 10
7.8487051906
 20
10.2645596641
 30
0.0
  0
VERTEX
  5
3A7
100
AcDbEntity
  8
0
100
AcDbVertex
100
AcDb2dVertex
 10
7.7916791249
 20
10.1423396162
 30
0.0
  0
VERTEX
  5
3A8
100
AcDbEntity
  8
0
100
AcDbVertex
100
AcDb2dVertex
 10
7.7306830767
 20
10.0207334848
 30
0.0
  0
VERTEX
  5
3A9
100
AcDbEntity
  8
0
100
AcDbVertex
100
AcDb2dVertex
 10
7.6653712868
 20
9.899885806
 30
0.0
  0
VERTEX
  5
3AA
100
AcDbEntity
  8
0
100
AcDbVertex
100
AcDb2dVertex
 10
7.5953979965
 20
9.7799411156
 30
0.0
  0
VERTEX
  5
3AB
100
AcDbEntity
  8
0
100
AcDbVertex
100
AcDb2dVertex
 10
7.5203447095
 20
9.6609349776
 30
0.0
  0
VERTEX
  5
3AC
100
AcDbEntity
  8
0
100
AcDbVertex
100
AcDb2dVertex
 10
7.4401127438
 20
9.5430165818
 30
0.0
  0
VERTEX
  5
3AD
100
AcDbEntity
  8
0
100
AcDbVertex
100
AcDb2dVertex
 10
7.3547224812
 20
9.4263135689
 30
0.0
  0
VERTEX
  5
3AE
100
AcDbEntity
  8
0
100
AcDbVertex
100
AcDb2dVertex
 10
7.2641943035
 20
9.3109535793
 30
0.0
  0
VERTEX
  5
3AF
100
AcDbEntity
  8
0
100
AcDbVertex
100
AcDb2dVertex
 10
7.1684896415
 20
9.1969633967
 30
0.0
  0
VERTEX
  5
3B0
100
AcDbEntity
  8
0
100
AcDbVertex
100
AcDb2dVertex
 10
7.0675644955
 20
9.0844319594
 30
0.0
  0
VERTEX
  5
3B1
100
AcDbEntity
  8
0
100
AcDbVertex
100
AcDb2dVertex
 10
6.9613886269
 20
8.9735278292
 30
0.0
  0
VERTEX
  5
3B2
100
AcDbEntity
  8
0
100
AcDbVertex
100
AcDb2dVertex
 10
6.8499317968
 20
8.8644195681
 30
0.0
  0
VERTEX
  5
3B3
100
AcDbEntity
  8
0
100
AcDbVertex
100
AcDb2dVertex
 10
6.7342007933
 20
8.7582564757
 30
0.0
  0
VERTEX
  5
3B4
100
AcDbEntity
  8
0
100
AcDbVertex
100
AcDb2dVertex
 10
6.6130595251
 20
8.6540580409
 30
0.0
  0
VERTEX
  5
3B5
100
AcDbEntity
  8
0
100
AcDbVertex
100
AcDb2dVertex
 10
6.4866212322
 20
8.5519807233
 30
0.0
  0
VERTEX
  5
3B6
100
AcDbEntity
  8
0
100
AcDbVertex
100
AcDb2dVertex
 10
6.3549991544
 20
8.4521809824
 30
0.0
  0
VERTEX
  5
3B7
100
AcDbEntity
  8
0
100
AcDbVertex
100
AcDb2dVertex
 10
6.2163741193
 20
8.3533359792
 30
0.0
  0
VERTEX
  5
3B8
100
AcDbEntity
  8
0
100
AcDbVertex
100
AcDb2dVertex
 10
6.0727921368
 20
8.2568098621
 30
0.0
  0
VERTEX
  5
3B9
100
AcDbEntity
  8
0
100
AcDbVertex
100
AcDb2dVertex
 10
5.9245427667
 20
8.1626582526
 30
0.0
  0
VERTEX
  5
3BA
100
AcDbEntity
  8
0
100
AcDbVertex
100
AcDb2dVertex
 10
5.7719155686
 20
8.0709367718
 30
0.0
  0
SEQEND
  5
3BB
100
AcDbEntity
  8
0
  0
LINE
  5
3BC
100
AcDbEntity
  8
0
  6
CONTINUOUS
 62
         7
100
AcDbLine
 10
1.2642334391
 20
7.4664410848
 30
0.0
 11
1.2543126352
 21
7.4607139071
 31
0.0
  0
LINE
  5
3BD
100
AcDbEntity
  8
0
  6
CONTINUOUS
 62
         7
100
AcDbLine
 10
1.2423771447
 20
7.6251406891
 30
0.0
 11
1.2543126352
 21
7.4607139071
 31
0.0
  0
LINE
  5
3BE
100
AcDbEntity
  8
0
  6
CONTINUOUS
 62
         7
100
AcDbLine
 10
1.2423771447
 20
7.6251406891
 30
0.0
 11
1.2275894798
 21
7.6336774239
 31
0.0
  0
LINE
  5
3BF
100
AcDbEntity
  8
0
  6
CONTINUOUS
 62
         7
100
AcDbLine
 10
1.2543126352
 20
7.4607139071
 30
0.0
 11
1.2396372993
 21
7.4677031662
 31
0.0
  0
LINE
  5
3C0
100
AcDbEntity
  8
0
  6
CONTINUOUS
 62
         7
100
AcDbLine
 10
1.2396372993
 20
7.4677031662
 30
0.0
 11
1.2275894798
 21
7.6336774239
 31
0.0
  0
LINE
  5
3C1
100
AcDbEntity
  8
0
  6
CONTINUOUS
 62
         7
100
AcDbLine
 10
5.0934972349
 20
7.9483412983
 30
0.0
 11
2.9953564348
 21
6.6131672853
 31
0.0
  0
LINE
  5
3C2
100
AcDbEntity
  8
0
  6
CONTINUOUS
 62
         7
100
AcDbLine
 10
2.9945237613
 20
6.6296756447
 30
0.0
 11
2.9953564348
 21
6.6131672853
 31
0.0
  0
LINE
  5
3C3
100
AcDbEntity
  8
0
  6
CONTINUOUS
 62
         7
100
AcDbLine
 10
2.9945237613
 20
6.6296756447
 30
0.0
 11
5.0926645613
 21
7.9648496577
 31
0.0
  0
LINE
  5
3C4
100
AcDbEntity
  8
0
  6
CONTINUOUS
 62
         7
100
AcDbLine
 10
5.0934972349
 20
7.9653795127
 30
0.0
 11
5.0926645613
 21
7.9648496577
 31
0.0
  0
LINE
  5
3C5
100
AcDbEntity
  8
0
  6
CONTINUOUS
 62
         7
100
AcDbLine
 10
2.5820488894
 20
6.8677923198
 30
0.0
 11
2.9945237613
 21
6.6296756447
 31
0.0
  0
LINE
  5
3C6
100
AcDbEntity
  8
0
  6
CONTINUOUS
 62
         7
100
AcDbLine
 10
2.5820488894
 20
6.8677923198
 30
0.0
 11
4.669899512
 21
8.2089067258
 31
0.0
  0
LINE
  5
3C7
100
AcDbEntity
  8
0
  6
CONTINUOUS
 62
         7
100
AcDbLine
 10
2.5828774792
 20
6.8512863179
 30
0.0
 11
2.5820488894
 21
6.8677923198
 31
0.0
  0
LINE
  5
3C8
100
AcDbEntity
  8
0
  6
CONTINUOUS
 62
         7
100
AcDbLine
 10
2.9953564348
 20
6.6131672853
 30
0.0
 11
2.5828774792
 21
6.8512863179
 31
0.0
  0
LINE
  5
3C9
100
AcDbEntity
  8
0
  6
CONTINUOUS
 62
         7
100
AcDbLine
 10
1.6400684376
 20
7.3955583925
 30
0.0
 11
1.6392398479
 21
7.4120643943
 31
0.0
  0
LINE
  5
3CA
100
AcDbEntity
  8
0
  6
CONTINUOUS
 62
         7
100
AcDbLine
 10
3.7270904704
 20
8.7531788003
 30
0.0
 11
1.6392398479
 21
7.4120643943
 31
0.0
  0
LINE
  5
3CB
100
AcDbEntity
  8
0
  6
CONTINUOUS
 62
         7
100
AcDbLine
 10
1.901561335
 20
7.5635262959
 30
0.0
 11
3.7279190602
 21
8.7366727985
 31
0.0
  0
LINE
  5
3CC
100
AcDbEntity
  8
0
  6
CONTINUOUS
 62
         7
100
AcDbLine
 10
3.304325134
 20
8.9972360342
 30
0.0
 11
1.226764976
 21
7.6501810694
 31
0.0
  0
LINE
  5
3CD
100
AcDbEntity
  8
0
  6
CONTINUOUS
 62
         7
100
AcDbLine
 10
1.226764976
 20
7.6501810694
 30
0.0
 11
1.6392398479
 21
7.4120643943
 31
0.0
  0
LINE
  5
3CE
100
AcDbEntity
  8
0
  6
CONTINUOUS
 62
         7
100
AcDbLine
 10
1.2275894819
 20
7.6336774251
 30
0.0
 11
1.226764976
 21
7.6501810694
 31
0.0
  0
LINE
  5
3CF
100
AcDbEntity
  8
0
  6
CONTINUOUS
 62
         7
100
AcDbLine
 10
1.6400684376
 20
7.3955583925
 30
0.0
 11
1.2275894819
 21
7.6336774251
 31
0.0
  0
POLYLINE
  5
3D0
100
AcDbEntity
  8
0
  6
CONTINUOUS
 62
         7
100
AcDb2dPolyline
 66
         1
 10
0.0
 20
0.0
 30
0.0
 70
       128
  0
VERTEX
  5
3D1
100
AcDbEntity
  8
0
100
AcDbVertex
100
AcDb2dVertex
 10
3.3051496378
 20
8.9977706029
 30
0.0
  0
VERTEX
  5
3D2
100
AcDbEntity
  8
0
100
AcDbVertex
100
AcDb2dVertex
 10
3.4793947903
 20
9.1094882244
 30
0.0
  0
VERTEX
  5
3D3
100
AcDbEntity
  8
0
100
AcDbVertex
100
AcDb2dVertex
 10
3.6539247067
 20
9.2188916383
 30
0.0
  0
VERTEX
  5
3D4
100
AcDbEntity
  8
0
100
AcDbVertex
100
AcDb2dVertex
 10
3.8287620042
 20
9.3259930784
 30
0.0
  0
VERTEX
  5
3D5
100
AcDbEntity
  8
0
100
AcDbVertex
100
AcDb2dVertex
 10
4.0038396076
 20
9.4307495208
 30
0.0
  0
SEQEND
  5
3D6
100
AcDbEntity
  8
0
  0
POLYLINE
  5
3D7
100
AcDbEntity
  8
0
  6
CONTINUOUS
 62
         7
100
AcDb2dPolyline
 66
         1
 10
0.0
 20
0.0
 30
0.0
 70
       128
  0
VERTEX
  5
3D8
100
AcDbEntity
  8
0
100
AcDbVertex
100
AcDb2dVertex
 10
4.0038396076
 20
9.4307495208
 30
0.0
  0
VERTEX
  5
3D9
100
AcDbEntity
  8
0
100
AcDbVertex
100
AcDb2dVertex
 10
4.1364173058
 20
9.5057466287
 30
0.0
  0
VERTEX
  5
3DA
100
AcDbEntity
  8
0
100
AcDbVertex
100
AcDb2dVertex
 10
4.2719936887
 20
9.5776752653
 30
0.0
  0
VERTEX
  5
3DB
100
AcDbEntity
  8
0
100
AcDbVertex
100
AcDb2dVertex
 10
4.4105075606
 20
9.646427893
 30
0.0
  0
VERTEX
  5
3DC
100
AcDbEntity
  8
0
100
AcDbVertex
100
AcDb2dVertex
 10
4.5528232582
 20
9.7123154772
 30
0.0
  0
VERTEX
  5
3DD
100
AcDbEntity
  8
0
100
AcDbVertex
100
AcDb2dVertex
 10
4.6980993251
 20
9.7748464453
 30
0.0
  0
VERTEX
  5
3DE
100
AcDbEntity
  8
0
100
AcDbVertex
100
AcDb2dVertex
 10
4.8462400722
 20
9.8339201088
 30
0.0
  0
VERTEX
  5
3DF
100
AcDbEntity
  8
0
100
AcDbVertex
100
AcDb2dVertex
 10
4.9963359949
 20
9.8891527036
 30
0.0
  0
VERTEX
  5
3E0
100
AcDbEntity
  8
0
100
AcDbVertex
100
AcDb2dVertex
 10
5.1491404436
 20
9.9409040625
 30
0.0
  0
VERTEX
  5
3E1
100
AcDbEntity
  8
0
100
AcDbVertex
100
AcDb2dVertex
 10
5.3044308508
 20
9.9891843365
 30
0.0
  0
VERTEX
  5
3E2
100
AcDbEntity
  8
0
100
AcDbVertex
100
AcDb2dVertex
 10
5.4630594153
 20
10.0343115657
 30
0.0
  0
VERTEX
  5
3E3
100
AcDbEntity
  8
0
100
AcDbVertex
100
AcDb2dVertex
 10
5.6239176801
 20
10.0760361384
 30
0.0
  0
VERTEX
  5
3E4
100
AcDbEntity
  8
0
100
AcDbVertex
100
AcDb2dVertex
 10
5.786798843
 20
10.1143963889
 30
0.0
  0
VERTEX
  5
3E5
100
AcDbEntity
  8
0
100
AcDbVertex
100
AcDb2dVertex
 10
5.9803468437
 20
10.1551954327
 30
0.0
  0
VERTEX
  5
3E6
100
AcDbEntity
  8
0
100
AcDbVertex
100
AcDb2dVertex
 10
6.1764093619
 20
10.1915369102
 30
0.0
  0
VERTEX
  5
3E7
100
AcDbEntity
  8
0
100
AcDbVertex
100
AcDb2dVertex
 10
6.3747335205
 20
10.2234802359
 30
0.0
  0
VERTEX
  5
3E8
100
AcDbEntity
  8
0
100
AcDbVertex
100
AcDb2dVertex
 10
6.5750664422
 20
10.2510848245
 30
0.0
  0
VERTEX
  5
3E9
100
AcDbEntity
  8
0
100
AcDbVertex
100
AcDb2dVertex
 10
6.7771552497
 20
10.2744100905
 30
0.0
  0
VERTEX
  5
3EA
100
AcDbEntity
  8
0
100
AcDbVertex
100
AcDb2dVertex
 10
6.9844230895
 20
10.2938084357
 30
0.0
  0
VERTEX
  5
3EB
100
AcDbEntity
  8
0
100
AcDbVertex
100
AcDb2dVertex
 10
7.1933292898
 20
10.3090263032
 30
0.0
  0
VERTEX
  5
3EC
100
AcDbEntity
  8
0
100
AcDbVertex
100
AcDb2dVertex
 10
7.4035975381
 20
10.3203035144
 30
0.0
  0
VERTEX
  5
3ED
100
AcDbEntity
  8
0
100
AcDbVertex
100
AcDb2dVertex
 10
7.6149515216
 20
10.3278798909
 30
0.0
  0
VERTEX
  5
3EE
100
AcDbEntity
  8
0
100
AcDbVertex
100
AcDb2dVertex
 10
7.827114928
 20
10.3319952541
 30
0.0
  0
SEQEND
  5
3EF
100
AcDbEntity
  8
0
  0
LINE
  5
3F0
100
AcDbEntity
  8
0
  6
CONTINUOUS
 62
         7
100
AcDbLine
 10
7.827114928
 20
10.3319952541
 30
0.0
 11
7.8524425946
 21
10.3173737932
 31
0.0
  0
POLYLINE
  5
3F1
100
AcDbEntity
  8
0
  6
CONTINUOUS
 62
         7
100
AcDb2dPolyline
 66
         1
 10
0.0
 20
0.0
 30
0.0
 70
       128
  0
VERTEX
  5
3F2
100
AcDbEntity
  8
0
100
AcDbVertex
100
AcDb2dVertex
 10
7.8524425946
 20
10.3173737932
 30
0.0
  0
VERTEX
  5
3F3
100
AcDbEntity
  8
0
100
AcDbVertex
100
AcDb2dVertex
 10
7.7842708369
 20
10.1982784622
 30
0.0
  0
VERTEX
  5
3F4
100
AcDbEntity
  8
0
100
AcDbVertex
100
AcDb2dVertex
 10
7.7095335409
 20
10.0783496108
 30
0.0
  0
VERTEX
  5
3F5
100
AcDbEntity
  8
0
100
AcDbVertex
100
AcDb2dVertex
 10
7.6555044697
 20
9.997778868
 30
0.0
  0
VERTEX
  5
3F6
100
AcDbEntity
  8
0
100
AcDbVertex
100
AcDb2dVertex
 10
7.5979832024
 20
9.9169636897
 30
0.0
  0
VERTEX
  5
3F7
100
AcDbEntity
  8
0
100
AcDbVertex
100
AcDb2dVertex
 10
7.5368137046
 20
9.8359729433
 30
0.0
  0
VERTEX
  5
3F8
100
AcDbEntity
  8
0
100
AcDbVertex
100
AcDb2dVertex
 10
7.4720703477
 20
9.7550558288
 30
0.0
  0
VERTEX
  5
3F9
100
AcDbEntity
  8
0
100
AcDbVertex
100
AcDb2dVertex
 10
7.4035874148
 20
9.673998538
 30
0.0
  0
VERTEX
  5
3FA
100
AcDbEntity
  8
0
100
AcDbVertex
100
AcDb2dVertex
 10
7.3313689759
 20
9.5928442751
 30
0.0
  0
VERTEX
  5
3FB
100
AcDbEntity
  8
0
100
AcDbVertex
100
AcDb2dVertex
 10
7.2550245609
 20
9.5112232928
 30
0.0
  0
VERTEX
  5
3FC
100
AcDbEntity
  8
0
100
AcDbVertex
100
AcDb2dVertex
 10
7.1748581293
 20
9.4295416602
 30
0.0
  0
VERTEX
  5
3FD
100
AcDbEntity
  8
0
100
AcDbVertex
100
AcDb2dVertex
 10
7.09086956
 20
9.3478601921
 30
0.0
  0
VERTEX
  5
3FE
100
AcDbEntity
  8
0
100
AcDbVertex
100
AcDb2dVertex
 10
6.9874328259
 20
9.2521073067
 30
0.0
  0
VERTEX
  5
3FF
100
AcDbEntity
  8
0
100
AcDbVertex
100
AcDb2dVertex
 10
6.8785309643
 20
9.1564226187
 30
0.0
  0
VERTEX
  5
400
100
AcDbEntity
  8
0
100
AcDbVertex
100
AcDb2dVertex
 10
6.7641668007
 20
9.0609644525
 30
0.0
  0
VERTEX
  5
401
100
AcDbEntity
  8
0
100
AcDbVertex
100
AcDb2dVertex
 10
6.6443431605
 20
8.9658911323
 30
0.0
  0
VERTEX
  5
402
100
AcDbEntity
  8
0
100
AcDbVertex
100
AcDb2dVertex
 10
6.5190628693
 20
8.8713609823
 30
0.0
  0
VERTEX
  5
403
100
AcDbEntity
  8
0
100
AcDbVertex
100
AcDb2dVertex
 10
6.3849609557
 20
8.7750587974
 30
0.0
  0
VERTEX
  5
404
100
AcDbEntity
  8
0
100
AcDbVertex
100
AcDb2dVertex
 10
6.2452901838
 20
8.6793071153
 30
0.0
  0
VERTEX
  5
405
100
AcDbEntity
  8
0
100
AcDbVertex
100
AcDb2dVertex
 10
6.1003960648
 20
8.5841676991
 30
0.0
  0
VERTEX
  5
406
100
AcDbEntity
  8
0
100
AcDbVertex
100
AcDb2dVertex
 10
5.9506241099
 20
8.4897023118
 30
0.0
  0
VERTEX
  5
407
100
AcDbEntity
  8
0
100
AcDbVertex
100
AcDb2dVertex
 10
5.7963198302
 20
8.3959727166
 30
0.0
  0
SEQEND
  5
408
100
AcDbEntity
  8
0
  0
POLYLINE
  5
409
100
AcDbEntity
  8
0
  6
CONTINUOUS
 62
         7
100
AcDb2dPolyline
 66
         1
 10
0.0
 20
0.0
 30
0.0
 70
       128
  0
VERTEX
  5
40A
100
AcDbEntity
  8
0
100
AcDbVertex
100
AcDb2dVertex
 10
5.7963198302
 20
8.3959727166
 30
0.0
  0
VERTEX
  5
40B
100
AcDbEntity
  8
0
100
AcDbVertex
100
AcDb2dVertex
 10
5.6208407774
 20
8.2915806997
 30
0.0
  0
VERTEX
  5
40C
100
AcDbEntity
  8
0
100
AcDbVertex
100
AcDb2dVertex
 10
5.4452107278
 20
8.1850187895
 30
0.0
  0
VERTEX
  5
40D
100
AcDbEntity
  8
0
100
AcDbVertex
100
AcDb2dVertex
 10
5.2694070293
 20
8.0762716577
 30
0.0
  0
VERTEX
  5
40E
100
AcDbEntity
  8
0
100
AcDbVertex
100
AcDb2dVertex
 10
5.0934972349
 20
7.9653795127
 30
0.0
  0
SEQEND
  5
40F
100
AcDbEntity
  8
0
  0
POLYLINE
  5
410
100
AcDbEntity
  8
0
  6
CONTINUOUS
 62
         7
100
AcDb2dPolyline
 66
         1
 10
0.0
 20
0.0
 30
0.0
 70
       128
  0
VERTEX
  5
411
100
AcDbEntity
  8
0
100
AcDbVertex
100
AcDb2dVertex
 10
3.7270904704
 20
8.7531788003
 30
0.0
  0
VERTEX
  5
412
100
AcDbEntity
  8
0
100
AcDbVertex
100
AcDb2dVertex
 10
3.7846469613
 20
8.7861870326
 30
0.0
  0
VERTEX
  5
413
100
AcDbEntity
  8
0
100
AcDbVertex
100
AcDb2dVertex
 10
3.8457844252
 20
8.814057629
 30
0.0
  0
VERTEX
  5
414
100
AcDbEntity
  8
0
100
AcDbVertex
100
AcDb2dVertex
 10
3.9115573825
 20
8.8376429013
 30
0.0
  0
VERTEX
  5
415
100
AcDbEntity
  8
0
100
AcDbVertex
100
AcDb2dVertex
 10
3.9807283516
 20
8.856517816
 30
0.0
  0
VERTEX
  5
416
100
AcDbEntity
  8
0
100
AcDbVertex
100
AcDb2dVertex
 10
4.0526939148
 20
8.8704598428
 30
0.0
  0
VERTEX
  5
417
100
AcDbEntity
  8
0
100
AcDbVertex
100
AcDb2dVertex
 10
4.1267234898
 20
8.879433114
 30
0.0
  0
VERTEX
  5
418
100
AcDbEntity
  8
0
100
AcDbVertex
100
AcDb2dVertex
 10
4.2014249044
 20
8.8833009714
 30
0.0
  0
VERTEX
  5
419
100
AcDbEntity
  8
0
100
AcDbVertex
100
AcDb2dVertex
 10
4.276121527
 20
8.8819871238
 30
0.0
  0
VERTEX
  5
41A
100
AcDbEntity
  8
0
100
AcDbVertex
100
AcDb2dVertex
 10
4.3500770357
 20
8.8756061929
 30
0.0
  0
VERTEX
  5
41B
100
AcDbEntity
  8
0
100
AcDbVertex
100
AcDb2dVertex
 10
4.4218995063
 20
8.8643094184
 30
0.0
  0
VERTEX
  5
41C
100
AcDbEntity
  8
0
100
AcDbVertex
100
AcDb2dVertex
 10
4.4908701411
 20
8.8481663025
 30
0.0
  0
VERTEX
  5
41D
100
AcDbEntity
  8
0
100
AcDbVertex
100
AcDb2dVertex
 10
4.5563746682
 20
8.8274174792
 30
0.0
  0
VERTEX
  5
41E
100
AcDbEntity
  8
0
100
AcDbVertex
100
AcDb2dVertex
 10
4.617179214
 20
8.8024706397
 30
0.0
  0
VERTEX
  5
41F
100
AcDbEntity
  8
0
100
AcDbVertex
100
AcDb2dVertex
 10
4.6726126194
 20
8.7735324908
 30
0.0
  0
VERTEX
  5
420
100
AcDbEntity
  8
0
100
AcDbVertex
100
AcDb2dVertex
 10
4.7222503066
 20
8.7409226858
 30
0.0
  0
VERTEX
  5
421
100
AcDbEntity
  8
0
100
AcDbVertex
100
AcDb2dVertex
 10
4.7651587912
 20
8.7052505499
 30
0.0
  0
VERTEX
  5
422
100
AcDbEntity
  8
0
100
AcDbVertex
100
AcDb2dVertex
 10
4.8008271827
 20
8.666813928
 30
0.0
  0
VERTEX
  5
423
100
AcDbEntity
  8
0
100
AcDbVertex
100
AcDb2dVertex
 10
4.8290290349
 20
8.6259865411
 30
0.0
  0
VERTEX
  5
424
100
AcDbEntity
  8
0
100
AcDbVertex
100
AcDb2dVertex
 10
4.8492362123
 20
8.5835116318
 30
0.0
  0
VERTEX
  5
425
100
AcDbEntity
  8
0
100
AcDbVertex
100
AcDb2dVertex
 10
4.8611476414
 20
8.5397308972
 30
0.0
  0
VERTEX
  5
426
100
AcDbEntity
  8
0
100
AcDbVertex
100
AcDb2dVertex
 10
4.8647600411
 20
8.495055352
 30
0.0
  0
VERTEX
  5
427
100
AcDbEntity
  8
0
100
AcDbVertex
100
AcDb2dVertex
 10
4.8600073359
 20
8.4502909434
 30
0.0
  0
VERTEX
  5
428
100
AcDbEntity
  8
0
100
AcDbVertex
100
AcDb2dVertex
 10
4.8468135861
 20
8.4058157528
 30
0.0
  0
VERTEX
  5
429
100
AcDbEntity
  8
0
100
AcDbVertex
100
AcDb2dVertex
 10
4.8254214698
 20
8.3620295575
 30
0.0
  0
VERTEX
  5
42A
100
AcDbEntity
  8
0
100
AcDbVertex
100
AcDb2dVertex
 10
4.7962342001
 20
8.3197278955
 30
0.0
  0
VERTEX
  5
42B
100
AcDbEntity
  8
0
100
AcDbVertex
100
AcDb2dVertex
 10
4.760631925
 20
8.2804860609
 30
0.0
  0
VERTEX
  5
42C
100
AcDbEntity
  8
0
100
AcDbVertex
100
AcDb2dVertex
 10
4.7182700048
 20
8.2433293866
 30
0.0
  0
VERTEX
  5
42D
100
AcDbEntity
  8
0
100
AcDbVertex
100
AcDb2dVertex
 10
4.669899512
 20
8.2089067258
 30
0.0
  0
SEQEND
  5
42E
100
AcDbEntity
  8
0
  0
LINE
  5
42F
100
AcDbEntity
  8
0
  6
CONTINUOUS
 62
         7
100
AcDbLine
 10
3.304325134
 20
8.9972360342
 30
0.0
 11
3.3051496378
 21
8.9977706029
 31
0.0
  0
LINE
  5
430
100
AcDbEntity
  8
0
  6
CONTINUOUS
 62
         7
100
AcDbLine
 10
5.7963198302
 20
8.3959727166
 30
0.0
 11
5.7963198302
 21
8.3789604013
 31
0.0
  0
POLYLINE
  5
431
100
AcDbEntity
  8
0
  6
CONTINUOUS
 62
         7
100
AcDb2dPolyline
 66
         1
 10
0.0
 20
0.0
 30
0.0
 70
       128
  0
VERTEX
  5
432
100
AcDbEntity
  8
0
100
AcDbVertex
100
AcDb2dVertex
 10
5.0934972349
 20
7.9483412983
 30
0.0
  0
VERTEX
  5
433
100
AcDbEntity
  8
0
100
AcDbVertex
100
AcDb2dVertex
 10
5.2692939604
 20
8.0591725682
 30
0.0
  0
VERTEX
  5
434
100
AcDbEntity
  8
0
100
AcDbVertex
100
AcDb2dVertex
 10
5.4450299959
 20
8.1678871411
 30
0.0
  0
VERTEX
  5
435
100
AcDbEntity
  8
0
100
AcDbVertex
100
AcDb2dVertex
 10
5.6207278867
 20
8.2744973394
 30
0.0
  0
VERTEX
  5
436
100
AcDbEntity
  8
0
100
AcDbVertex
100
AcDb2dVertex
 10
5.7963198302
 20
8.3789604013
 30
0.0
  0
SEQEND
  5
437
100
AcDbEntity
  8
0
  0
POLYLINE
  5
438
100
AcDbEntity
  8
0
  6
CONTINUOUS
 62
         7
100
AcDb2dPolyline
 66
         1
 10
0.0
 20
0.0
 30
0.0
 70
       128
  0
VERTEX
  5
439
100
AcDbEntity
  8
0
100
AcDbVertex
100
AcDb2dVertex
 10
4.8646303221
 20
8.4936628458
 30
0.0
  0
VERTEX
  5
43A
100
AcDbEntity
  8
0
100
AcDbVertex
100
AcDb2dVertex
 10
4.861024739
 20
8.5282971395
 30
0.0
  0
VERTEX
  5
43B
100
AcDbEntity
  8
0
100
AcDbVertex
100
AcDb2dVertex
 10
4.848050724
 20
8.5720988253
 30
0.0
  0
VERTEX
  5
43C
100
AcDbEntity
  8
0
100
AcDbVertex
100
AcDb2dVertex
 10
4.8269751938
 20
8.614430283
 30
0.0
  0
VERTEX
  5
43D
100
AcDbEntity
  8
0
100
AcDbVertex
100
AcDb2dVertex
 10
4.7978838039
 20
8.6548966497
 30
0.0
  0
VERTEX
  5
43E
100
AcDbEntity
  8
0
100
AcDbVertex
100
AcDb2dVertex
 10
4.76116105
 20
8.6931620041
 30
0.0
  0
VERTEX
  5
43F
100
AcDbEntity
  8
0
100
AcDbVertex
100
AcDb2dVertex
 10
4.7174966781
 20
8.7285235778
 30
0.0
  0
VERTEX
  5
440
100
AcDbEntity
  8
0
100
AcDbVertex
100
AcDb2dVertex
 10
4.6672322027
 20
8.7606034905
 30
0.0
  0
VERTEX
  5
441
100
AcDbEntity
  8
0
100
AcDbVertex
100
AcDb2dVertex
 10
4.6109182795
 20
8.7891584129
 30
0.0
  0
VERTEX
  5
442
100
AcDbEntity
  8
0
100
AcDbVertex
100
AcDb2dVertex
 10
4.5496146224
 20
8.8136470148
 30
0.0
  0
VERTEX
  5
443
100
AcDbEntity
  8
0
100
AcDbVertex
100
AcDb2dVertex
 10
4.4838518201
 20
8.8337659074
 30
0.0
  0
VERTEX
  5
444
100
AcDbEntity
  8
0
100
AcDbVertex
100
AcDb2dVertex
 10
4.4143030938
 20
8.8493694156
 30
0.0
  0
VERTEX
  5
445
100
AcDbEntity
  8
0
100
AcDbVertex
100
AcDb2dVertex
 10
4.342276644
 20
8.8601406528
 30
0.0
  0
VERTEX
  5
446
100
AcDbEntity
  8
0
100
AcDbVertex
100
AcDb2dVertex
 10
4.2684044753
 20
8.8658826068
 30
0.0
  0
VERTEX
  5
447
100
AcDbEntity
  8
0
100
AcDbVertex
100
AcDb2dVertex
 10
4.1934331401
 20
8.8665733985
 30
0.0
  0
VERTEX
  5
448
100
AcDbEntity
  8
0
100
AcDbVertex
100
AcDb2dVertex
 10
4.1187727085
 20
8.8621667649
 30
0.0
  0
VERTEX
  5
449
100
AcDbEntity
  8
0
100
AcDbVertex
100
AcDb2dVertex
 10
4.0451197415
 20
8.8525947571
 30
0.0
  0
VERTEX
  5
44A
100
AcDbEntity
  8
0
100
AcDbVertex
100
AcDb2dVertex
 10
3.973181464
 20
8.8379889664
 30
0.0
  0
VERTEX
  5
44B
100
AcDbEntity
  8
0
100
AcDbVertex
100
AcDb2dVertex
 10
3.9043124101
 20
8.8185957054
 30
0.0
  0
VERTEX
  5
44C
100
AcDbEntity
  8
0
100
AcDbVertex
100
AcDb2dVertex
 10
3.8410985746
 20
8.7952938694
 30
0.0
  0
VERTEX
  5
44D
100
AcDbEntity
  8
0
100
AcDbVertex
100
AcDb2dVertex
 10
3.7819511024
 20
8.7678272917
 30
0.0
  0
VERTEX
  5
44E
100
AcDbEntity
  8
0
100
AcDbVertex
100
AcDb2dVertex
 10
3.7279190602
 20
8.7366727985
 30
0.0
  0
SEQEND
  5
44F
100
AcDbEntity
  8
0
  0
LINE
  5
450
100
AcDbEntity
  8
0
  6
CONTINUOUS
 62
         7
100
AcDbLine
 10
7.8524425946
 20
10.3173737932
 30
0.0
 11
7.8524425946
 21
10.3000859132
 31
0.0
  0
POLYLINE
  5
451
100
AcDbEntity
  8
0
  6
CONTINUOUS
 62
         7
100
AcDb2dPolyline
 66
         1
 10
0.0
 20
0.0
 30
0.0
 70
       128
  0
VERTEX
  5
452
100
AcDbEntity
  8
0
100
AcDbVertex
100
AcDb2dVertex
 10
5.7963198302
 20
8.3789604013
 30
0.0
  0
VERTEX
  5
453
100
AcDbEntity
  8
0
100
AcDbVertex
100
AcDb2dVertex
 10
5.9244343322
 20
8.456535063
 30
0.0
  0
VERTEX
  5
454
100
AcDbEntity
  8
0
100
AcDbVertex
100
AcDb2dVertex
 10
6.0494186227
 20
8.5345782035
 30
0.0
  0
VERTEX
  5
455
100
AcDbEntity
  8
0
100
AcDbVertex
100
AcDb2dVertex
 10
6.171079596
 20
8.613058409
 30
0.0
  0
VERTEX
  5
456
100
AcDbEntity
  8
0
100
AcDbVertex
100
AcDb2dVertex
 10
6.2899832525
 20
8.6924590167
 30
0.0
  0
VERTEX
  5
457
100
AcDbEntity
  8
0
100
AcDbVertex
100
AcDb2dVertex
 10
6.4052475511
 20
8.7723117058
 30
0.0
  0
VERTEX
  5
458
100
AcDbEntity
  8
0
100
AcDbVertex
100
AcDb2dVertex
 10
6.5166707649
 20
8.8525769899
 30
0.0
  0
VERTEX
  5
459
100
AcDbEntity
  8
0
100
AcDbVertex
100
AcDb2dVertex
 10
6.6234903375
 20
8.9327861424
 30
0.0
  0
VERTEX
  5
45A
100
AcDbEntity
  8
0
100
AcDbVertex
100
AcDb2dVertex
 10
6.7263392729
 20
9.0133686338
 30
0.0
  0
VERTEX
  5
45B
100
AcDbEntity
  8
0
100
AcDbVertex
100
AcDb2dVertex
 10
6.8251906007
 20
9.094221704
 30
0.0
  0
VERTEX
  5
45C
100
AcDbEntity
  8
0
100
AcDbVertex
100
AcDb2dVertex
 10
6.9206714726
 20
9.1757933837
 30
0.0
  0
VERTEX
  5
45D
100
AcDbEntity
  8
0
100
AcDbVertex
100
AcDb2dVertex
 10
7.01221402
 20
9.2575219264
 30
0.0
  0
VERTEX
  5
45E
100
AcDbEntity
  8
0
100
AcDbVertex
100
AcDb2dVertex
 10
7.0998291563
 20
9.3393199987
 30
0.0
  0
VERTEX
  5
45F
100
AcDbEntity
  8
0
100
AcDbVertex
100
AcDb2dVertex
 10
7.197706801
 20
9.4353344753
 30
0.0
  0
VERTEX
  5
460
100
AcDbEntity
  8
0
100
AcDbVertex
100
AcDb2dVertex
 10
7.2903436308
 20
9.531366797
 30
0.0
  0
VERTEX
  5
461
100
AcDbEntity
  8
0
100
AcDbVertex
100
AcDb2dVertex
 10
7.3777345474
 20
9.6273333884
 30
0.0
  0
VERTEX
  5
462
100
AcDbEntity
  8
0
100
AcDbVertex
100
AcDb2dVertex
 10
7.4598744527
 20
9.7231506741
 30
0.0
  0
VERTEX
  5
463
100
AcDbEntity
  8
0
100
AcDbVertex
100
AcDb2dVertex
 10
7.5367582483
 20
9.8187350787
 30
0.0
  0
VERTEX
  5
464
100
AcDbEntity
  8
0
100
AcDbVertex
100
AcDb2dVertex
 10
7.6095781771
 20
9.9157268597
 30
0.0
  0
VERTEX
  5
465
100
AcDbEntity
  8
0
100
AcDbVertex
100
AcDb2dVertex
 10
7.6772145564
 20
10.0124749287
 30
0.0
  0
VERTEX
  5
466
100
AcDbEntity
  8
0
100
AcDbVertex
100
AcDb2dVertex
 10
7.740009406
 20
10.1088621907
 30
0.0
  0
VERTEX
  5
467
100
AcDbEntity
  8
0
100
AcDbVertex
100
AcDb2dVertex
 10
7.7983047455
 20
10.2047715505
 30
0.0
  0
VERTEX
  5
468
100
AcDbEntity
  8
0
100
AcDbVertex
100
AcDb2dVertex
 10
7.8524425946
 20
10.3000859132
 30
0.0
  0
SEQEND
  5
469
100
AcDbEntity
  8
0
  0
LINE
  5
46A
100
AcDbEntity
  8
0
  6
CONTINUOUS
 62
         7
100
AcDbLine
 10
1.8315765241
 20
7.4040626436
 30
0.0
 11
2.5976088704
 21
6.9618415831
 31
0.0
  0
LINE
  5
46B
100
AcDbEntity
  8
0
  6
CONTINUOUS
 62
         7
100
AcDbLine
 10
2.5976088704
 20
6.9618415831
 30
0.0
 11
3.2310586952
 21
7.3275243832
 31
0.0
  0
LINE
  5
46C
100
AcDbEntity
  8
0
  6
CONTINUOUS
 62
         7
100
AcDbLine
 10
3.2310586952
 20
7.3275243832
 30
0.0
 11
2.465026349
 21
7.7697454437
 31
0.0
  0
LINE
  5
46D
100
AcDbEntity
  8
0
  6
CONTINUOUS
 62
         7
100
AcDbLine
 10
2.465026349
 20
7.7697454437
 30
0.0
 11
1.8315765241
 21
7.4040626436
 31
0.0
  0
LINE
  5
46E
100
AcDbEntity
  8
0
  6
CONTINUOUS
 62
         7
100
AcDbLine
 10
2.465026349
 20
7.7527341768
 30
0.0
 11
2.465026349
 21
7.7697454437
 31
0.0
  0
LINE
  5
46F
100
AcDbEntity
  8
0
  6
CONTINUOUS
 62
         7
100
AcDbLine
 10
3.2163249095
 20
7.3190187497
 30
0.0
 11
2.465026349
 21
7.7527341768
 31
0.0
  0
LINE
  5
470
100
AcDbEntity
  8
0
  6
CONTINUOUS
 62
         7
100
AcDbLine
 10
2.465026349
 20
7.7527341768
 30
0.0
 11
1.8463103099
 21
7.3955570102
 31
0.0
  0
LINE
  5
471
100
AcDbEntity
  8
0
  6
CONTINUOUS
 62
         7
100
AcDbLine
 10
1.6400684376
 20
7.3955583925
 30
0.0
 11
2.5828774792
 21
6.8512863179
 31
0.0
  0
LINE
  5
472
100
AcDbEntity
  8
0
  6
CONTINUOUS
 62
         7
100
AcDbLine
 10
1.6400684376
 20
7.3955583925
 30
0.0
 11
1.6400684376
 21
7.4125696594
 31
0.0
  0
LINE
  5
473
100
AcDbEntity
  8
0
  6
CONTINUOUS
 62
         7
100
AcDbLine
 10
1.6400684376
 20
7.4125696594
 30
0.0
 11
2.5828553634
 21
6.868310352
 31
0.0
  0
LINE
  5
474
100
AcDbEntity
  8
0
  6
CONTINUOUS
 62
         7
100
AcDbLine
 10
3.3638104543
 20
7.3699507048
 30
0.0
 11
2.465026349
 21
7.8888077246
 31
0.0
  0
LINE
  5
475
100
AcDbEntity
  8
0
  6
CONTINUOUS
 62
         7
100
AcDbLine
 10
2.465026349
 20
7.8888077246
 30
0.0
 11
1.6400684376
 21
7.4125696594
 31
0.0
  0
LINE
  5
476
100
AcDbEntity
  8
0
  6
CONTINUOUS
 62
         7
100
AcDbLine
 10
1.772650959
 20
7.4210739106
 30
0.0
 11
2.5976088704
 21
6.9448358453
 31
0.0
  0
LINE
  5
477
100
AcDbEntity
  8
0
  6
CONTINUOUS
 62
         7
100
AcDbLine
 10
2.5976088704
 20
6.9448358453
 30
0.0
 11
3.2899842603
 21
7.3445356501
 31
0.0
  0
LINE
  5
478
100
AcDbEntity
  8
0
  6
CONTINUOUS
 62
         7
100
AcDbLine
 10
3.2899842603
 20
7.3445356501
 30
0.0
 11
2.465026349
 21
7.8207737153
 31
0.0
  0
LINE
  5
479
100
AcDbEntity
  8
0
  6
CONTINUOUS
 62
         7
100
AcDbLine
 10
2.465026349
 20
7.8207737153
 30
0.0
 11
1.772650959
 21
7.4210739106
 31
0.0
  0
LINE
  5
47A
100
AcDbEntity
  8
0
  6
CONTINUOUS
 62
         7
100
AcDbLine
 10
2.465026349
 20
7.8037624484
 30
0.0
 11
2.465026349
 21
7.8207737153
 31
0.0
  0
LINE
  5
47B
100
AcDbEntity
  8
0
  6
CONTINUOUS
 62
         7
100
AcDbLine
 10
3.2752504746
 20
7.3360300166
 30
0.0
 11
2.465026349
 21
7.8037624484
 31
0.0
  0
LINE
  5
47C
100
AcDbEntity
  8
0
  6
CONTINUOUS
 62
         7
100
AcDbLine
 10
2.465026349
 20
7.8037624484
 30
0.0
 11
1.7873847448
 21
7.4125682771
 31
0.0
  0
LINE
  5
47D
100
AcDbEntity
  8
0
  6
CONTINUOUS
 62
         7
100
AcDbLine
 10
2.1114729584
 20
6.5805309134
 30
0.0
 11
1.2515318849
 21
7.4984797958
 31
0.0
  0
LINE
  5
47E
100
AcDbEntity
  8
0
  6
CONTINUOUS
 62
         7
100
AcDbLine
 10
2.1057169452
 20
6.5681948353
 30
0.0
 11
1.2457758718
 21
7.4861437177
 31
0.0
  0
LINE
  5
47F
100
AcDbEntity
  8
0
  6
CONTINUOUS
 62
         7
100
AcDbLine
 10
1.2515318849
 20
7.4984797958
 30
0.0
 11
1.2457758718
 21
7.4861437177
 31
0.0
  0
LINE
  5
480
100
AcDbEntity
  8
0
  6
CONTINUOUS
 62
         7
100
AcDbLine
 10
2.1114729584
 20
6.5805309134
 30
0.0
 11
2.1057169452
 21
6.5681948353
 31
0.0
  0
LINE
  5
481
100
AcDbEntity
  8
0
  6
CONTINUOUS
 62
         7
100
AcDbLine
 10
2.11379893
 20
6.5728604658
 30
0.0
 11
2.1057169452
 21
6.5681948353
 31
0.0
  0
LINE
  5
482
100
AcDbEntity
  8
0
  6
CONTINUOUS
 62
         7
100
AcDbLine
 10
2.4656156046
 20
7.7360520216
 30
0.0
 11
2.465026349
 21
7.7357118516
 31
0.0
  0
LINE
  5
483
100
AcDbEntity
  8
0
  6
CONTINUOUS
 62
         7
100
AcDbLine
 10
2.465026349
 20
7.5115136431
 30
0.0
 11
2.465026349
 21
7.7357118516
 31
0.0
  0
LINE
  5
484
100
AcDbEntity
  8
0
  6
CONTINUOUS
 62
         7
100
AcDbLine
 10
2.465026349
 20
7.5115136431
 30
0.0
 11
2.0552360575
 21
7.2749467433
 31
0.0
  0
LINE
  5
485
100
AcDbEntity
  8
0
  6
CONTINUOUS
 62
         7
100
AcDbLine
 10
4.5557053987
 20
8.4761434012
 30
0.0
 11
3.0016631384
 21
7.5790139002
 31
0.0
  0
LINE
  5
486
100
AcDbEntity
  8
0
  6
CONTINUOUS
 62
         7
100
AcDbLine
 10
2.6129295174
 20
7.3546027576
 30
0.0
 11
2.6123402617
 21
7.3542625875
 31
0.0
  0
LINE
  5
487
100
AcDbEntity
  8
0
  6
CONTINUOUS
 62
         7
100
AcDbLine
 10
2.6123402617
 20
7.3542625875
 30
0.0
 11
2.6123402617
 21
7.5521376443
 31
0.0
  0
LINE
  5
488
100
AcDbEntity
  8
0
  6
CONTINUOUS
 62
         7
100
AcDbLine
 10
2.6123402617
 20
7.5521376443
 30
0.0
 11
2.6129295174
 21
7.5524778143
 31
0.0
  0
LINE
  5
489
100
AcDbEntity
  8
0
  6
CONTINUOUS
 62
         7
100
AcDbLine
 10
2.65653683
 20
7.7782510772
 30
0.0
 11
4.4845632409
 21
8.8335482616
 31
0.0
  0
LINE
  5
48A
100
AcDbEntity
  8
0
  6
CONTINUOUS
 62
         7
100
AcDbLine
 10
4.7190743129
 20
8.5710789302
 30
0.0
 11
4.8162350826
 21
8.6286938466
 31
0.0
  0
LINE
  5
48B
100
AcDbEntity
  8
0
  6
CONTINUOUS
 62
         7
100
AcDbLine
 10
4.5574731656
 20
8.6800086957
 30
0.0
 11
4.5557053987
 21
8.6789881856
 31
0.0
  0
LINE
  5
48C
100
AcDbEntity
  8
0
  6
CONTINUOUS
 62
         7
100
AcDbLine
 10
4.5557053987
 20
8.6789881856
 30
0.0
 11
4.5557053987
 21
8.4761434012
 31
0.0
  0
LINE
  5
48D
100
AcDbEntity
  8
0
  6
CONTINUOUS
 62
         7
100
AcDbLine
 10
4.442201442
 20
8.8431103203
 30
0.0
 11
2.6270740474
 21
7.7952595795
 31
0.0
  0
LINE
  5
48E
100
AcDbEntity
  8
0
  6
CONTINUOUS
 62
         7
100
AcDbLine
 10
2.6123402617
 20
7.5521376443
 30
0.0
 11
2.5828774792
 21
7.5691461466
 31
0.0
  0
LINE
  5
48F
100
AcDbEntity
  8
0
  6
CONTINUOUS
 62
         7
100
AcDbLine
 10
2.5828774792
 20
7.5691461466
 30
0.0
 11
2.5834668306
 21
7.5694863719
 31
0.0
  0
LINE
  5
490
100
AcDbEntity
  8
0
  6
CONTINUOUS
 62
         7
100
AcDbLine
 10
2.5828774792
 20
7.3857127986
 30
0.0
 11
2.6123402617
 21
7.3542625875
 31
0.0
  0
LINE
  5
491
100
AcDbEntity
  8
0
  6
CONTINUOUS
 62
         7
100
AcDbLine
 10
2.5828774792
 20
7.5691461466
 30
0.0
 11
2.5828774792
 21
7.3857127986
 31
0.0
  0
LINE
  5
492
100
AcDbEntity
  8
0
  6
CONTINUOUS
 62
         7
100
AcDbLine
 10
4.7542156385
 20
8.2748581794
 30
0.0
 11
3.2752552635
 21
7.4210725283
 31
0.0
  0
LINE
  5
493
100
AcDbEntity
  8
0
  6
CONTINUOUS
 62
         7
100
AcDbLine
 10
3.245792481
 20
7.4380810306
 30
0.0
 11
4.8116053105
 21
8.3420055365
 31
0.0
  0
LINE
  5
494
100
AcDbEntity
  8
0
  6
PHANTOM
 62
         7
100
AcDbLine
 10
5.0934972349
 20
7.9653795127
 30
0.0
 11
5.0934972349
 21
7.9483412983
 31
0.0
  0
LINE
  5
495
100
AcDbEntity
  8
0
  6
PHANTOM
 62
         7
100
AcDbLine
 10
4.669899512
 20
8.2089067258
 30
0.0
 11
5.0926645613
 21
7.9648496577
 31
0.0
  0
LINE
  5
496
100
AcDbEntity
  8
0
  6
PHANTOM
 62
         7
100
AcDbLine
 10
3.7279190602
 20
8.7366727985
 30
0.0
 11
3.7270904704
 21
8.7531788003
 31
0.0
  0
LINE
  5
497
100
AcDbEntity
  8
0
  6
PHANTOM
 62
         7
100
AcDbLine
 10
3.304325134
 20
8.9972360342
 30
0.0
 11
3.7270904704
 21
8.7531788003
 31
0.0
  0
LINE
  5
498
100
AcDbEntity
  8
0
  6
CONTINUOUS
 62
         7
100
AcDbLine
 10
3.4017005481
 20
2.0504367669
 30
0.0
 11
0.8777143509
 21
2.0504367669
 31
0.0
  0
LINE
  5
499
100
AcDbEntity
  8
0
  6
CONTINUOUS
 62
         7
100
AcDbLine
 10
0.9105273022
 20
1.8285067963
 30
0.0
 11
0.9235344322
 21
1.6798346203
 31
0.0
  0
LINE
  5
49A
100
AcDbEntity
  8
0
  6
CONTINUOUS
 62
         7
100
AcDbLine
 10
3.3556943457
 20
1.6798346203
 30
0.0
 11
3.3687014756
 21
1.8285067963
 31
0.0
  0
LINE
  5
49B
100
AcDbEntity
  8
0
  6
CONTINUOUS
 62
         7
100
AcDbLine
 10
2.1396143889
 20
1.1636393042
 30
0.0
 11
3.3556943457
 21
1.6798346203
 31
0.0
  0
LINE
  5
49C
100
AcDbEntity
  8
0
  6
CONTINUOUS
 62
         7
100
AcDbLine
 10
0.9235344322
 20
1.6798346203
 30
0.0
 11
2.1396143889
 21
1.1636393042
 31
0.0
  0
LINE
  5
49D
100
AcDbEntity
  8
0
  6
CONTINUOUS
 62
         7
100
AcDbLine
 10
3.3687014756
 20
1.8285067963
 30
0.0
 11
0.9105273022
 21
1.8285067963
 31
0.0
  0
LINE
  5
49E
100
AcDbEntity
  8
0
  6
CONTINUOUS
 62
         7
100
AcDbLine
 10
2.1477546208
 20
1.1444621197
 30
0.0
 11
3.3638949497
 21
1.6606830623
 31
0.0
  0
LINE
  5
49F
100
AcDbEntity
  8
0
  6
CONTINUOUS
 62
         7
100
AcDbLine
 10
2.1396143889
 20
1.1636393042
 30
0.0
 11
3.3557547178
 21
1.6798602468
 31
0.0
  0
LINE
  5
4A0
100
AcDbEntity
  8
0
  6
CONTINUOUS
 62
         7
100
AcDbLine
 10
2.1396143889
 20
1.1636393042
 30
0.0
 11
2.1477546208
 21
1.1444621197
 31
0.0
  0
LINE
  5
4A1
100
AcDbEntity
  8
0
  6
CONTINUOUS
 62
         7
100
AcDbLine
 10
3.3557547178
 20
1.6798602468
 30
0.0
 11
3.3638949497
 21
1.6606830623
 31
0.0
  0
LINE
  5
4A2
100
AcDbEntity
  8
0
  6
CONTINUOUS
 62
         7
100
AcDbLine
 10
3.3687014756
 20
1.8285067963
 30
0.0
 11
3.351822143
 21
1.6355751416
 31
0.0
  0
LINE
  5
4A3
100
AcDbEntity
  8
0
  6
CONTINUOUS
 62
         7
100
AcDbLine
 10
3.351822143
 20
1.6355813874
 30
0.0
 11
3.351822143
 21
1.6355751416
 31
0.0
  0
LINE
  5
4A4
100
AcDbEntity
  8
0
  6
CONTINUOUS
 62
         7
100
AcDbLine
 10
3.3536373201
 20
1.6563289569
 30
0.0
 11
3.351822143
 21
1.6355813874
 31
0.0
  0
LINE
  5
4A5
100
AcDbEntity
  8
0
  6
CONTINUOUS
 62
         7
100
AcDbLine
 10
3.3687014756
 20
1.8285067963
 30
0.0
 11
3.3896143889
 21
1.8285067963
 31
0.0
  0
LINE
  5
4A6
100
AcDbEntity
  8
0
  6
CONTINUOUS
 62
         7
100
AcDbLine
 10
3.3896143889
 20
1.8285067963
 30
0.0
 11
3.4041668974
 21
1.9948474066
 31
0.0
  0
LINE
  5
4A7
100
AcDbEntity
  8
0
  6
CONTINUOUS
 62
         7
100
AcDbLine
 10
3.351822143
 20
1.6355751416
 30
0.0
 11
3.3725761992
 21
1.633759397
 31
0.0
  0
LINE
  5
4A8
100
AcDbEntity
  8
0
  6
CONTINUOUS
 62
         7
100
AcDbLine
 10
3.3725761992
 20
1.633759397
 30
0.0
 11
3.3896143889
 21
1.8285067963
 31
0.0
  0
POLYLINE
  5
4A9
100
AcDbEntity
  8
0
  6
CONTINUOUS
 62
         7
100
AcDb2dPolyline
 66
         1
 10
0.0
 20
0.0
 30
0.0
 70
       128
  0
VERTEX
  5
4AA
100
AcDbEntity
  8
0
100
AcDbVertex
100
AcDb2dVertex
 10
2.7176138527
 20
1.8493401297
 30
0.0
  0
VERTEX
  5
4AB
100
AcDbEntity
  8
0
100
AcDbVertex
100
AcDb2dVertex
 10
2.777054151
 20
1.8666064782
 30
0.0
  0
VERTEX
  5
4AC
100
AcDbEntity
  8
0
100
AcDbVertex
100
AcDb2dVertex
 10
2.8062810557
 20
1.8750592715
 30
0.0
  0
SEQEND
  5
4AD
100
AcDbEntity
  8
0
  0
POLYLINE
  5
4AE
100
AcDbEntity
  8
0
  6
CONTINUOUS
 62
         7
100
AcDb2dPolyline
 66
         1
 10
0.0
 20
0.0
 30
0.0
 70
       128
  0
VERTEX
  5
4AF
100
AcDbEntity
  8
0
100
AcDbVertex
100
AcDb2dVertex
 10
3.4041668974
 20
1.9948474066
 30
0.0
  0
VERTEX
  5
4B0
100
AcDbEntity
  8
0
100
AcDbVertex
100
AcDb2dVertex
 10
3.406117524
 20
2.017143955
 30
0.0
  0
VERTEX
  5
4B1
100
AcDbEntity
  8
0
100
AcDbVertex
100
AcDb2dVertex
 10
3.4070890368
 20
2.0282491824
 30
0.0
  0
SEQEND
  5
4B2
100
AcDbEntity
  8
0
  0
POLYLINE
  5
4B3
100
AcDbEntity
  8
0
  6
CONTINUOUS
 62
         7
100
AcDb2dPolyline
 66
         1
 10
0.0
 20
0.0
 30
0.0
 70
       128
  0
VERTEX
  5
4B4
100
AcDbEntity
  8
0
100
AcDbVertex
100
AcDb2dVertex
 10
3.351822143
 20
1.6355813874
 30
0.0
  0
VERTEX
  5
4B5
100
AcDbEntity
  8
0
100
AcDbVertex
100
AcDb2dVertex
 10
3.3471151576
 20
1.6355816994
 30
0.0
  0
VERTEX
  5
4B6
100
AcDbEntity
  8
0
100
AcDbVertex
100
AcDb2dVertex
 10
3.3358562781
 20
1.6355819422
 30
0.0
  0
VERTEX
  5
4B7
100
AcDbEntity
  8
0
100
AcDbVertex
100
AcDb2dVertex
 10
3.3178829681
 20
1.6355821137
 30
0.0
  0
VERTEX
  5
4B8
100
AcDbEntity
  8
0
100
AcDbVertex
100
AcDb2dVertex
 10
3.3047609424
 20
1.6355821655
 30
0.0
  0
SEQEND
  5
4B9
100
AcDbEntity
  8
0
  0
POLYLINE
  5
4BA
100
AcDbEntity
  8
0
  6
CONTINUOUS
 62
         7
100
AcDb2dPolyline
 66
         1
 10
0.0
 20
0.0
 30
0.0
 70
       128
  0
VERTEX
  5
4BB
100
AcDbEntity
  8
0
100
AcDbVertex
100
AcDb2dVertex
 10
3.3725046669
 20
1.6337656552
 30
0.0
  0
VERTEX
  5
4BC
100
AcDbEntity
  8
0
100
AcDbVertex
100
AcDb2dVertex
 10
3.3721965289
 20
1.633765709
 30
0.0
  0
VERTEX
  5
4BD
100
AcDbEntity
  8
0
100
AcDbVertex
100
AcDb2dVertex
 10
3.370790862
 20
1.6337658416
 30
0.0
  0
VERTEX
  5
4BE
100
AcDbEntity
  8
0
100
AcDbVertex
100
AcDb2dVertex
 10
3.3685173606
 20
1.6337659742
 30
0.0
  0
VERTEX
  5
4BF
100
AcDbEntity
  8
0
100
AcDbVertex
100
AcDb2dVertex
 10
3.3653686043
 20
1.6337661067
 30
0.0
  0
VERTEX
  5
4C0
100
AcDbEntity
  8
0
100
AcDbVertex
100
AcDb2dVertex
 10
3.3613370336
 20
1.6337662391
 30
0.0
  0
VERTEX
  5
4C1
100
AcDbEntity
  8
0
100
AcDbVertex
100
AcDb2dVertex
 10
3.356414961
 20
1.6337663715
 30
0.0
  0
VERTEX
  5
4C2
100
AcDbEntity
  8
0
100
AcDbVertex
100
AcDb2dVertex
 10
3.3505945824
 20
1.6337665038
 30
0.0
  0
VERTEX
  5
4C3
100
AcDbEntity
  8
0
100
AcDbVertex
100
AcDb2dVertex
 10
3.3438679897
 20
1.633766636
 30
0.0
  0
VERTEX
  5
4C4
100
AcDbEntity
  8
0
100
AcDbVertex
100
AcDb2dVertex
 10
3.3362271841
 20
1.633766768
 30
0.0
  0
VERTEX
  5
4C5
100
AcDbEntity
  8
0
100
AcDbVertex
100
AcDb2dVertex
 10
3.3276640898
 20
1.6337668999
 30
0.0
  0
VERTEX
  5
4C6
100
AcDbEntity
  8
0
100
AcDbVertex
100
AcDb2dVertex
 10
3.3181705699
 20
1.6337670317
 30
0.0
  0
VERTEX
  5
4C7
100
AcDbEntity
  8
0
100
AcDbVertex
100
AcDb2dVertex
 10
3.3077384416
 20
1.6337671632
 30
0.0
  0
VERTEX
  5
4C8
100
AcDbEntity
  8
0
100
AcDbVertex
100
AcDb2dVertex
 10
3.3004852624
 20
1.633767247
 30
0.0
  0
SEQEND
  5
4C9
100
AcDbEntity
  8
0
  0
LINE
  5
4CA
100
AcDbEntity
  8
0
  6
CONTINUOUS
 62
         7
100
AcDbLine
 10
0.9105273022
 20
1.8285067963
 30
0.0
 11
0.9274066348
 21
1.6355751416
 31
0.0
  0
LINE
  5
4CB
100
AcDbEntity
  8
0
  6
CONTINUOUS
 62
         7
100
AcDbLine
 10
0.9274066348
 20
1.6355751416
 30
0.0
 11
0.9066525786
 21
1.633759397
 31
0.0
  0
LINE
  5
4CC
100
AcDbEntity
  8
0
  6
CONTINUOUS
 62
         7
100
AcDbLine
 10
0.9105273022
 20
1.8285067963
 30
0.0
 11
0.8896143889
 21
1.8285067963
 31
0.0
  0
LINE
  5
4CD
100
AcDbEntity
  8
0
  6
CONTINUOUS
 62
         7
100
AcDbLine
 10
0.9066525786
 20
1.633759397
 30
0.0
 11
0.8896143889
 21
1.8285067963
 31
0.0
  0
LINE
  5
4CE
100
AcDbEntity
  8
0
  6
CONTINUOUS
 62
         7
100
AcDbLine
 10
0.8896143889
 20
1.8285067963
 30
0.0
 11
0.8750614744
 21
1.994847371
 31
0.0
  0
POLYLINE
  5
4CF
100
AcDbEntity
  8
0
  6
CONTINUOUS
 62
         7
100
AcDb2dPolyline
 66
         1
 10
0.0
 20
0.0
 30
0.0
 70
       128
  0
VERTEX
  5
4D0
100
AcDbEntity
  8
0
100
AcDbVertex
100
AcDb2dVertex
 10
1.5616136739
 20
1.8493401297
 30
0.0
  0
VERTEX
  5
4D1
100
AcDbEntity
  8
0
100
AcDbVertex
100
AcDb2dVertex
 10
1.5021736837
 20
1.8666063957
 30
0.0
  0
VERTEX
  5
4D2
100
AcDbEntity
  8
0
100
AcDbVertex
100
AcDb2dVertex
 10
1.4729477223
 20
1.87505892
 30
0.0
  0
SEQEND
  5
4D3
100
AcDbEntity
  8
0
  0
LINE
  5
4D4
100
AcDbEntity
  8
0
  6
CONTINUOUS
 62
         7
100
AcDbLine
 10
0.8750614744
 20
1.994847371
 30
0.0
 11
0.8721391987
 21
2.028249135
 31
0.0
  0
POLYLINE
  5
4D5
100
AcDbEntity
  8
0
  6
CONTINUOUS
 62
         7
100
AcDb2dPolyline
 66
         1
 10
0.0
 20
0.0
 30
0.0
 70
       128
  0
VERTEX
  5
4D6
100
AcDbEntity
  8
0
100
AcDbVertex
100
AcDb2dVertex
 10
0.9274060925
 20
1.6355813399
 30
0.0
  0
VERTEX
  5
4D7
100
AcDbEntity
  8
0
100
AcDbVertex
100
AcDb2dVertex
 10
0.9321130465
 20
1.6355816492
 30
0.0
  0
VERTEX
  5
4D8
100
AcDbEntity
  8
0
100
AcDbVertex
100
AcDb2dVertex
 10
0.9433718946
 20
1.6355818893
 30
0.0
  0
VERTEX
  5
4D9
100
AcDbEntity
  8
0
100
AcDbVertex
100
AcDb2dVertex
 10
0.9613451733
 20
1.635582058
 30
0.0
  0
VERTEX
  5
4DA
100
AcDbEntity
  8
0
100
AcDbVertex
100
AcDb2dVertex
 10
0.97446797
 20
1.6355821083
 30
0.0
  0
SEQEND
  5
4DB
100
AcDbEntity
  8
0
  0
POLYLINE
  5
4DC
100
AcDbEntity
  8
0
  6
CONTINUOUS
 62
         7
100
AcDb2dPolyline
 66
         1
 10
0.0
 20
0.0
 30
0.0
 70
       128
  0
VERTEX
  5
4DD
100
AcDbEntity
  8
0
100
AcDbVertex
100
AcDb2dVertex
 10
0.9067235675
 20
1.6337656077
 30
0.0
  0
VERTEX
  5
4DE
100
AcDbEntity
  8
0
100
AcDbVertex
100
AcDb2dVertex
 10
0.9070317008
 20
1.6337656611
 30
0.0
  0
VERTEX
  5
4DF
100
AcDbEntity
  8
0
100
AcDbVertex
100
AcDb2dVertex
 10
0.9084373562
 20
1.6337657927
 30
0.0
  0
VERTEX
  5
4E0
100
AcDbEntity
  8
0
100
AcDbVertex
100
AcDb2dVertex
 10
0.9107108461
 20
1.6337659242
 30
0.0
  0
VERTEX
  5
4E1
100
AcDbEntity
  8
0
100
AcDbVertex
100
AcDb2dVertex
 10
0.9138595909
 20
1.6337660557
 30
0.0
  0
VERTEX
  5
4E2
100
AcDbEntity
  8
0
100
AcDbVertex
100
AcDb2dVertex
 10
0.9178911501
 20
1.6337661872
 30
0.0
  0
VERTEX
  5
4E3
100
AcDbEntity
  8
0
100
AcDbVertex
100
AcDb2dVertex
 10
0.9228132113
 20
1.6337663185
 30
0.0
  0
VERTEX
  5
4E4
100
AcDbEntity
  8
0
100
AcDbVertex
100
AcDb2dVertex
 10
0.9286335783
 20
1.6337664498
 30
0.0
  0
VERTEX
  5
4E5
100
AcDbEntity
  8
0
100
AcDbVertex
100
AcDb2dVertex
 10
0.9353601595
 20
1.633766581
 30
0.0
  0
VERTEX
  5
4E6
100
AcDbEntity
  8
0
100
AcDbVertex
100
AcDb2dVertex
 10
0.9430009537
 20
1.633766712
 30
0.0
  0
VERTEX
  5
4E7
100
AcDbEntity
  8
0
100
AcDbVertex
100
AcDb2dVertex
 10
0.9515640365
 20
1.6337668429
 30
0.0
  0
VERTEX
  5
4E8
100
AcDbEntity
  8
0
100
AcDbVertex
100
AcDb2dVertex
 10
0.961057545
 20
1.6337669737
 30
0.0
  0
VERTEX
  5
4E9
100
AcDbEntity
  8
0
100
AcDbVertex
100
AcDb2dVertex
 10
0.9714896619
 20
1.6337671042
 30
0.0
  0
VERTEX
  5
4EA
100
AcDbEntity
  8
0
100
AcDbVertex
100
AcDb2dVertex
 10
0.9787436559
 20
1.6337671873
 30
0.0
  0
SEQEND
  5
4EB
100
AcDbEntity
  8
0
  0
LINE
  5
4EC
100
AcDbEntity
  8
0
  6
CONTINUOUS
 62
         7
100
AcDbLine
 10
1.4729477223
 20
1.8285067963
 30
0.0
 11
0.8896143889
 21
1.8285067963
 31
0.0
  0
LINE
  5
4ED
100
AcDbEntity
  8
0
  6
CONTINUOUS
 62
         7
100
AcDbLine
 10
0.8896143889
 20
1.8285067963
 30
0.0
 11
0.8896201644
 21
1.8493071486
 31
0.0
  0
LINE
  5
4EE
100
AcDbEntity
  8
0
  6
CONTINUOUS
 62
         7
100
AcDbLine
 10
0.8896201644
 20
1.8493071486
 30
0.0
 11
1.4729477223
 21
1.8493071486
 31
0.0
  0
LINE
  5
4EF
100
AcDbEntity
  8
0
  6
CONTINUOUS
 62
         7
100
AcDbLine
 10
1.4729477223
 20
1.8285067963
 30
0.0
 11
1.4729477223
 21
1.8493071486
 31
0.0
  0
LINE
  5
4F0
100
AcDbEntity
  8
0
  6
CONTINUOUS
 62
         7
100
AcDbLine
 10
0.8750672498
 20
2.0156477589
 30
0.0
 11
0.8896201644
 21
1.8493071486
 31
0.0
  0
LINE
  5
4F1
100
AcDbEntity
  8
0
  6
CONTINUOUS
 62
         7
100
AcDbLine
 10
1.4729477223
 20
2.0156477589
 30
0.0
 11
1.4729477223
 21
1.8493071486
 31
0.0
  0
LINE
  5
4F2
100
AcDbEntity
  8
0
  6
CONTINUOUS
 62
         7
100
AcDbLine
 10
3.4041668974
 20
1.9948474066
 30
0.0
 11
3.3896143889
 21
1.8285067963
 31
0.0
  0
LINE
  5
4F3
100
AcDbEntity
  8
0
  6
CONTINUOUS
 62
         7
100
AcDbLine
 10
3.3896086136
 20
1.8493071486
 30
0.0
 11
3.3896143889
 21
1.8285067963
 31
0.0
  0
LINE
  5
4F4
100
AcDbEntity
  8
0
  6
CONTINUOUS
 62
         7
100
AcDbLine
 10
3.3896086136
 20
1.8493071486
 30
0.0
 11
3.4041611221
 21
2.0156477589
 31
0.0
  0
LINE
  5
4F5
100
AcDbEntity
  8
0
  6
CONTINUOUS
 62
         7
100
AcDbLine
 10
3.4041668974
 20
2.0157137418
 30
0.0
 11
3.4041611221
 21
2.0156477589
 31
0.0
  0
LINE
  5
4F6
100
AcDbEntity
  8
0
  6
CONTINUOUS
 62
         7
100
AcDbLine
 10
0.8896143889
 20
1.8285067963
 30
0.0
 11
0.8750614743
 21
1.9948474066
 31
0.0
  0
LINE
  5
4F7
100
AcDbEntity
  8
0
  6
CONTINUOUS
 62
         7
100
AcDbLine
 10
0.8750672498
 20
2.0156477589
 30
0.0
 11
0.8750614744
 21
2.0157137417
 31
0.0
  0
LINE
  5
4F8
100
AcDbEntity
  8
0
  6
CONTINUOUS
 62
         7
100
AcDbLine
 10
2.8062810557
 20
1.8493071486
 30
0.0
 11
3.3896086136
 21
1.8493071486
 31
0.0
  0
LINE
  5
4F9
100
AcDbEntity
  8
0
  6
CONTINUOUS
 62
         7
100
AcDbLine
 10
2.8062810557
 20
1.8493071486
 30
0.0
 11
2.8062810557
 21
2.0156477589
 31
0.0
  0
LINE
  5
4FA
100
AcDbEntity
  8
0
  6
CONTINUOUS
 62
         7
100
AcDbLine
 10
3.3896143889
 20
1.8285067963
 30
0.0
 11
2.8062810557
 21
1.8285067963
 31
0.0
  0
LINE
  5
4FB
100
AcDbEntity
  8
0
  6
CONTINUOUS
 62
         7
100
AcDbLine
 10
2.8062810557
 20
1.8285067963
 30
0.0
 11
2.8062810557
 21
1.8493071486
 31
0.0
  0
POLYLINE
  5
4FC
100
AcDbEntity
  8
0
  6
CONTINUOUS
 62
         7
100
AcDb2dPolyline
 66
         1
 10
0.0
 20
0.0
 30
0.0
 70
       128
  0
VERTEX
  5
4FD
100
AcDbEntity
  8
0
100
AcDbVertex
100
AcDb2dVertex
 10
2.8062810557
 20
1.9948474066
 30
0.0
  0
VERTEX
  5
4FE
100
AcDbEntity
  8
0
100
AcDbVertex
100
AcDb2dVertex
 10
2.801814213
 20
1.9990459155
 30
0.0
  0
VERTEX
  5
4FF
100
AcDbEntity
  8
0
100
AcDbVertex
100
AcDb2dVertex
 10
2.7889597437
 20
2.0028068063
 30
0.0
  0
VERTEX
  5
500
100
AcDbEntity
  8
0
100
AcDbVertex
100
AcDb2dVertex
 10
2.7678992586
 20
2.0062467778
 30
0.0
  0
VERTEX
  5
501
100
AcDbEntity
  8
0
100
AcDbVertex
100
AcDb2dVertex
 10
2.7390291459
 20
2.0093238981
 30
0.0
  0
VERTEX
  5
502
100
AcDbEntity
  8
0
100
AcDbVertex
100
AcDb2dVertex
 10
2.7025099339
 20
2.0120317674
 30
0.0
  0
VERTEX
  5
503
100
AcDbEntity
  8
0
100
AcDbVertex
100
AcDb2dVertex
 10
2.6587966334
 20
2.0143880915
 30
0.0
  0
VERTEX
  5
504
100
AcDbEntity
  8
0
100
AcDbVertex
100
AcDb2dVertex
 10
2.6087106201
 20
2.0163885744
 30
0.0
  0
VERTEX
  5
505
100
AcDbEntity
  8
0
100
AcDbVertex
100
AcDb2dVertex
 10
2.5526177929
 20
2.0180523213
 30
0.0
  0
VERTEX
  5
506
100
AcDbEntity
  8
0
100
AcDbVertex
100
AcDb2dVertex
 10
2.4911492961
 20
2.0194093211
 30
0.0
  0
VERTEX
  5
507
100
AcDbEntity
  8
0
100
AcDbVertex
100
AcDb2dVertex
 10
2.4254604447
 20
2.0204738009
 30
0.0
  0
VERTEX
  5
508
100
AcDbEntity
  8
0
100
AcDbVertex
100
AcDb2dVertex
 10
2.3561200732
 20
2.0212703647
 30
0.0
  0
VERTEX
  5
509
100
AcDbEntity
  8
0
100
AcDbVertex
100
AcDb2dVertex
 10
2.2838344198
 20
2.0218219051
 30
0.0
  0
VERTEX
  5
50A
100
AcDbEntity
  8
0
100
AcDbVertex
100
AcDb2dVertex
 10
2.2099636919
 20
2.0221400981
 30
0.0
  0
VERTEX
  5
50B
100
AcDbEntity
  8
0
100
AcDbVertex
100
AcDb2dVertex
 10
2.1352239882
 20
2.0222366962
 30
0.0
  0
VERTEX
  5
50C
100
AcDbEntity
  8
0
100
AcDbVertex
100
AcDb2dVertex
 10
2.0603048694
 20
2.0221138389
 30
0.0
  0
VERTEX
  5
50D
100
AcDbEntity
  8
0
100
AcDbVertex
100
AcDb2dVertex
 10
1.98661574
 20
2.0217685368
 30
0.0
  0
VERTEX
  5
50E
100
AcDbEntity
  8
0
100
AcDbVertex
100
AcDb2dVertex
 10
1.9148930445
 20
2.0211904394
 30
0.0
  0
VERTEX
  5
50F
100
AcDbEntity
  8
0
100
AcDbVertex
100
AcDb2dVertex
 10
1.8457729306
 20
2.0203612238
 30
0.0
  0
VERTEX
  5
510
100
AcDbEntity
  8
0
100
AcDbVertex
100
AcDb2dVertex
 10
1.7805538824
 20
2.0192661918
 30
0.0
  0
VERTEX
  5
511
100
AcDbEntity
  8
0
100
AcDbVertex
100
AcDb2dVertex
 10
1.71989568
 20
2.0178769174
 30
0.0
  0
VERTEX
  5
512
100
AcDbEntity
  8
0
100
AcDbVertex
100
AcDb2dVertex
 10
1.6643285451
 20
2.0161689349
 30
0.0
  0
VERTEX
  5
513
100
AcDbEntity
  8
0
100
AcDbVertex
100
AcDb2dVertex
 10
1.6148962698
 20
2.0141323013
 30
0.0
  0
VERTEX
  5
514
100
AcDbEntity
  8
0
100
AcDbVertex
100
AcDb2dVertex
 10
1.5721451013
 20
2.0117374966
 30
0.0
  0
VERTEX
  5
515
100
AcDbEntity
  8
0
100
AcDbVertex
100
AcDb2dVertex
 10
1.5364035239
 20
2.0089741067
 30
0.0
  0
VERTEX
  5
516
100
AcDbEntity
  8
0
100
AcDbVertex
100
AcDb2dVertex
 10
1.5083442236
 20
2.005858717
 30
0.0
  0
VERTEX
  5
517
100
AcDbEntity
  8
0
100
AcDbVertex
100
AcDb2dVertex
 10
1.4888199717
 20
2.0024920474
 30
0.0
  0
VERTEX
  5
518
100
AcDbEntity
  8
0
100
AcDbVertex
100
AcDb2dVertex
 10
1.4769509024
 20
1.9988039607
 30
0.0
  0
VERTEX
  5
519
100
AcDbEntity
  8
0
100
AcDbVertex
100
AcDb2dVertex
 10
1.4729477223
 20
1.9948474066
 30
0.0
  0
SEQEND
  5
51A
100
AcDbEntity
  8
0
  0
POLYLINE
  5
51B
100
AcDbEntity
  8
0
  6
CONTINUOUS
 62
         7
100
AcDb2dPolyline
 66
         1
 10
0.0
 20
0.0
 30
0.0
 70
       128
  0
VERTEX
  5
51C
100
AcDbEntity
  8
0
100
AcDbVertex
100
AcDb2dVertex
 10
1.4729477223
 20
2.0156477589
 30
0.0
  0
VERTEX
  5
51D
100
AcDbEntity
  8
0
100
AcDbVertex
100
AcDb2dVertex
 10
1.4774145976
 20
2.0198464106
 30
0.0
  0
VERTEX
  5
51E
100
AcDbEntity
  8
0
100
AcDbVertex
100
AcDb2dVertex
 10
1.4902691126
 20
2.0236076678
 30
0.0
  0
VERTEX
  5
51F
100
AcDbEntity
  8
0
100
AcDbVertex
100
AcDb2dVertex
 10
1.5113296572
 20
2.0270482206
 30
0.0
  0
VERTEX
  5
520
100
AcDbEntity
  8
0
100
AcDbVertex
100
AcDb2dVertex
 10
1.5401998428
 20
2.0301261047
 30
0.0
  0
VERTEX
  5
521
100
AcDbEntity
  8
0
100
AcDbVertex
100
AcDb2dVertex
 10
1.5767191286
 20
2.0328348887
 30
0.0
  0
VERTEX
  5
522
100
AcDbEntity
  8
0
100
AcDbVertex
100
AcDb2dVertex
 10
1.6204325106
 20
2.0351922318
 30
0.0
  0
VERTEX
  5
523
100
AcDbEntity
  8
0
100
AcDbVertex
100
AcDb2dVertex
 10
1.6705186103
 20
2.0371937811
 30
0.0
  0
VERTEX
  5
524
100
AcDbEntity
  8
0
100
AcDbVertex
100
AcDb2dVertex
 10
1.7266114817
 20
2.0388585911
 30
0.0
  0
VERTEX
  5
525
100
AcDbEntity
  8
0
100
AcDbVertex
100
AcDb2dVertex
 10
1.7880800145
 20
2.0402166022
 30
0.0
  0
VERTEX
  5
526
100
AcDbEntity
  8
0
100
AcDbVertex
100
AcDb2dVertex
 10
1.8537688921
 20
2.0412819846
 30
0.0
  0
VERTEX
  5
527
100
AcDbEntity
  8
0
100
AcDbVertex
100
AcDb2dVertex
 10
1.9231092767
 20
2.0420792953
 30
0.0
  0
VERTEX
  5
528
100
AcDbEntity
  8
0
100
AcDbVertex
100
AcDb2dVertex
 10
1.9953949316
 20
2.0426313964
 30
0.0
  0
VERTEX
  5
529
100
AcDbEntity
  8
0
100
AcDbVertex
100
AcDb2dVertex
 10
2.0692656507
 20
2.0429499324
 30
0.0
  0
VERTEX
  5
52A
100
AcDbEntity
  8
0
100
AcDbVertex
100
AcDb2dVertex
 10
2.1440053932
 20
2.0430466323
 30
0.0
  0
VERTEX
  5
52B
100
AcDbEntity
  8
0
100
AcDbVertex
100
AcDb2dVertex
 10
2.2189245432
 20
2.0429236377
 30
0.0
  0
VERTEX
  5
52C
100
AcDbEntity
  8
0
100
AcDbVertex
100
AcDb2dVertex
 10
2.2926136966
 20
2.042577967
 30
0.0
  0
VERTEX
  5
52D
100
AcDbEntity
  8
0
100
AcDbVertex
100
AcDb2dVertex
 10
2.3643364335
 20
2.0419992797
 30
0.0
  0
VERTEX
  5
52E
100
AcDbEntity
  8
0
100
AcDbVertex
100
AcDb2dVertex
 10
2.4334565782
 20
2.0411692871
 30
0.0
  0
VERTEX
  5
52F
100
AcDbEntity
  8
0
100
AcDbVertex
100
AcDb2dVertex
 10
2.4986756439
 20
2.0400733342
 30
0.0
  0
VERTEX
  5
530
100
AcDbEntity
  8
0
100
AcDbVertex
100
AcDb2dVertex
 10
2.5593338119
 20
2.0386830354
 30
0.0
  0
VERTEX
  5
531
100
AcDbEntity
  8
0
100
AcDbVertex
100
AcDb2dVertex
 10
2.6149009004
 20
2.0369739752
 30
0.0
  0
VERTEX
  5
532
100
AcDbEntity
  8
0
100
AcDbVertex
100
AcDb2dVertex
 10
2.6643331158
 20
2.034936271
 30
0.0
  0
VERTEX
  5
533
100
AcDbEntity
  8
0
100
AcDbVertex
100
AcDb2dVertex
 10
2.7070841853
 20
2.0325404556
 30
0.0
  0
VERTEX
  5
534
100
AcDbEntity
  8
0
100
AcDbVertex
100
AcDb2dVertex
 10
2.7428256587
 20
2.0297761594
 30
0.0
  0
VERTEX
  5
535
100
AcDbEntity
  8
0
100
AcDbVertex
100
AcDb2dVertex
 10
2.770884853
 20
2.0266600188
 30
0.0
  0
VERTEX
  5
536
100
AcDbEntity
  8
0
100
AcDbVertex
100
AcDb2dVertex
 10
2.790408942
 20
2.0232928215
 30
0.0
  0
VERTEX
  5
537
100
AcDbEntity
  8
0
100
AcDbVertex
100
AcDb2dVertex
 10
2.8022779102
 20
2.0196044126
 30
0.0
  0
VERTEX
  5
538
100
AcDbEntity
  8
0
100
AcDbVertex
100
AcDb2dVertex
 10
2.8062810557
 20
2.0156477589
 30
0.0
  0
SEQEND
  5
539
100
AcDbEntity
  8
0
  0
LINE
  5
53A
100
AcDbEntity
  8
0
  6
CONTINUOUS
 62
         7
100
AcDbLine
 10
0.8750614744
 20
2.0157137417
 30
0.0
 11
0.8721391987
 21
2.0490837997
 31
0.0
  0
POLYLINE
  5
53B
100
AcDbEntity
  8
0
  6
CONTINUOUS
 62
         7
100
AcDb2dPolyline
 66
         1
 10
0.0
 20
0.0
 30
0.0
 70
       128
  0
VERTEX
  5
53C
100
AcDbEntity
  8
0
100
AcDbVertex
100
AcDb2dVertex
 10
0.8721391987
 20
2.0490837997
 30
0.0
  0
VERTEX
  5
53D
100
AcDbEntity
  8
0
100
AcDbVertex
100
AcDb2dVertex
 10
0.8752951541
 20
2.0503552357
 30
0.0
  0
VERTEX
  5
53E
100
AcDbEntity
  8
0
100
AcDbVertex
100
AcDb2dVertex
 10
0.8777143509
 20
2.0502669224
 30
0.0
  0
SEQEND
  5
53F
100
AcDbEntity
  8
0
  0
POLYLINE
  5
540
100
AcDbEntity
  8
0
  6
CONTINUOUS
 62
         7
100
AcDb2dPolyline
 66
         1
 10
0.0
 20
0.0
 30
0.0
 70
       128
  0
VERTEX
  5
541
100
AcDbEntity
  8
0
100
AcDbVertex
100
AcDb2dVertex
 10
3.4017005481
 20
2.0503296312
 30
0.0
  0
VERTEX
  5
542
100
AcDbEntity
  8
0
100
AcDbVertex
100
AcDb2dVertex
 10
3.4027255424
 20
2.0504177665
 30
0.0
  0
VERTEX
  5
543
100
AcDbEntity
  8
0
100
AcDbVertex
100
AcDb2dVertex
 10
3.4070890368
 20
2.0490837997
 30
0.0
  0
SEQEND
  5
544
100
AcDbEntity
  8
0
  0
POLYLINE
  5
545
100
AcDbEntity
  8
0
  6
CONTINUOUS
 62
         7
100
AcDb2dPolyline
 66
         1
 10
0.0
 20
0.0
 30
0.0
 70
       128
  0
VERTEX
  5
546
100
AcDbEntity
  8
0
100
AcDbVertex
100
AcDb2dVertex
 10
3.4070890368
 20
2.0490837997
 30
0.0
  0
VERTEX
  5
547
100
AcDbEntity
  8
0
100
AcDbVertex
100
AcDb2dVertex
 10
3.4067258666
 20
2.0449362898
 30
0.0
  0
VERTEX
  5
548
100
AcDbEntity
  8
0
100
AcDbVertex
100
AcDb2dVertex
 10
3.4061178956
 20
2.0379933507
 30
0.0
  0
VERTEX
  5
549
100
AcDbEntity
  8
0
100
AcDbVertex
100
AcDb2dVertex
 10
3.4052648587
 20
2.0282519599
 30
0.0
  0
VERTEX
  5
54A
100
AcDbEntity
  8
0
100
AcDbVertex
100
AcDb2dVertex
 10
3.4041668974
 20
2.0157137418
 30
0.0
  0
SEQEND
  5
54B
100
AcDbEntity
  8
0
  0
POLYLINE
  5
54C
100
AcDbEntity
  8
0
  6
CONTINUOUS
 62
         7
100
AcDb2dPolyline
 66
         1
 10
0.0
 20
0.0
 30
0.0
 70
       128
  0
VERTEX
  5
54D
100
AcDbEntity
  8
0
100
AcDbVertex
100
AcDb2dVertex
 10
3.4041668974
 20
1.9948474066
 30
0.0
  0
VERTEX
  5
54E
100
AcDbEntity
  8
0
100
AcDbVertex
100
AcDb2dVertex
 10
3.4052642314
 20
2.0073903837
 30
0.0
  0
VERTEX
  5
54F
100
AcDbEntity
  8
0
100
AcDbVertex
100
AcDb2dVertex
 10
3.4061171442
 20
2.0171396134
 30
0.0
  0
VERTEX
  5
550
100
AcDbEntity
  8
0
100
AcDbVertex
100
AcDb2dVertex
 10
3.4067255543
 20
2.0240941659
 30
0.0
  0
VERTEX
  5
551
100
AcDbEntity
  8
0
100
AcDbVertex
100
AcDb2dVertex
 10
3.4070890368
 20
2.0282491824
 30
0.0
  0
SEQEND
  5
552
100
AcDbEntity
  8
0
  0
LINE
  5
553
100
AcDbEntity
  8
0
  6
CONTINUOUS
 62
         7
100
AcDbLine
 10
0.8721391987
 20
2.0282491824
 30
0.0
 11
0.8750614743
 21
1.9948474066
 31
0.0
  0
LINE
  5
554
100
AcDbEntity
  8
0
  6
CONTINUOUS
 62
         7
100
AcDbLine
 10
0.8721391987
 20
2.0490837997
 30
0.0
 11
0.8721391987
 21
2.0282491824
 31
0.0
  0
LINE
  5
555
100
AcDbEntity
  8
0
  6
CONTINUOUS
 62
         7
100
AcDbLine
 10
3.4070890368
 20
2.0490837997
 30
0.0
 11
3.4070890368
 21
2.0282491824
 31
0.0
  0
LINE
  5
556
100
AcDbEntity
  8
0
  6
CONTINUOUS
 62
         7
100
AcDbLine
 10
1.4729477223
 20
1.8493401297
 30
0.0
 11
2.8062810556
 21
1.8493401297
 31
0.0
  0
LINE
  5
557
100
AcDbEntity
  8
0
  6
CONTINUOUS
 62
         7
100
AcDbLine
 10
1.4729477223
 20
1.8285067963
 30
0.0
 11
2.8062810556
 21
1.8285067963
 31
0.0
  0
LINE
  5
558
100
AcDbEntity
  8
0
  6
CONTINUOUS
 62
         7
100
AcDbLine
 10
2.1314741571
 20
1.1444621197
 30
0.0
 11
0.9153338282
 21
1.6606830623
 31
0.0
  0
LINE
  5
559
100
AcDbEntity
  8
0
  6
CONTINUOUS
 62
         7
100
AcDbLine
 10
2.1396143889
 20
1.1636393042
 30
0.0
 11
0.92347406
 21
1.6798602468
 31
0.0
  0
LINE
  5
55A
100
AcDbEntity
  8
0
  6
CONTINUOUS
 62
         7
100
AcDbLine
 10
2.1396143889
 20
1.1636393042
 30
0.0
 11
2.1314741571
 21
1.1444621197
 31
0.0
  0
LINE
  5
55B
100
AcDbEntity
  8
0
  6
CONTINUOUS
 62
         7
100
AcDbLine
 10
0.92347406
 20
1.6798602468
 30
0.0
 11
0.9153338282
 21
1.6606830623
 31
0.0
  0
LINE
  5
55C
100
AcDbEntity
  8
0
  6
PHANTOM
 62
         7
100
AcDbLine
 10
0.8750672498
 20
2.0156477589
 30
0.0
 11
1.4729477223
 21
2.0156477589
 31
0.0
  0
LINE
  5
55D
100
AcDbEntity
  8
0
  6
PHANTOM
 62
         7
100
AcDbLine
 10
3.4041668974
 20
2.0157137418
 30
0.0
 11
3.4041668974
 21
1.9948474066
 31
0.0
  0
LINE
  5
55E
100
AcDbEntity
  8
0
  6
PHANTOM
 62
         7
100
AcDbLine
 10
0.8750614744
 20
2.0157137417
 30
0.0
 11
0.8750614743
 21
1.9948474066
 31
0.0
  0
LINE
  5
55F
100
AcDbEntity
  8
0
  6
PHANTOM
 62
         7
100
AcDbLine
 10
2.8062810557
 20
2.0156477589
 30
0.0
 11
3.4041611221
 21
2.0156477589
 31
0.0
  0
DIMENSION
  5
56D
100
AcDbEntity
  8
0
 62
         7
100
AcDbDimension
  2
*D5
 10
3.6584161403
 20
1.6355751416
 30
0.0
 11
3.6584161403
 21
1.2587846762
 31
0.0
 70
       160
  3
SLDDIMSTYLE0
100
AcDbAlignedDimension
 13
3.3536378877
 23
1.6563291978
 33
0.0
 14
3.351822143
 24
1.6355751416
 34
0.0
 50
90.0
100
AcDbRotatedDimension
  0
ENDSEC
  0
SECTION
  2
OBJECTS
  0
DICTIONARY
  5
19
100
AcDbDictionary
  3
ACAD_GROUP
350
1A
  3
ACAD_MLINESTYLE
350
1B
  0
DICTIONARY
  5
1A
102
{ACAD_REACTORS
330
19
102
}
100
AcDbDictionary
  0
DICTIONARY
  5
1B
102
{ACAD_REACTORS
330
19
102
}
100
AcDbDictionary
  3
STANDARD
350
1C
  0
MLINESTYLE
  5
1C
102
{ACAD_REACTORS
330
1B
102
}
100
AcDbMlineStyle
  2
STANDARD
 70
         0
  3

 62
         0
 51
90.0
 52
90.0
 71
         2
 49
0.5
 62
       256
  6
BYLAYER
 49
-0.5
 62
       256
  6
BYLAYER
  0
ENDSEC
  0
EOF


