  0
SECTION
  2
HEADER
  9
$ACADVER
  1
AC1012
  9
$DWGCODEPAGE
  3
ansi_1252
  9
$INSBASE
 10
0.0
 20
0.0
 30
0.0
  9
$EXTMIN
 10
0.0
 20
0.0
 30
0.0
  9
$EXTMAX
 10
52.0
 20
8.0
 30
0.0
  9
$LIMMIN
 10
0.0
 20
0.0
  9
$LIMMAX
 10
0.0
 20
0.0
  9
$ORTHOMODE
 70
         0
  9
$REGENMODE
 70
         1
  9
$FILLMODE
 70
         1
  9
$QTEXTMODE
 70
         0
  9
$MIRRTEXT
 70
         1
  9
$DRAGMODE
 70
         2
  9
$LTSCALE
 40
1.0
  9
$OSMODE
 70
         0
  9
$ATTMODE
 70
         1
  9
$TEXTSIZE
 40
0.1377952756
  9
$TRACEWID
 40
0.05
  9
$TEXTSTYLE
  7
STANDARD
  9
$CLAYER
  8
0
  9
$CELTYPE
  6
CONTINUOUS
  9
$CECOLOR
 62
       256
  9
$CELTSCALE
 40
1.0
  9
$DELOBJ
 70
         1
  9
$DISPSILH
 70
         0
  9
$DIMSCALE
 40
1.0
  9
$DIMASZ
 40
0.156
  9
$DIMEXO
 40
0.05
  9
$DIMDLI
 40
0.38
  9
$DIMRND
 40
0.0
  9
$DIMDLE
 40
0.125
  9
$DIMEXE
 40
0.18
  9
$DIMTP
 40
0.0
  9
$DIMTM
 40
0.0
  9
$DIMTXT
 40
0.1377952756
  9
$DIMCEN
 40
0.09
  9
$DIMTSZ
 40
0.0
  9
$DIMTOL
 70
         0
  9
$DIMLIM
 70
         0
  9
$DIMTIH
 70
         1
  9
$DIMTOH
 70
         1
  9
$DIMSE1
 70
         0
  9
$DIMSE2
 70
         0
  9
$DIMTAD
 70
         0
  9
$DIMZIN
 70
         0
  9
$DIMBLK
  1

  9
$DIMASO
 70
         1
  9
$DIMSHO
 70
         1
  9
$DIMPOST
  1

  9
$DIMAPOST
  1

  9
$DIMALT
 70
         0
  9
$DIMALTD
 70
         2
  9
$DIMALTF
 40
25.4
  9
$DIMLFAC
 40
1.0
  9
$DIMTOFL
 70
         0
  9
$DIMTVP
 40
0.0
  9
$DIMTIX
 70
         0
  9
$DIMSOXD
 70
         0
  9
$DIMSAH
 70
         0
  9
$DIMBLK1
  1

  9
$DIMBLK2
  1

  9
$DIMSTYLE
  2
STANDARD
  9
$DIMCLRD
 70
         0
  9
$DIMCLRE
 70
         0
  9
$DIMCLRT
 70
         0
  9
$DIMTFAC
 40
1.0
  9
$DIMGAP
 40
0.05
  9
$DIMJUST
 70
         0
  9
$DIMSD1
 70
         0
  9
$DIMSD2
 70
         0
  9
$DIMTOLJ
 70
         1
  9
$DIMTZIN
 70
         0
  9
$DIMALTZ
 70
         0
  9
$DIMALTTZ
 70
         0
  9
$DIMFIT
 70
         3
  9
$DIMUPT
 70
         0
  9
$DIMUNIT
 70
         2
  9
$DIMDEC
 70
         4
  9
$DIMTDEC
 70
         4
  9
$DIMALTU
 70
         2
  9
$DIMALTTD
 70
         2
  9
$DIMTXSTY
  7
STANDARD
  9
$DIMAUNIT
 70
         0
  9
$LUNITS
 70
         2
  9
$LUPREC
 70
         2
  9
$SKETCHINC
 40
0.1
  9
$FILLETRAD
 40
0.0
  9
$AUNITS
 70
         0
  9
$AUPREC
 70
         2
  9
$MENU
  1
acad
  9
$ELEVATION
 40
0.0
  9
$PELEVATION
 40
0.0
  9
$THICKNESS
 40
0.0
  9
$LIMCHECK
 70
         0
  9
$BLIPMODE
 70
         1
  9
$CHAMFERA
 40
0.0
  9
$CHAMFERB
 40
0.0
  9
$CHAMFERC
 40
0.0
  9
$CHAMFERD
 40
0.0
  9
$SKPOLY
 70
         0
  9
$TDCREATE
 40
0.000000000
  9
$TDUPDATE
 40
0.000000000
  9
$TDINDWG
 40
0.0000000000
  9
$TDUSRTIMER
 40
0.0000000000
  9
$USRTIMER
 70
         1
  9
$ANGBASE
 50
0.0
  9
$ANGDIR
 70
         0
  9
$PDMODE
 70
         0
  9
$PDSIZE
 40
-1.0
  9
$PLINEWID
 40
0.0
  9
$COORDS
 70
         0
  9
$SPLFRAME
 70
         0
  9
$SPLINETYPE
 70
         6
  9
$SPLINESEGS
 70
         8
  9
$ATTDIA
 70
         0
  9
$ATTREQ
 70
         1
  9
$HANDLING
 70
         1
  9
$HANDSEED
  5
7E
  9
$SURFTAB1
 70
         6
  9
$SURFTAB2
 70
         6
  9
$SURFTYPE
 70
         6
  9
$SURFU
 70
         6
  9
$SURFV
 70
         6
  9
$UCSNAME
  2

  9
$UCSORG
 10
0.0
 20
0.0
 30
0.0
  9
$UCSXDIR
 10
1.0
 20
0.0
 30
0.0
  9
$UCSYDIR
 10
0.0
 20
1.0
 30
0.0
  9
$PUCSNAME
  2

  9
$PUCSORG
 10
0.0
 20
0.0
 30
0.0
  9
$PUCSXDIR
 10
1.0
 20
0.0
 30
0.0
  9
$PUCSYDIR
 10
0.0
 20
1.0
 30
0.0
  9
$USERI1
 70
         0
  9
$USERI2
 70
         0
  9
$USERI3
 70
         0
  9
$USERI4
 70
         0
  9
$USERI5
 70
         0
  9
$USERR1
 40
0.0
  9
$USERR2
 40
0.0
  9
$USERR3
 40
0.0
  9
$USERR4
 40
0.0
  9
$USERR5
 40
0.0
  9
$WORLDVIEW
 70
         1
  9
$SHADEDGE
 70
         3
  9
$SHADEDIF
 70
        70
  9
$TILEMODE
 70
         1
  9
$MAXACTVP
 70
        16
  9
$PINSBASE
 10
0.0
 20
0.0
 30
0.0
  9
$PLIMCHECK
 70
         0
  9
$PEXTMIN
 10
1.0000000000E+20
 20
1.0000000000E+20
 30
1.0000000000E+20
  9
$PEXTMAX
 10
-1.0000000000E+20
 20
-1.0000000000E+20
 30
-1.0000000000E+20
  9
$PLIMMIN
 10
0.0
 20
0.0
  9
$PLIMMAX
 10
12.0
 20
9.0
  9
$UNITMODE
 70
         0
  9
$VISRETAIN
 70
         0
  9
$PLINEGEN
 70
         1
  9
$PSLTSCALE
 70
         1
  9
$TREEDEPTH
 70
      3020
  9
$PICKSTYLE
 70
         1
  9
$CMLSTYLE
  2
STANDARD
  9
$CMLJUST
 70
         0
  9
$CMLSCALE
 40
1.0
  9
$SAVEIMAGES
 70
         0
  0
ENDSEC
  0
SECTION
  2
CLASSES
  0
CLASS
  1
LWPOLYLINE
  2
AcDbPolyline
  3
"AutoCAD"
 90
        0
280
         0
281
         1
  0
CLASS
  1
IMAGE
  2
AcDbRasterImage
  3
ISM
 90
      127
280
         0
281
         1
  0
CLASS
  1
OLE2FRAME
  2
AcDbOle2Frame
  3
""
 90
        0
280
         0
281
         1
  0
CLASS
  1
HATCH
  2
AcDbHatch
  3
"ACAD_SEDONA"
 90
        0
280
         0
281
         1
  0
CLASS
  1
DICTIONARYVAR
  2
AcDbDictionaryVar
  3
"AutoCAD"
 90
        0
280
         0
281
         0
  0
CLASS
  1
RASTERVARIABLES
  2
AcDbRasterVariables
  3
ISM
 90
        0
280
         0
281
         0
  0
CLASS
  1
IMAGEDEF
  2
AcDbRasterImageDef
  3
ISM
 90
        0
280
         0
281
         0
  0
CLASS
  1
IMAGEDEF_REACTOR
  2
AcDbRasterImageDefReactor
  3
ISM
 90
        1
280
         0
281
         0
  0
CLASS
  1
IDBUFFER
  2
AcDbIdBuffer
  3
"Acad"
 90
        0
280
         0
281
         0
  0
CLASS
  1
SPATIAL_FILTER
  2
AcDbSpatialFilter
  3
"Acad"
 90
        0
280
         0
281
         0
  0
CLASS
  1
XRECORD
  2
AcDbXrecord
  3
"<Built In>"
 90
        0
280
         0
281
         0
  0
CLASS
  1
SORTENTSTABLE
  2
AcDbSortentsTable
  3
"AutoCAD"
 90
        0
280
         0
281
         0
  0
CLASS
  1
LAYER_INDEX
  2
AcDbLayerIndex
  3
"Acad"
 90
        0
280
         0
281
         0
  0
CLASS
  1
SPATIAL_INDEX
  2
AcDbSpatialIndex
  3
"Acad"
 90
        0
280
         0
281
         0
  0
CLASS
  1
OBJECT_PTR
  2
CAseDLPNTableRecord
  3
"ASE-LPNTableRecord"
 90
        1
280
         0
281
         0
  0
CLASS
  1
LAYOUT
  2
AcDbLayout
  3
"AutoCAD 2000"
 90
        1
280
         0
281
         0
  0
CLASS
  1
PLOTSETTINGS
  2
AcDbPlotSettings
  3
"AutoCAD 2000"
 90
        1
280
         0
281
         0
  0
CLASS
  1
ACDBDICTIONARYWDFLT
  2
AcDbDictionaryWithDefault
  3
"AutoCAD 2000"
 90
        1
280
         0
281
         0
  0
CLASS
  1
ACDBPLACEHOLDER
  2
AcDbPlaceHolder
  3
"AutoCAD 2000"
 90
        1
280
         0
281
         0
  0
CLASS
  1
VBA_PROJECT
  2
AcDbVbaProject
  3
"acadvba"
 90
        1
280
         0
281
         0
  0
CLASS
  1
WIPEOUT
  2
AcDbWipeout
  3
WipeOut|AutoCAD Express Tool|expresstools@autodesk.com
 90
      127
280
         0
281
         1
  0
CLASS
  1
WIPEOUTVARIABLES
  2
AcDbWipeoutVariables
  3
WipeOut|AutoCAD Express Tool|expresstools@autodesk.com
 90
        0
280
         0
281
         0
  0
CLASS
  1
RTEXT
  2
RText
  3
RText|AutoCAD Express Tool|expresstools@autodesk.com
 90
        0
280
         0
281
         1
  0
CLASS
  1
ARCALIGNEDTEXT
  2
AcDbArcAlignedText
  3
ATEXT|AutoCAD Express Tool|expresstools@autodesk.com
 90
        0
280
         0
281
         1
  0
ENDSEC
  0
SECTION
  2
TABLES
  0
TABLE
  2
VPORT
  5
7
100
AcDbSymbolTable
 70
         1
  0
VPORT
  5
15
100
AcDbSymbolTableRecord
100
AcDbViewportTableRecord
  2
*ACTIVE
 70
         0
 10
0.0
 20
0.0
 11
1.0
 21
1.0
 12
26.0
 22
4.0
 13
0.0
 23
0.0
 14
1.0
 24
1.0
 15
0.0
 25
0.0
 16
0.0
 26
0.0
 36
1.0
 17
0.0
 27
0.0
 37
0.0
 40
8.0
 41
0.1538461538
 42
50.0
 43
0.0
 44
0.0
 50
0.0
 51
0.0
 71
         0
 72
      2000
 73
         1
 74
         1
 75
         0
 76
         0
 77
         0
 78
         0
  0
ENDTAB
  0
TABLE
  2
LTYPE
  5
4
100
AcDbSymbolTable
 70
         8
  0
LTYPE
  5
11
100
AcDbSymbolTableRecord
100
AcDbLinetypeTableRecord
  2
BYBLOCK
 70
        64
  3

 72
        65
 73
         0
 40
0.0
  0
LTYPE
  5
12
100
AcDbSymbolTableRecord
100
AcDbLinetypeTableRecord
  2
BYLAYER
 70
        64
  3

 72
        65
 73
         0
 40
0.0
  0
LTYPE
  5
13
100
AcDbSymbolTableRecord
100
AcDbLinetypeTableRecord
  2
CONTINUOUS
 70
        64
  3
Solid line
 72
        65
 73
         0
 40
0.0
  0
LTYPE
  5
1D
100
AcDbSymbolTableRecord
100
AcDbLinetypeTableRecord
  2
HIDDEN
 70
        64
  3
Hidden __ __ __ __ __ __ __ __ __ __ __ __ __ __
 72
        65
 73
         2
 40
0.075
 49
0.05
 74
         0
 49
-0.025
 74
         0
  0
LTYPE
  5
1E
100
AcDbSymbolTableRecord
100
AcDbLinetypeTableRecord
  2
PHANTOM
 70
        64
  3
Phantom ______  __  __  ______  __  __  ______
 72
        65
 73
         6
 40
0.5
 49
0.25
 74
         0
 49
-0.05
 74
         0
 49
0.05
 74
         0
 49
-0.05
 74
         0
 49
0.05
 74
         0
 49
-0.05
 74
         0
  0
LTYPE
  5
1F
100
AcDbSymbolTableRecord
100
AcDbLinetypeTableRecord
  2
CENTER
 70
        64
  3
Center ____ _ ____ _ ____ _ ____ _ ____ _ ____
 72
        65
 73
         4
 40
0.4
 49
0.25
 74
         0
 49
-0.05
 74
         0
 49
0.05
 74
         0
 49
-0.05
 74
         0
  0
LTYPE
  5
20
100
AcDbSymbolTableRecord
100
AcDbLinetypeTableRecord
  2
CENTERX2
 70
        64
  3
Center (2x) ________  __  ________  __  _____
 72
        65
 73
         4
 40
0.8
 49
0.5
 74
         0
 49
-0.1
 74
         0
 49
0.1
 74
         0
 49
-0.1
 74
         0
  0
LTYPE
  5
21
100
AcDbSymbolTableRecord
100
AcDbLinetypeTableRecord
  2
DOT2
 70
        64
  3
Dot (.5x) ........................................
 72
        65
 73
         2
 40
0.025
 49
0.0
 74
         0
 49
-0.025
 74
         0
  0
ENDTAB
  0
TABLE
  2
LAYER
  5
2
100
AcDbSymbolTable
 70
         2
  0
LAYER
  5
14
100
AcDbSymbolTableRecord
100
AcDbLayerTableRecord
  2
0
 70
         0
 62
         7
  6
CONTINUOUS
  0
LAYER
  5
23
100
AcDbSymbolTableRecord
100
AcDbLayerTableRecord
  2
DEFPOINTS
 70
         0
 62
         7
  6
CONTINUOUS
  0
ENDTAB
  0
TABLE
  2
STYLE
  5
3
100
AcDbSymbolTable
 70
         2
  0
STYLE
  5
17
100
AcDbSymbolTableRecord
100
AcDbTextStyleTableRecord
  2
STANDARD
 70
         0
 40
0.0
 41
1.0
 50
0.0
 71
         0
 42
0.0
  3
txt
  4

  0
STYLE
  5
44
100
AcDbSymbolTableRecord
100
AcDbTextStyleTableRecord
  2
SLDTEXTSTYLE0
 70
         0
 40
0.0
 41
0.75
 50
0.0
 71
         0
 42
0.0
  3
txt
  4

  0
ENDTAB
  0
TABLE
  2
VIEW
  5
5
100
AcDbSymbolTable
 70
         0
  0
ENDTAB
  0
TABLE
  2
UCS
  5
6
100
AcDbSymbolTable
 70
         0
  0
ENDTAB
  0
TABLE
  2
APPID
  5
8
100
AcDbSymbolTable
 70
         1
  0
APPID
  5
16
100
AcDbSymbolTableRecord
100
AcDbRegAppTableRecord
  2
ACAD
 70
         0
  0
ENDTAB
  0
TABLE
  2
DIMSTYLE
  5
9
100
AcDbSymbolTable
 70
         1
  0
DIMSTYLE
105
18
100
AcDbSymbolTableRecord
100
AcDbDimStyleTableRecord
  2
STANDARD
 70
         0
  3

  4

  5

  6

  7

 40
1.0
 41
0.18
 42
0.0625
 43
0.38
 44
0.18
 45
0.0
 46
0.0
 47
0.0
 48
0.0
 71
         0
 72
         0
 73
         1
 74
         1
 75
         0
 76
         0
 77
         0
 78
         0
140
0.18
141
0.09
142
0.0
143
25.4
144
1.0
145
0.0
146
1.0
147
0.09
170
         0
171
         2
172
         0
173
         0
174
         0
175
         0
176
         0
177
         0
178
         0
270
         2
271
         4
272
         4
273
         2
274
         2
275
         0
280
         0
281
         0
282
         0
283
         1
284
         0
285
         0
286
         0
287
         0
288
         0
340
17
  0
ENDTAB
  0
TABLE
  2
BLOCK_RECORD
  5
1
100
AcDbSymbolTable
 70
         0
  0
BLOCK_RECORD
  5
A
100
AcDbSymbolTableRecord
100
AcDbBlockTableRecord
  2
*MODEL_SPACE
  0
BLOCK_RECORD
  5
B
100
AcDbSymbolTableRecord
100
AcDbBlockTableRecord
  2
*PAPER_SPACE
  0
ENDTAB
  0
ENDSEC
  0
SECTION
  2
BLOCKS
  0
BLOCK
  5
D
100
AcDbEntity
  8
0
100
AcDbBlockBegin
  2
*MODEL_SPACE
 70
         0
 10
0.0
 20
0.0
 30
0.0
  3
*MODEL_SPACE
  1

  0
ENDBLK
  5
E
100
AcDbEntity
  8
0
100
AcDbBlockEnd
  0
BLOCK
  5
F
100
AcDbEntity
 67
         1
  8
0
100
AcDbBlockBegin
  2
*PAPER_SPACE
 70
         0
 10
0.0
 20
0.0
 30
0.0
  3
*PAPER_SPACE
  1

  0
ENDBLK
  5
10
100
AcDbEntity
 67
         1
  8
0
100
AcDbBlockEnd
  0
ENDSEC
  0
SECTION
  2
ENTITIES
  0
LINE
  5
24
100
AcDbEntity
  8
0
  6
CONTINUOUS
 62
         7
100
AcDbLine
 10
28.025498869
 20
4.2212768346
 30
0.0
 11
11.5354993989
 21
4.2212768346
 31
0.0
  0
LINE
  5
25
100
AcDbEntity
  8
0
  6
CONTINUOUS
 62
         7
100
AcDbLine
 10
11.5354993989
 20
4.2212768346
 30
0.0
 11
11.5354993989
 21
5.6752769979
 31
0.0
  0
LINE
  5
26
100
AcDbEntity
  8
0
  6
CONTINUOUS
 62
         7
100
AcDbLine
 10
11.5354993989
 20
5.6752769979
 30
0.0
 11
11.7854986442
 21
5.6752769979
 31
0.0
  0
LINE
  5
27
100
AcDbEntity
  8
0
  6
CONTINUOUS
 62
         7
100
AcDbLine
 10
11.7854986442
 20
5.6752769979
 30
0.0
 11
11.7854986442
 21
7.1492948765
 31
0.0
  0
LINE
  5
28
100
AcDbEntity
  8
0
  6
CONTINUOUS
 62
         7
100
AcDbLine
 10
11.7854986442
 20
7.1492948765
 30
0.0
 11
40.6604983044
 21
7.1492948765
 31
0.0
  0
LINE
  5
29
100
AcDbEntity
  8
0
  6
CONTINUOUS
 62
         7
100
AcDbLine
 10
40.6604983044
 20
7.1492948765
 30
0.0
 11
40.6604983044
 21
6.1492948886
 31
0.0
  0
LINE
  5
2A
100
AcDbEntity
  8
0
  6
CONTINUOUS
 62
         7
100
AcDbLine
 10
40.6604983044
 20
6.1492948886
 30
0.0
 11
40.5354986817
 21
6.1492948886
 31
0.0
  0
LINE
  5
2B
100
AcDbEntity
  8
0
  6
CONTINUOUS
 62
         7
100
AcDbLine
 10
40.5354986817
 20
4.9449942608
 30
0.0
 11
40.5354986817
 21
6.1492948886
 31
0.0
  0
POLYLINE
  5
2C
100
AcDbEntity
  8
0
  6
CONTINUOUS
 62
         7
100
AcDb2dPolyline
 66
         1
 10
0.0
 20
0.0
 30
0.0
 70
       128
  0
VERTEX
  5
2D
100
AcDbEntity
  8
0
100
AcDbVertex
100
AcDb2dVertex
 10
28.4476135087
 20
4.2212768346
 30
0.0
  0
VERTEX
  5
2E
100
AcDbEntity
  8
0
100
AcDbVertex
100
AcDb2dVertex
 10
31.4753178257
 20
4.2665523116
 30
0.0
  0
VERTEX
  5
2F
100
AcDbEntity
  8
0
100
AcDbVertex
100
AcDb2dVertex
 10
34.5007278626
 20
4.4023435429
 30
0.0
  0
VERTEX
  5
30
100
AcDbEntity
  8
0
100
AcDbVertex
100
AcDb2dVertex
 10
37.5215510991
 20
4.6285478631
 30
0.0
  0
VERTEX
  5
31
100
AcDbEntity
  8
0
100
AcDbVertex
100
AcDb2dVertex
 10
40.5354986817
 20
4.9449942608
 30
0.0
  0
SEQEND
  5
32
100
AcDbEntity
  8
0
  0
LINE
  5
33
100
AcDbEntity
  8
0
  6
CONTINUOUS
 62
         7
100
AcDbLine
 10
28.4476135087
 20
4.2212768346
 30
0.0
 11
28.2954988693
 21
4.2212768346
 31
0.0
  0
LINE
  5
34
100
AcDbEntity
  8
0
  6
CONTINUOUS
 62
         7
100
AcDbLine
 10
28.2954988693
 20
4.2212768346
 30
0.0
 11
28.2954988693
 21
5.711794816
 31
0.0
  0
LINE
  5
35
100
AcDbEntity
  8
0
  6
CONTINUOUS
 62
         7
100
AcDbLine
 10
28.2954988693
 20
5.711794816
 30
0.0
 11
28.025498869
 21
5.711794816
 31
0.0
  0
LINE
  5
36
100
AcDbEntity
  8
0
  6
CONTINUOUS
 62
         7
100
AcDbLine
 10
28.025498869
 20
5.711794816
 30
0.0
 11
28.025498869
 21
4.2212768346
 31
0.0
  0
CIRCLE
  5
37
100
AcDbEntity
  8
0
  6
CONTINUOUS
 62
         7
100
AcDbCircle
 10
29.9818194179
 20
5.7382948765
 30
0.0
 40
0.9375
  0
CIRCLE
  5
38
100
AcDbEntity
  8
0
  6
CONTINUOUS
 62
         7
100
AcDbCircle
 10
32.3568194179
 20
5.7382948765
 30
0.0
 40
0.9375
  0
CIRCLE
  5
39
100
AcDbEntity
  8
0
  6
CONTINUOUS
 62
         7
100
AcDbCircle
 10
34.7318194179
 20
5.8242948765
 30
0.0
 40
0.9375
  0
CIRCLE
  5
3A
100
AcDbEntity
  8
0
  6
CONTINUOUS
 62
         7
100
AcDbCircle
 10
37.1068194179
 20
5.9492948765
 30
0.0
 40
0.9375
  0
LINE
  5
3B
100
AcDbEntity
  8
0
  6
HIDDEN
 62
         9
100
AcDbLine
 10
28.2954988693
 20
4.3273956887
 30
0.0
 11
28.4476135087
 21
4.3273956887
 31
0.0
  0
POLYLINE
  5
3C
100
AcDbEntity
  8
0
  6
HIDDEN
 62
         9
100
AcDb2dPolyline
 66
         1
 10
0.0
 20
0.0
 30
0.0
 70
       128
  0
VERTEX
  5
3D
100
AcDbEntity
  8
0
100
AcDbVertex
100
AcDb2dVertex
 10
40.5354986817
 20
5.0511129683
 30
0.0
  0
VERTEX
  5
3E
100
AcDbEntity
  8
0
100
AcDbVertex
100
AcDb2dVertex
 10
37.5215510991
 20
4.7346667172
 30
0.0
  0
VERTEX
  5
3F
100
AcDbEntity
  8
0
100
AcDbVertex
100
AcDb2dVertex
 10
34.5007278626
 20
4.5084621037
 30
0.0
  0
VERTEX
  5
40
100
AcDbEntity
  8
0
100
AcDbVertex
100
AcDb2dVertex
 10
31.4753178257
 20
4.3726708723
 30
0.0
  0
VERTEX
  5
41
100
AcDbEntity
  8
0
100
AcDbVertex
100
AcDb2dVertex
 10
28.4476135087
 20
4.3273956887
 30
0.0
  0
SEQEND
  5
42
100
AcDbEntity
  8
0
  0
LINE
  5
43
100
AcDbEntity
  8
0
  6
HIDDEN
 62
         9
100
AcDbLine
 10
11.5354993989
 20
4.3273956887
 30
0.0
 11
28.025498869
 21
4.3273956887
 31
0.0
  0
MTEXT
  5
45
100
AcDbEntity
  8
0
 62
         7
100
AcDbMText
 10
21.7613414017
 20
6.269521613
 30
0.0
 40
0.25
 41
0.0
 71
         2
 72
         1
  1
STRINGER\P2 REQUIRED\P1 LEFT & 1 RIGHT\P1/4"
  7
SLDTEXTSTYLE0
  0
POLYLINE
  5
46
100
AcDbEntity
  8
0
  6
CONTINUOUS
 62
         7
100
AcDb2dPolyline
 66
         1
 10
0.0
 20
0.0
 30
0.0
 70
       128
  0
VERTEX
  5
47
100
AcDbEntity
  8
0
100
AcDbVertex
100
AcDb2dVertex
 10
24.7577759116
 20
3.5403306755
 30
0.0
  0
VERTEX
  5
48
100
AcDbEntity
  8
0
100
AcDbVertex
100
AcDb2dVertex
 10
24.7572592109
 20
3.5403249556
 30
0.0
  0
VERTEX
  5
49
100
AcDbEntity
  8
0
100
AcDbVertex
100
AcDb2dVertex
 10
24.7568532423
 20
3.540320409
 30
0.0
  0
SEQEND
  5
4A
100
AcDbEntity
  8
0
  0
POLYLINE
  5
4B
100
AcDbEntity
  8
0
  6
CONTINUOUS
 62
         7
100
AcDb2dPolyline
 66
         1
 10
0.0
 20
0.0
 30
0.0
 70
       128
  0
VERTEX
  5
4C
100
AcDbEntity
  8
0
100
AcDbVertex
100
AcDb2dVertex
 10
51.1307374356
 20
0.7933052761
 30
0.0
  0
VERTEX
  5
4D
100
AcDbEntity
  8
0
100
AcDbVertex
100
AcDb2dVertex
 10
49.2795415408
 20
1.1491538053
 30
0.0
  0
VERTEX
  5
4E
100
AcDbEntity
  8
0
100
AcDbVertex
100
AcDb2dVertex
 10
47.4490523934
 20
1.4841260423
 30
0.0
  0
VERTEX
  5
4F
100
AcDbEntity
  8
0
100
AcDbVertex
100
AcDb2dVertex
 10
45.6137854879
 20
1.8006190795
 30
0.0
  0
VERTEX
  5
50
100
AcDbEntity
  8
0
100
AcDbVertex
100
AcDb2dVertex
 10
43.7601631678
 20
2.0983507334
 30
0.0
  0
VERTEX
  5
51
100
AcDbEntity
  8
0
100
AcDbVertex
100
AcDb2dVertex
 10
41.9089156469
 20
2.3717430418
 30
0.0
  0
VERTEX
  5
52
100
AcDbEntity
  8
0
100
AcDbVertex
100
AcDb2dVertex
 10
40.0636802165
 20
2.6192463426
 30
0.0
  0
VERTEX
  5
53
100
AcDbEntity
  8
0
100
AcDbVertex
100
AcDb2dVertex
 10
38.2169124305
 20
2.8400266988
 30
0.0
  0
VERTEX
  5
54
100
AcDbEntity
  8
0
100
AcDbVertex
100
AcDb2dVertex
 10
36.3695826244
 20
3.0329876431
 30
0.0
  0
VERTEX
  5
55
100
AcDbEntity
  8
0
100
AcDbVertex
100
AcDb2dVertex
 10
34.0503870159
 20
3.2335418729
 30
0.0
  0
VERTEX
  5
56
100
AcDbEntity
  8
0
100
AcDbVertex
100
AcDb2dVertex
 10
31.7353484794
 20
3.3854031853
 30
0.0
  0
VERTEX
  5
57
100
AcDbEntity
  8
0
100
AcDbVertex
100
AcDb2dVertex
 10
29.4194645661
 20
3.4875705917
 30
0.0
  0
VERTEX
  5
58
100
AcDbEntity
  8
0
100
AcDbVertex
100
AcDb2dVertex
 10
27.0934408232
 20
3.5394659388
 30
0.0
  0
VERTEX
  5
59
100
AcDbEntity
  8
0
100
AcDbVertex
100
AcDb2dVertex
 10
24.7577759116
 20
3.5403306755
 30
0.0
  0
SEQEND
  5
5A
100
AcDbEntity
  8
0
  0
POLYLINE
  5
5B
100
AcDbEntity
  8
0
  6
CONTINUOUS
 62
         7
100
AcDb2dPolyline
 66
         1
 10
0.0
 20
0.0
 30
0.0
 70
       128
  0
VERTEX
  5
5C
100
AcDbEntity
  8
0
100
AcDbVertex
100
AcDb2dVertex
 10
51.1169298084
 20
0.5272837625
 30
0.0
  0
VERTEX
  5
5D
100
AcDbEntity
  8
0
100
AcDbVertex
100
AcDb2dVertex
 10
51.1246619858
 20
0.6762666281
 30
0.0
  0
VERTEX
  5
5E
100
AcDbEntity
  8
0
100
AcDbVertex
100
AcDb2dVertex
 10
51.1307374356
 20
0.7933052761
 30
0.0
  0
SEQEND
  5
5F
100
AcDbEntity
  8
0
  0
POLYLINE
  5
60
100
AcDbEntity
  8
0
  6
CONTINUOUS
 62
         7
100
AcDb2dPolyline
 66
         1
 10
0.0
 20
0.0
 30
0.0
 70
       128
  0
VERTEX
  5
61
100
AcDbEntity
  8
0
100
AcDbVertex
100
AcDb2dVertex
 10
24.7577759116
 20
1.1643881893
 30
0.0
  0
VERTEX
  5
62
100
AcDbEntity
  8
0
100
AcDbVertex
100
AcDb2dVertex
 10
27.2569631741
 20
1.1573573638
 30
0.0
  0
VERTEX
  5
63
100
AcDbEntity
  8
0
100
AcDbVertex
100
AcDb2dVertex
 10
29.7225242651
 20
1.139105788
 30
0.0
  0
VERTEX
  5
64
100
AcDbEntity
  8
0
100
AcDbVertex
100
AcDb2dVertex
 10
32.1575060027
 20
1.1095789024
 30
0.0
  0
VERTEX
  5
65
100
AcDbEntity
  8
0
100
AcDbVertex
100
AcDb2dVertex
 10
34.6042690441
 20
1.0680099427
 30
0.0
  0
VERTEX
  5
66
100
AcDbEntity
  8
0
100
AcDbVertex
100
AcDb2dVertex
 10
37.0539460252
 20
1.0150477545
 30
0.0
  0
VERTEX
  5
67
100
AcDbEntity
  8
0
100
AcDbVertex
100
AcDb2dVertex
 10
39.4914427737
 20
0.9516864331
 30
0.0
  0
VERTEX
  5
68
100
AcDbEntity
  8
0
100
AcDbVertex
100
AcDb2dVertex
 10
41.1106006024
 20
0.9042385546
 30
0.0
  0
VERTEX
  5
69
100
AcDbEntity
  8
0
100
AcDbVertex
100
AcDb2dVertex
 10
42.7394934653
 20
0.852319741
 30
0.0
  0
VERTEX
  5
6A
100
AcDbEntity
  8
0
100
AcDbVertex
100
AcDb2dVertex
 10
44.3781201891
 20
0.7959302857
 30
0.0
  0
VERTEX
  5
6B
100
AcDbEntity
  8
0
100
AcDbVertex
100
AcDb2dVertex
 10
46.0060661829
 20
0.7359891915
 30
0.0
  0
VERTEX
  5
6C
100
AcDbEntity
  8
0
100
AcDbVertex
100
AcDb2dVertex
 10
47.006363534
 20
0.6973637977
 30
0.0
  0
VERTEX
  5
6D
100
AcDbEntity
  8
0
100
AcDbVertex
100
AcDb2dVertex
 10
47.9842622106
 20
0.6583931546
 30
0.0
  0
VERTEX
  5
6E
100
AcDbEntity
  8
0
100
AcDbVertex
100
AcDb2dVertex
 10
48.9852776335
 20
0.6174222945
 30
0.0
  0
VERTEX
  5
6F
100
AcDbEntity
  8
0
100
AcDbVertex
100
AcDb2dVertex
 10
50.0295017305
 20
0.5737193594
 30
0.0
  0
VERTEX
  5
70
100
AcDbEntity
  8
0
100
AcDbVertex
100
AcDb2dVertex
 10
51.1169298084
 20
0.5272837625
 30
0.0
  0
SEQEND
  5
71
100
AcDbEntity
  8
0
  0
LINE
  5
72
100
AcDbEntity
  8
0
  6
CONTINUOUS
 62
         7
100
AcDbLine
 10
24.7568532423
 20
1.1643881893
 30
0.0
 11
24.7577759116
 21
1.1643881893
 31
0.0
  0
LINE
  5
73
100
AcDbEntity
  8
0
  6
CONTINUOUS
 62
         7
100
AcDbLine
 10
18.8116599617
 20
3.3391545862
 30
0.0
 11
1.0956606184
 21
2.3372987731
 31
0.0
  0
POLYLINE
  5
74
100
AcDbEntity
  8
0
  6
CONTINUOUS
 62
         7
100
AcDb2dPolyline
 66
         1
 10
0.0
 20
0.0
 30
0.0
 70
       128
  0
VERTEX
  5
75
100
AcDbEntity
  8
0
100
AcDbVertex
100
AcDb2dVertex
 10
24.7568532423
 20
3.540320409
 30
0.0
  0
VERTEX
  5
76
100
AcDbEntity
  8
0
100
AcDbVertex
100
AcDb2dVertex
 10
21.7831253017
 20
3.4734293017
 30
0.0
  0
VERTEX
  5
77
100
AcDbEntity
  8
0
100
AcDbVertex
100
AcDb2dVertex
 10
18.8116599617
 20
3.3391545862
 30
0.0
  0
SEQEND
  5
78
100
AcDbEntity
  8
0
  0
LINE
  5
79
100
AcDbEntity
  8
0
  6
CONTINUOUS
 62
         7
100
AcDbLine
 10
1.0956606184
 20
1.1643509364
 30
0.0
 11
24.7568532423
 21
1.1643881893
 31
0.0
  0
LINE
  5
7A
100
AcDbEntity
  8
0
  6
CONTINUOUS
 62
         7
100
AcDbLine
 10
1.0956606184
 20
2.3372987731
 30
0.0
 11
1.0956606184
 21
1.1643509364
 31
0.0
  0
MTEXT
  5
7B
100
AcDbEntity
  8
0
 62
         7
100
AcDbMText
 10
23.127457916
 20
2.8406818666
 30
0.0
 40
0.25
 41
0.0
 71
         2
 72
         1
  1
SIDE\P2 REQUIRED\P1/8"
  7
SLDTEXTSTYLE0
  0
ENDSEC
  0
SECTION
  2
OBJECTS
  0
DICTIONARY
  5
19
100
AcDbDictionary
  3
ACAD_GROUP
350
1A
  3
ACAD_MLINESTYLE
350
1B
  0
DICTIONARY
  5
1A
102
{ACAD_REACTORS
330
19
102
}
100
AcDbDictionary
  0
DICTIONARY
  5
1B
102
{ACAD_REACTORS
330
19
102
}
100
AcDbDictionary
  3
STANDARD
350
1C
  0
MLINESTYLE
  5
1C
102
{ACAD_REACTORS
330
1B
102
}
100
AcDbMlineStyle
  2
STANDARD
 70
         0
  3

 62
         0
 51
90.0
 52
90.0
 71
         2
 49
0.5
 62
       256
  6
BYLAYER
 49
-0.5
 62
       256
  6
BYLAYER
  0
ENDSEC
  0
EOF


