  0
SECTION
  2
HEADER
  9
$ACADVER
  1
AC1014
  9
$ACADMAINTVER
 70
     0
  9
$DWGCODEPAGE
  3
ANSI_1252
  9
$INSBASE
 10
0.0000
 20
0.0000
 30
0.0000
  9
$EXTMIN
 10
-4.6781
 20
-14.3236
 30
0.0000
  9
$EXTMAX
 10
20.0051
 20
0.6276
 30
0.0000
  9
$LIMMIN
 10
-4.6781
 20
-14.3236
  9
$LIMMAX
 10
20.0051
 20
0.6276
  9
$ORTHOMODE
 70
     0
  9
$REGENMODE
 70
     1
  9
$FILLMODE
 70
     1
  9
$QTEXTMODE
 70
     0
  9
$MIRRTEXT
 70
     1
  9
$DRAGMODE
 70
     2
  9
$LTSCALE
 40
1.0
  9
$OSMODE
 70
     0
  9
$ATTMODE
 70
     1
  9
$TEXTSIZE
 40
0.2
  9
$TRACEWID
 40
0.05
  9
$TEXTSTYLE
  7
STANDARD
  9
$CLAYER
  8
DEFAULT
  9
$CELTYPE
  6
BYLAYER
  9
$CECOLOR
 62
   256
  9
$CELTSCALE
 40
1.0
  9
$DELOBJ
 70
     1
  9
$DISPSILH
 70
     0
  9
$DIMSCALE
 40
1.0
  9
$DIMASZ
 40
0.18
  9
$DIMEXO
 40
0.0625
  9
$DIMDLI
 40
0.38
  9
$DIMRND
 40
0.0
  9
$DIMDLE
 40
0.0
  9
$DIMEXE
 40
0.18
  9
$DIMTP
 40
0.0
  9
$DIMTM
 40
0.0
  9
$DIMTXT
 40
0.18
  9
$DIMCEN
 40
0.09
  9
$DIMTSZ
 40
0.0
  9
$DIMTOL
 70
     0
  9
$DIMLIM
 70
     0
  9
$DIMTIH
 70
     1
  9
$DIMTOH
 70
     1
  9
$DIMSE1
 70
     0
  9
$DIMSE2
 70
     0
  9
$DIMTAD
 70
     0
  9
$DIMZIN
 70
     0
  9
$DIMBLK
  1

  9
$DIMASO
 70
     1
  9
$DIMSHO
 70
     1
  9
$DIMPOST
  1

  9
$DIMAPOST
  1

  9
$DIMALT
 70
     0
  9
$DIMALTD
 70
     2
  9
$DIMALTF
 40
25.4
  9
$DIMLFAC
 40
1.0
  9
$DIMTOFL
 70
     0
  9
$DIMTVP
 40
0.0
  9
$DIMTIX
 70
     0
  9
$DIMSOXD
 70
     0
  9
$DIMSAH
 70
     0
  9
$DIMBLK1
  1

  9
$DIMBLK2
  1

  9
$DIMSTYLE
  2
STANDARD
  9
$DIMCLRD
 70
     0
  9
$DIMCLRE
 70
     0
  9
$DIMCLRT
 70
     0
  9
$DIMTFAC
 40
1.0
  9
$DIMGAP
 40
0.09
  9
$DIMJUST
 70
     0
  9
$DIMSD1
 70
     0
  9
$DIMSD2
 70
     0
  9
$DIMTOLJ
 70
     1
  9
$DIMTZIN
 70
     0
  9
$DIMALTZ
 70
     0
  9
$DIMALTTZ
 70
     0
  9
$DIMFIT
 70
     3
  9
$DIMUPT
 70
     0
  9
$DIMUNIT
 70
     2
  9
$DIMDEC
 70
     4
  9
$DIMTDEC
 70
     4
  9
$DIMALTU
 70
     2
  9
$DIMALTTD
 70
     2
  9
$DIMTXSTY
  7
STANDARD
  9
$DIMAUNIT
 70
     0
  9
$LUNITS
 70
     2
  9
$LUPREC
 70
     4
  9
$SKETCHINC
 40
0.1
  9
$FILLETRAD
 40
0.5
  9
$AUNITS
 70
     0
  9
$AUPREC
 70
     0
  9
$MENU
  1
.
  9
$ELEVATION
 40
0.0
  9
$PELEVATION
 40
0.0
  9
$THICKNESS
 40
0.0
  9
$LIMCHECK
 70
     0
  9
$BLIPMODE
 70
     0
  9
$CHAMFERA
 40
0.5
  9
$CHAMFERB
 40
0.5
  9
$CHAMFERC
 40
1.0
  9
$CHAMFERD
 40
0.0
  9
$SKPOLY
 70
     0
  9
$TDCREATE
 40
2453215.732314814
  9
$TDUPDATE
 40
2453215.732314814
  9
$TDINDWG
 40
0.0000000000
  9
$TDUSRTIMER
 40
0.0000000000
  9
$USRTIMER
 70
     1
  9
$ANGBASE
 50
0.0
  9
$ANGDIR
 70
     0
  9
$PDMODE
 70
     0
  9
$PDSIZE
 40
0.0
  9
$PLINEWID
 40
0.0
  9
$COORDS
 70
     1
  9
$SPLFRAME
 70
     0
  9
$SPLINETYPE
 70
     6
  9
$SPLINESEGS
 70
     8
  9
$ATTDIA
 70
     0
  9
$ATTREQ
 70
     1
  9
$HANDLING
 70
     1
  9
$HANDSEED
  5
AA
  9
$SURFTAB1
 70
     6
  9
$SURFTAB2
 70
     6
  9
$SURFTYPE
 70
     6
  9
$SURFU
 70
     6
  9
$SURFV
 70
     6
  9
$UCSNAME
  2

  9
$UCSORG
 10
0.0
 20
0.0
 30
0.0
  9
$UCSXDIR
 10
1.0
 20
0.0
 30
0.0
  9
$UCSYDIR
 10
0.0
 20
1.0
 30
0.0
  9
$PUCSNAME
  2

  9
$PUCSORG
 10
0.0
 20
0.0
 30
0.0
  9
$PUCSXDIR
 10
1.0
 20
0.0
 30
0.0
  9
$PUCSYDIR
 10
0.0
 20
1.0
 30
0.0
  9
$USERI1
 70
     0
  9
$USERI2
 70
     0
  9
$USERI3
 70
     0
  9
$USERI4
 70
     0
  9
$USERI5
 70
     0
  9
$USERR1
 40
0.0
  9
$USERR2
 40
0.0
  9
$USERR3
 40
0.0
  9
$USERR4
 40
0.0
  9
$USERR5
 40
0.0
  9
$WORLDVIEW
 70
     1
  9
$SHADEDGE
 70
     3
  9
$SHADEDIF
 70
    70
  9
$TILEMODE
 70
     1
  9
$MAXACTVP
 70
    48
  9
$PINSBASE
 10
0.0
 20
0.0
 30
0.0
  9
$PLIMCHECK
 70
     0
  9
$PEXTMIN
 10
1.000000E+20
 20
1.000000E+20
 30
1.000000E+20
  9
$PEXTMAX
 10
-1.000000E+20
 20
-1.000000E+20
 30
-1.000000E+20
  9
$PLIMMIN
 10
0.0
 20
0.0
  9
$PLIMMAX
 10
12.0
 20
9.0
  9
$UNITMODE
 70
     0
  9
$VISRETAIN
 70
     1
  9
$PLINEGEN
 70
     0
  9
$PSLTSCALE
 70
     1
  9
$TREEDEPTH
 70
  3020
  9
$PICKSTYLE
 70
     1
  9
$CMLSTYLE
  2
STANDARD
  9
$CMLJUST
 70
     0
  9
$CMLSCALE
 40
1.0
  9
$PROXYGRAPHICS
 70
     1
  9
$MEASUREMENT
 70
     0
  0
ENDSEC
  0
SECTION
  2
CLASSES
  0
ENDSEC
  0
SECTION
  2
TABLES
  0
TABLE
  2
VPORT
  5
8
100
AcDbSymbolTable
 70
     1
  0
VPORT
  5
1E
100
AcDbSymbolTableRecord
100
AcDbViewportTableRecord
  2
*ACTIVE
 70
     0
 10
0.0000
 20
0.0000
 11
1.0000
 21
1.0000
 12
7.6635
 22
-6.8480
 13
0.0000
 23
0.0000
 14
0.1000
 24
0.1000
 15
0.1000
 25
0.1000
 16
0.0000
 26
0.0000
 36
1.0000
 17
0.0000
 27
0.0000
 37
0.0000
 40
14.9512
 41
1.6509
 42
50.0
 43
0.0
 44
0.0
 50
0.0
 51
0.0
 71
    0
 72
  100
 73
    1
 74
    1
 75
    0
 76
    0
 77
    0
 78
    0
  0
ENDTAB
  0
TABLE
  2
LTYPE
  5
5
100
AcDbSymbolTable
 70
     3
  0
LTYPE
  5
12
100
AcDbSymbolTableRecord
100
AcDbLinetypeTableRecord
  2
BYBLOCK
 70
     0
  3

 72
    65
 73
     0
 40
0.0
  0
LTYPE
  5
13
100
AcDbSymbolTableRecord
100
AcDbLinetypeTableRecord
  2
BYLAYER
 70
     0
  3

 72
    65
 73
     0
 40
0.0
  0
LTYPE
  5
14
100
AcDbSymbolTableRecord
100
AcDbLinetypeTableRecord
  2
CONTINUOUS
 70
     0
  3
Solid line
 72
    65
 73
     0
 40
0.0
  0
ENDTAB
  0
TABLE
  2
LAYER
  5
2
100
AcDbSymbolTable
 70
     2
  0
LAYER
  5
E
100
AcDbSymbolTableRecord
100
AcDbLayerTableRecord
  2
0
 70
     0
 62
     7
  6
CONTINUOUS
  0
LAYER
  5
20
100
AcDbSymbolTableRecord
100
AcDbLayerTableRecord
  2
DEFAULT
 70
     0
 62
     7
  6
CONTINUOUS
  0
ENDTAB
  0
TABLE
  2
STYLE
  5
3
100
AcDbSymbolTable
 70
     2
  0
STYLE
  5
F
100
AcDbSymbolTableRecord
100
AcDbTextStyleTableRecord
  2
STANDARD
 70
     0
 40
0.0
 41
1.0
 50
0.0
 71
     0
 42
0.2
  3
txt
  4

  0
STYLE
  5
21
100
AcDbSymbolTableRecord
100
AcDbTextStyleTableRecord
  2
ARIAL
 70
     0
 40
0.0
 41
1.0
 50
0.0
 71
     0
 42
0.2
  3
ARIAL.TTF
  4

  0
ENDTAB
  0
TABLE
  2
VIEW
  5
6
100
AcDbSymbolTable
 70
     0
  0
ENDTAB
  0
TABLE
  2
UCS
  5
7
100
AcDbSymbolTable
 70
     0
  0
ENDTAB
  0
TABLE
  2
APPID
  5
9
100
AcDbSymbolTable
 70
     1
  0
APPID
  5
10
100
AcDbSymbolTableRecord
100
AcDbRegAppTableRecord
  2
ACAD
 70
     0
  0
ENDTAB
  0
TABLE
  2
DIMSTYLE
  5
A
100
AcDbSymbolTable
 70
     1
  0
DIMSTYLE
105
1D
100
AcDbSymbolTableRecord
100
AcDbDimStyleTableRecord
  2
STANDARD
 70
     0
  3

  4

  5

  6

  7

 40
1.0
 41
0.18
 42
0.0625
 43
0.38
 44
0.18
 45
0.0
 46
0.0
 47
0.0
 48
0.0
140
0.18
141
0.09
142
0.0
143
25.4
144
1.0
145
0.0
146
1.0
147
0.09
 71
     0
 72
     0
 73
     1
 74
     1
 75
     0
 76
     0
 77
     0
 78
     0
170
     0
171
     2
172
     0
173
     0
174
     0
175
     0
176
     0
177
     0
178
     0
270
     2
271
     4
272
     4
273
     2
274
     2
340
F
275
     0
280
     0
281
     0
282
     0
283
     1
284
     0
285
     0
286
     0
287
     3
288
     0
  0
ENDTAB
  0
TABLE
  2
BLOCK_RECORD
  5
1
100
AcDbSymbolTable
 70
     2
  0
BLOCK_RECORD
  5
18
100
AcDbSymbolTableRecord
100
AcDbBlockTableRecord
  2
*MODEL_SPACE
  0
BLOCK_RECORD
  5
15
100
AcDbSymbolTableRecord
100
AcDbBlockTableRecord
  2
*PAPER_SPACE
  0
ENDTAB
  0
ENDSEC
  0
SECTION
  2
BLOCKS
  0
BLOCK
  5
19
100
AcDbEntity
  8
0
100
AcDbBlockBegin
  2
*MODEL_SPACE
 70
     0
 10
0.0
 20
0.0
 30
0.0
  3
*MODEL_SPACE
  1
     0
  0
ENDBLK
  5
1A
100
AcDbEntity
  8
0
100
AcDbBlockEnd
  0
BLOCK
  5
16
100
AcDbEntity
 67
     1
  8
0
100
AcDbBlockBegin
  2
*PAPER_SPACE
 70
     0
 10
0.0
 20
0.0
 30
0.0
  3
*PAPER_SPACE
  1
     0
  0
ENDBLK
  5
17
100
AcDbEntity
 67
     1
  8
0
100
AcDbBlockEnd
  0
ENDSEC
  0
SECTION
  2
ENTITIES
  0
LINE
  5
22
100
AcDbEntity
  8
DEFAULT
100
AcDbLine
 10
-0.8000
 20
-1.7000
 30
0.0000
 11
1.6000
 21
-1.0000
 31
0.0000
  0
LINE
  5
23
100
AcDbEntity
  8
DEFAULT
100
AcDbLine
 10
-3.2000
 20
-1.0000
 30
0.0000
 11
-0.8000
 21
-1.7000
 31
0.0000
  0
LINE
  5
24
100
AcDbEntity
  8
DEFAULT
100
AcDbLine
 10
1.6000
 20
-1.0000
 30
0.0000
 11
1.8000
 21
-0.4000
 31
0.0000
  0
LINE
  5
25
100
AcDbEntity
  8
DEFAULT
100
AcDbLine
 10
-3.4000
 20
-0.4000
 30
0.0000
 11
-3.2000
 21
-1.0000
 31
0.0000
  0
ARC
  5
26
100
AcDbEntity
  8
DEFAULT
100
AcDbCircle
 10
-0.8000
 20
-8.6500
 30
0.0000
 40
8.6500
100
AcDbArc
 50
72.5075
 51
107.4925
  0
LINE
  5
27
100
AcDbEntity
  8
DEFAULT
100
AcDbLine
 10
0.2000
 20
-1.4000
 30
0.0000
 11
0.6000
 21
-1.4000
 31
0.0000
  0
LINE
  5
28
100
AcDbEntity
  8
DEFAULT
100
AcDbLine
 10
0.6000
 20
-1.4000
 30
0.0000
 11
0.6000
 21
-1.3000
 31
0.0000
  0
LINE
  5
29
100
AcDbEntity
  8
DEFAULT
100
AcDbLine
 10
-2.2000
 20
-1.4000
 30
0.0000
 11
-1.9000
 21
-1.4000
 31
0.0000
  0
LINE
  5
2A
100
AcDbEntity
  8
DEFAULT
100
AcDbLine
 10
-2.2000
 20
-1.4000
 30
0.0000
 11
-2.2000
 21
-1.3000
 31
0.0000
  0
CIRCLE
  5
2B
100
AcDbEntity
  8
DEFAULT
100
AcDbCircle
 10
-0.8000
 20
-1.6000
 30
0.0000
 40
0.1000
  0
LINE
  5
2C
100
AcDbEntity
  8
DEFAULT
100
AcDbLine
 10
1.6000
 20
-1.0000
 30
0.0000
 11
1.8430
 21
-1.8332
 31
0.0000
  0
LINE
  5
2D
100
AcDbEntity
  8
DEFAULT
100
AcDbLine
 10
1.5036
 20
-0.6697
 30
0.0000
 11
1.6000
 21
-1.0000
 31
0.0000
  0
LINE
  5
2E
100
AcDbEntity
  8
DEFAULT
100
AcDbLine
 10
5.5000
 20
-0.4000
 30
0.0000
 11
17.2000
 21
-0.4000
 31
0.0000
  0
LINE
  5
2F
100
AcDbEntity
  8
DEFAULT
100
AcDbLine
 10
17.2000
 20
-0.4000
 30
0.0000
 11
20.0000
 21
-0.4000
 31
0.0000
  0
ELLIPSE
  5
30
100
AcDbEntity
  8
DEFAULT
100
AcDbEllipse
 10
15.6000
 20
-0.4000
 30
0.0000
 11
5.2675
 21
0.7461
 31
0.0000
 40
0.202083
 41
4.101027
 42
5.671783
  0
LINE
  5
31
100
AcDbEntity
  8
DEFAULT
100
AcDbLine
 10
5.5000
 20
-1.7000
 30
0.0000
 11
12.7000
 21
-1.7000
 31
0.0000
  0
ELLIPSE
  5
32
100
AcDbEntity
  8
DEFAULT
100
AcDbEllipse
 10
14.2000
 20
-0.7000
 30
0.0000
 11
-10.4560
 21
0.2502
 31
0.0000
 40
0.050368
 41
4.125424
 42
5.696202
  0
LINE
  5
33
100
AcDbEntity
  8
DEFAULT
100
AcDbLine
 10
5.5000
 20
-1.7000
 30
0.0000
 11
5.5000
 21
-0.2000
 31
0.0000
  0
LINE
  5
34
100
AcDbEntity
  8
DEFAULT
100
AcDbLine
 10
5.5000
 20
-1.0000
 30
0.0000
 11
12.8000
 21
-1.0000
 31
0.0000
  0
ELLIPSE
  5
35
100
AcDbEntity
  8
DEFAULT
100
AcDbEllipse
 10
16.7000
 20
-0.4000
 30
0.0000
 11
5.1086
 21
0.4606
 31
0.0000
 40
0.075252
 41
3.836815
 42
5.407595
  0
LINE
  5
36
100
AcDbEntity
  8
DEFAULT
100
AcDbLine
 10
5.5000
 20
-3.5000
 30
0.0000
 11
13.3000
 21
-3.5000
 31
0.0000
  0
LINE
  5
37
100
AcDbEntity
  8
DEFAULT
100
AcDbLine
 10
5.5000
 20
-8.7001
 30
0.0000
 11
13.3000
 21
-8.7001
 31
0.0000
  0
LINE
  5
38
100
AcDbEntity
  8
DEFAULT
100
AcDbLine
 10
5.5000
 20
-6.1000
 30
0.0000
 11
20.0000
 21
-6.1000
 31
0.0000
  0
ELLIPSE
  5
39
100
AcDbEntity
  8
DEFAULT
100
AcDbEllipse
 10
15.3000
 20
-6.1000
 30
0.0000
 11
-5.0758
 21
1.2788
 31
0.0000
 40
0.445983
 41
3.655808
 42
5.226602
  0
ELLIPSE
  5
3A
100
AcDbEntity
  8
DEFAULT
100
AcDbEllipse
 10
15.3000
 20
-6.1000
 30
0.0000
 11
5.0758
 21
1.2788
 31
0.0000
 40
0.445983
 41
4.198181
 42
5.768976
  0
LINE
  5
3B
100
AcDbEntity
  8
DEFAULT
 62
     6
100
AcDbLine
 10
5.7000
 20
-8.6000
 30
0.0000
 11
5.7000
 21
-3.6000
 31
0.0000
  0
LINE
  5
3C
100
AcDbEntity
  8
DEFAULT
 62
     6
100
AcDbLine
 10
5.7000
 20
-8.6000
 30
0.0000
 11
13.4000
 21
-8.6000
 31
0.0000
  0
LINE
  5
3D
100
AcDbEntity
  8
DEFAULT
 62
     6
100
AcDbLine
 10
5.7000
 20
-3.6000
 30
0.0000
 11
13.4000
 21
-3.6000
 31
0.0000
  0
ELLIPSE
  5
3E
100
AcDbEntity
  8
DEFAULT
 62
     6
100
AcDbEllipse
 10
15.5000
 20
-6.0000
 30
0.0000
 11
-4.7535
 21
1.2941
 31
0.0000
 40
0.425182
 41
3.711123
 42
5.281926
  0
ELLIPSE
  5
3F
100
AcDbEntity
  8
DEFAULT
 62
     6
100
AcDbEllipse
 10
15.7000
 20
-6.2000
 30
0.0000
 11
4.6637
 21
1.4278
 31
0.0000
 40
0.413622
 41
4.075187
 42
5.645989
  0
ARC
  5
40
100
AcDbEntity
  8
DEFAULT
 62
     6
100
AcDbCircle
 10
19.7000
 20
-6.1000
 30
0.0000
 40
0.1414
100
AcDbArc
 50
315.0000
 51
45.0000
  0
LINE
  5
41
100
AcDbEntity
  8
DEFAULT
100
AcDbLine
 10
5.5000
 20
-8.7000
 30
0.0000
 11
5.5000
 21
-3.5000
 31
0.0000
  0
LINE
  5
42
100
AcDbEntity
  8
DEFAULT
100
AcDbLine
 10
3.2000
 20
-1.5000
 30
0.0000
 11
3.2000
 21
-1.7000
 31
0.0000
  0
LINE
  5
43
100
AcDbEntity
  8
DEFAULT
100
AcDbLine
 10
5.5000
 20
-1.5000
 30
0.0000
 11
5.5000
 21
-1.7000
 31
0.0000
  0
LINE
  5
44
100
AcDbEntity
  8
DEFAULT
100
AcDbLine
 10
3.2000
 20
-1.5000
 30
0.0000
 11
5.5000
 21
-1.5000
 31
0.0000
  0
LINE
  5
45
100
AcDbEntity
  8
DEFAULT
100
AcDbLine
 10
3.2000
 20
-1.7000
 30
0.0000
 11
5.5000
 21
-1.7000
 31
0.0000
  0
ELLIPSE
  5
46
100
AcDbEntity
  8
DEFAULT
100
AcDbEllipse
 10
7.4000
 20
-1.1000
 30
0.0000
 11
2.2469
 21
0.3411
 31
0.0000
 40
0.092885
 41
3.690459
 42
5.260863
  0
ELLIPSE
  5
47
100
AcDbEntity
  8
DEFAULT
100
AcDbEllipse
 10
7.5000
 20
-1.3000
 30
0.0000
 11
2.2822
 21
0.3529
 31
0.0000
 40
0.082489
 41
3.630875
 42
5.201617
  0
LINE
  5
48
100
AcDbEntity
  8
DEFAULT
100
AcDbLine
 10
8.3485
 20
-0.1391
 30
0.0000
 11
8.7416
 21
-1.7024
 31
0.0000
  0
LINE
  5
49
100
AcDbEntity
  8
DEFAULT
100
AcDbLine
 10
8.4526
 20
-0.6174
 30
0.0000
 11
10.1421
 21
-0.1925
 31
0.0000
  0
LINE
  5
4A
100
AcDbEntity
  8
DEFAULT
100
AcDbLine
 10
8.6739
 20
-1.4674
 30
0.0000
 11
8.7301
 21
-1.6907
 31
0.0000
  0
LINE
  5
4B
100
AcDbEntity
  8
DEFAULT
100
AcDbLine
 10
8.7185
 20
-1.6557
 30
0.0000
 11
10.4740
 21
-1.2142
 31
0.0000
  0
LINE
  5
4C
100
AcDbEntity
  8
DEFAULT
100
AcDbLine
 10
10.1407
 20
-0.2091
 30
0.0000
 11
10.4529
 21
-1.2241
 31
0.0000
  0
LINE
  5
4D
100
AcDbEntity
  8
DEFAULT
100
AcDbLine
 10
8.7167
 20
-8.7001
 30
0.0000
 11
8.7167
 21
-3.4988
 31
0.0000
  0
LINE
  5
4E
100
AcDbEntity
  8
DEFAULT
100
AcDbLine
 10
8.3000
 20
-8.7001
 30
0.0000
 11
8.3000
 21
-3.5000
 31
0.0000
  0
LINE
  5
4F
100
AcDbEntity
  8
DEFAULT
100
AcDbLine
 10
17.1683
 20
-7.9541
 30
0.0000
 11
17.1683
 21
-4.2490
 31
0.0000
  0
LINE
  5
50
100
AcDbEntity
  8
DEFAULT
100
AcDbLine
 10
17.1683
 20
-1.2232
 30
0.0000
 11
17.1683
 21
-0.2655
 31
0.0000
  0
LINE
  5
51
100
AcDbEntity
  8
DEFAULT
100
AcDbLine
 10
12.4425
 20
-8.7001
 30
0.0000
 11
12.4425
 21
-3.5064
 31
0.0000
  0
LINE
  5
52
100
AcDbEntity
  8
DEFAULT
100
AcDbLine
 10
12.4425
 20
-1.7000
 30
0.0000
 11
12.4425
 21
-0.1386
 31
0.0000
  0
LINE
  5
53
100
AcDbEntity
  8
DEFAULT
100
AcDbLine
 10
12.5243
 20
-1.7001
 30
0.0000
 11
12.5243
 21
-0.1387
 31
0.0000
  0
LINE
  5
54
100
AcDbEntity
  8
DEFAULT
100
AcDbLine
 10
17.2663
 20
-1.2233
 30
0.0000
 11
17.2663
 21
-0.2656
 31
0.0000
  0
LINE
  5
55
100
AcDbEntity
  8
DEFAULT
100
AcDbLine
 10
17.2663
 20
-7.9542
 30
0.0000
 11
17.2663
 21
-4.2491
 31
0.0000
  0
LINE
  5
56
100
AcDbEntity
  8
DEFAULT
100
AcDbLine
 10
12.5407
 20
-8.7002
 30
0.0000
 11
12.5407
 21
-3.5065
 31
0.0000
  0
LINE
  5
57
100
AcDbEntity
  8
DEFAULT
100
AcDbLine
 10
5.4252
 20
-9.1184
 30
0.0000
 11
13.2252
 21
-9.1184
 31
0.0000
  0
LINE
  5
58
100
AcDbEntity
  8
DEFAULT
100
AcDbLine
 10
5.4252
 20
-14.3185
 30
0.0000
 11
13.2252
 21
-14.3185
 31
0.0000
  0
ELLIPSE
  5
59
100
AcDbEntity
  8
DEFAULT
100
AcDbEllipse
 10
15.2252
 20
-11.7184
 30
0.0000
 11
-5.0758
 21
1.2788
 31
0.0000
 40
0.445983
 41
3.655808
 42
5.226602
  0
ELLIPSE
  5
5A
100
AcDbEntity
  8
DEFAULT
100
AcDbEllipse
 10
15.2252
 20
-11.7184
 30
0.0000
 11
5.0758
 21
1.2788
 31
0.0000
 40
0.445983
 41
4.198181
 42
5.768976
  0
LINE
  5
5B
100
AcDbEntity
  8
DEFAULT
100
AcDbLine
 10
5.4252
 20
-14.3184
 30
0.0000
 11
5.4252
 21
-9.1184
 31
0.0000
  0
LINE
  5
5C
100
AcDbEntity
  8
DEFAULT
100
AcDbLine
 10
5.4252
 20
-11.7184
 30
0.0000
 11
19.9251
 21
-11.7184
 31
0.0000
  0
LINE
  5
5D
100
AcDbEntity
  8
DEFAULT
100
AcDbLine
 10
5.4340
 20
-10.7133
 30
0.0000
 11
13.4574
 21
-10.7133
 31
0.0000
  0
LINE
  5
5E
100
AcDbEntity
  8
DEFAULT
100
AcDbLine
 10
5.4340
 20
-10.3984
 30
0.0000
 11
13.4574
 21
-10.3984
 31
0.0000
  0
LINE
  5
5F
100
AcDbEntity
  8
DEFAULT
100
AcDbLine
 10
5.4340
 20
-12.7001
 30
0.0000
 11
13.4574
 21
-12.7001
 31
0.0000
  0
LINE
  5
60
100
AcDbEntity
  8
DEFAULT
100
AcDbLine
 10
5.4340
 20
-13.0001
 30
0.0000
 11
13.4574
 21
-13.0001
 31
0.0000
  0
ELLIPSE
  5
61
100
AcDbEntity
  8
DEFAULT
100
AcDbEllipse
 10
15.9000
 20
-12.5000
 30
0.0000
 11
2.5297
 21
0.1898
 31
0.0000
 40
0.024833
 41
3.459813
 42
5.029970
  0
ELLIPSE
  5
62
100
AcDbEntity
  8
DEFAULT
100
AcDbEllipse
 10
15.9000
 20
-12.5000
 30
0.0000
 11
2.5295
 21
0.4760
 31
0.0000
 40
0.060334
 41
3.451793
 42
5.022247
  0
ELLIPSE
  5
63
100
AcDbEntity
  8
DEFAULT
100
AcDbEllipse
 10
15.9000
 20
-11.0000
 30
0.0000
 11
-2.5297
 21
0.2849
 31
0.0000
 40
0.037002
 41
4.394754
 42
5.965093
  0
ELLIPSE
  5
64
100
AcDbEntity
  8
DEFAULT
100
AcDbEllipse
 10
15.9000
 20
-11.0000
 30
0.0000
 11
-2.5294
 21
0.5721
 31
0.0000
 40
0.071335
 41
4.406909
 42
5.977443
  0
LINE
  5
65
100
AcDbEntity
  8
DEFAULT
100
AcDbLine
 10
5.4000
 20
-9.3000
 30
0.0000
 11
13.2000
 21
-9.3000
 31
0.0000
  0
LINE
  5
66
100
AcDbEntity
  8
DEFAULT
100
AcDbLine
 10
5.4252
 20
-14.1000
 30
0.0000
 11
13.5000
 21
-14.1000
 31
0.0000
  0
ELLIPSE
  5
67
100
AcDbEntity
  8
DEFAULT
100
AcDbEllipse
 10
16.0000
 20
-11.7000
 30
0.0000
 11
4.5908
 21
1.5535
 31
0.0000
 40
0.398465
 41
4.008306
 42
5.579113
  0
ELLIPSE
  5
68
100
AcDbEntity
  8
DEFAULT
100
AcDbEllipse
 10
15.7000
 20
-11.7000
 30
0.0000
 11
-4.8540
 21
1.4608
 31
0.0000
 40
0.392279
 41
3.795988
 42
5.366776
  0
SOLID
  5
69
100
AcDbEntity
  8
DEFAULT
100
AcDbTrace
 10
5.6849
 20
0.5325
 30
0.0000
 11
5.6849
 21
0.4674
 31
0.0000
 12
5.5000
 22
0.5000
 32
0.0000
 13
5.5000
 23
0.5000
 33
0.0000
  0
SOLID
  5
6A
100
AcDbEntity
  8
DEFAULT
100
AcDbTrace
 10
19.8150
 20
0.4674
 30
0.0000
 11
19.8150
 21
0.5325
 31
0.0000
 12
20.0000
 22
0.5000
 32
0.0000
 13
20.0000
 23
0.5000
 33
0.0000
  0
LINE
  5
6B
100
AcDbEntity
  8
DEFAULT
100
AcDbLine
 10
5.5000
 20
0.5000
 30
0.0000
 11
11.8607
 21
0.5000
 31
0.0000
  0
LINE
  5
6C
100
AcDbEntity
  8
DEFAULT
100
AcDbLine
 10
12.3393
 20
0.5000
 30
0.0000
 11
20.0000
 21
0.5000
 31
0.0000
  0
TEXT
  5
6D
100
AcDbEntity
  8
DEFAULT
100
AcDbText
 10
11.9233
 20
0.4356
 30
0.0000
 40
0.1263
  1
18 in
  7
ARIAL
100
AcDbText
  0
LINE
  5
6E
100
AcDbEntity
  8
DEFAULT
100
AcDbLine
 10
20.0000
 20
-0.3375
 30
0.0000
 11
20.0000
 21
0.6250
 31
0.0000
  0
LINE
  5
6F
100
AcDbEntity
  8
DEFAULT
100
AcDbLine
 10
5.5000
 20
-0.1375
 30
0.0000
 11
5.5000
 21
0.6250
 31
0.0000
  0
SOLID
  5
70
100
AcDbEntity
  8
DEFAULT
100
AcDbTrace
 10
-3.2150
 20
-2.0674
 30
0.0000
 11
-3.2150
 21
-2.1325
 31
0.0000
 12
-3.4000
 22
-2.1000
 32
0.0000
 13
-3.4000
 23
-2.1000
 33
0.0000
  0
SOLID
  5
71
100
AcDbEntity
  8
DEFAULT
100
AcDbTrace
 10
1.6150
 20
-2.1325
 30
0.0000
 11
1.6150
 21
-2.0674
 31
0.0000
 12
1.8000
 22
-2.1000
 32
0.0000
 13
1.8000
 23
-2.1000
 33
0.0000
  0
LINE
  5
72
100
AcDbEntity
  8
DEFAULT
100
AcDbLine
 10
-3.4000
 20
-2.1000
 30
0.0000
 11
-0.9954
 21
-2.1000
 31
0.0000
  0
LINE
  5
73
100
AcDbEntity
  8
DEFAULT
100
AcDbLine
 10
-0.6046
 20
-2.1000
 30
0.0000
 11
1.8000
 21
-2.1000
 31
0.0000
  0
TEXT
  5
74
100
AcDbEntity
  8
DEFAULT
100
AcDbText
 10
-0.9328
 20
-2.1644
 30
0.0000
 40
0.1263
  1
7 in
  7
ARIAL
100
AcDbText
  0
LINE
  5
75
100
AcDbEntity
  8
DEFAULT
100
AcDbLine
 10
-3.4000
 20
-2.2250
 30
0.0000
 11
-3.4000
 21
-1.8625
 31
0.0000
  0
LINE
  5
76
100
AcDbEntity
  8
DEFAULT
100
AcDbLine
 10
1.8000
 20
-2.2250
 30
0.0000
 11
1.8000
 21
-1.9625
 31
0.0000
  0
SOLID
  5
77
100
AcDbEntity
  8
DEFAULT
100
AcDbTrace
 10
2.2291
 20
-0.2849
 30
0.0000
 11
2.1708
 21
-0.2849
 31
0.0000
 12
2.2000
 22
-0.1000
 32
0.0000
 13
2.2000
 23
-0.1000
 33
0.0000
  0
SOLID
  5
78
100
AcDbEntity
  8
DEFAULT
100
AcDbTrace
 10
2.1708
 20
-1.5150
 30
0.0000
 11
2.2291
 21
-1.5150
 31
0.0000
 12
2.2000
 22
-1.7000
 32
0.0000
 13
2.2000
 23
-1.7000
 33
0.0000
  0
LINE
  5
79
100
AcDbEntity
  8
DEFAULT
100
AcDbLine
 10
2.2000
 20
-0.7541
 30
0.0000
 11
2.2000
 21
-0.1000
 31
0.0000
  0
LINE
  5
7A
100
AcDbEntity
  8
DEFAULT
100
AcDbLine
 10
2.2000
 20
-1.7000
 30
0.0000
 11
2.2000
 21
-1.0459
 31
0.0000
  0
TEXT
  5
7B
100
AcDbEntity
  8
DEFAULT
100
AcDbText
 10
1.9175
 20
-0.9644
 30
0.0000
 40
0.1263
  1
2 1/4 in
  7
ARIAL
100
AcDbText
  0
LINE
  5
7C
100
AcDbEntity
  8
DEFAULT
100
AcDbLine
 10
2.0625
 20
-1.7000
 30
0.0000
 11
2.3250
 21
-1.7000
 31
0.0000
  0
LINE
  5
7D
100
AcDbEntity
  8
DEFAULT
100
AcDbLine
 10
2.0625
 20
-0.1000
 30
0.0000
 11
2.3250
 21
-0.1000
 31
0.0000
  0
SOLID
  5
7E
100
AcDbEntity
  8
DEFAULT
100
AcDbTrace
 10
-4.3708
 20
-0.1849
 30
0.0000
 11
-4.4291
 21
-0.1849
 31
0.0000
 12
-4.4000
 22
0.0000
 32
0.0000
 13
-4.4000
 23
0.0000
 33
0.0000
  0
SOLID
  5
7F
100
AcDbEntity
  8
DEFAULT
100
AcDbTrace
 10
-4.4291
 20
-0.8150
 30
0.0000
 11
-4.3708
 21
-0.8150
 31
0.0000
 12
-4.4000
 22
-1.0000
 32
0.0000
 13
-4.4000
 23
-1.0000
 33
0.0000
  0
LINE
  5
80
100
AcDbEntity
  8
DEFAULT
100
AcDbLine
 10
-4.4000
 20
-0.3541
 30
0.0000
 11
-4.4000
 21
0.0000
 31
0.0000
  0
LINE
  5
81
100
AcDbEntity
  8
DEFAULT
100
AcDbLine
 10
-4.4000
 20
-1.0000
 30
0.0000
 11
-4.4000
 21
-0.6459
 31
0.0000
  0
TEXT
  5
82
100
AcDbEntity
  8
DEFAULT
100
AcDbText
 10
-4.6754
 20
-0.5644
 30
0.0000
 40
0.1263
  1
1 1/4 in
  7
ARIAL
100
AcDbText
  0
LINE
  5
83
100
AcDbEntity
  8
DEFAULT
100
AcDbLine
 10
-4.5250
 20
-1.0000
 30
0.0000
 11
-3.2625
 21
-1.0000
 31
0.0000
  0
LINE
  5
84
100
AcDbEntity
  8
DEFAULT
100
AcDbLine
 10
-4.5250
 20
0.0000
 30
0.0000
 11
-0.8625
 21
0.0000
 31
0.0000
  0
SOLID
  5
85
100
AcDbEntity
  8
DEFAULT
100
AcDbTrace
 10
5.6849
 20
-2.0674
 30
0.0000
 11
5.6849
 21
-2.1325
 31
0.0000
 12
5.5000
 22
-2.1000
 32
0.0000
 13
5.5000
 23
-2.1000
 33
0.0000
  0
SOLID
  5
86
100
AcDbEntity
  8
DEFAULT
100
AcDbTrace
 10
8.5150
 20
-2.1325
 30
0.0000
 11
8.5150
 21
-2.0674
 31
0.0000
 12
8.7000
 22
-2.1000
 32
0.0000
 13
8.7000
 23
-2.1000
 33
0.0000
  0
LINE
  5
87
100
AcDbEntity
  8
DEFAULT
100
AcDbLine
 10
5.5000
 20
-2.1000
 30
0.0000
 11
6.9015
 21
-2.1000
 31
0.0000
  0
LINE
  5
88
100
AcDbEntity
  8
DEFAULT
100
AcDbLine
 10
7.2985
 20
-2.1000
 30
0.0000
 11
8.7000
 21
-2.1000
 31
0.0000
  0
TEXT
  5
89
100
AcDbEntity
  8
DEFAULT
100
AcDbText
 10
6.9641
 20
-2.1644
 30
0.0000
 40
0.1263
  1
4 in
  7
ARIAL
100
AcDbText
  0
LINE
  5
8A
100
AcDbEntity
  8
DEFAULT
100
AcDbLine
 10
5.5000
 20
-2.2250
 30
0.0000
 11
5.5000
 21
-1.8625
 31
0.0000
  0
LINE
  5
8B
100
AcDbEntity
  8
DEFAULT
100
AcDbLine
 10
8.7000
 20
-2.2250
 30
0.0000
 11
8.7000
 21
-1.8625
 31
0.0000
  0
SOLID
  5
8C
100
AcDbEntity
  8
DEFAULT
100
AcDbTrace
 10
8.8849
 20
-2.2674
 30
0.0000
 11
8.8849
 21
-2.3325
 31
0.0000
 12
8.7000
 22
-2.3000
 32
0.0000
 13
8.7000
 23
-2.3000
 33
0.0000
  0
SOLID
  5
8D
100
AcDbEntity
  8
DEFAULT
100
AcDbTrace
 10
12.3150
 20
-2.3325
 30
0.0000
 11
12.3150
 21
-2.2674
 31
0.0000
 12
12.5000
 22
-2.3000
 32
0.0000
 13
12.5000
 23
-2.3000
 33
0.0000
  0
LINE
  5
8E
100
AcDbEntity
  8
DEFAULT
100
AcDbLine
 10
8.7000
 20
-2.3000
 30
0.0000
 11
11.3041
 21
-2.3000
 31
0.0000
  0
LINE
  5
8F
100
AcDbEntity
  8
DEFAULT
100
AcDbLine
 10
11.6959
 20
-2.3000
 30
0.0000
 11
12.5000
 21
-2.3000
 31
0.0000
  0
TEXT
  5
90
100
AcDbEntity
  8
DEFAULT
100
AcDbText
 10
11.3667
 20
-2.3644
 30
0.0000
 40
0.1263
  1
5 in
  7
ARIAL
100
AcDbText
  0
LINE
  5
91
100
AcDbEntity
  8
DEFAULT
100
AcDbLine
 10
8.7000
 20
-2.4250
 30
0.0000
 11
8.7000
 21
-1.9625
 31
0.0000
  0
LINE
  5
92
100
AcDbEntity
  8
DEFAULT
100
AcDbLine
 10
12.5000
 20
-2.4250
 30
0.0000
 11
12.5000
 21
-1.9625
 31
0.0000
  0
SOLID
  5
93
100
AcDbEntity
  8
DEFAULT
100
AcDbTrace
 10
12.6849
 20
-2.3674
 30
0.0000
 11
12.6849
 21
-2.4325
 31
0.0000
 12
12.5000
 22
-2.4000
 32
0.0000
 13
12.5000
 23
-2.4000
 33
0.0000
  0
SOLID
  5
94
100
AcDbEntity
  8
DEFAULT
100
AcDbTrace
 10
16.9150
 20
-2.4325
 30
0.0000
 11
16.9150
 21
-2.3674
 31
0.0000
 12
17.1000
 22
-2.4000
 32
0.0000
 13
17.1000
 23
-2.4000
 33
0.0000
  0
LINE
  5
95
100
AcDbEntity
  8
DEFAULT
100
AcDbLine
 10
12.5000
 20
-2.4000
 30
0.0000
 11
16.6038
 21
-2.4000
 31
0.0000
  0
LINE
  5
96
100
AcDbEntity
  8
DEFAULT
100
AcDbLine
 10
16.9962
 20
-2.4000
 30
0.0000
 11
17.1000
 21
-2.4000
 31
0.0000
  0
TEXT
  5
97
100
AcDbEntity
  8
DEFAULT
100
AcDbText
 10
16.6664
 20
-2.4644
 30
0.0000
 40
0.1263
  1
6 in
  7
ARIAL
100
AcDbText
  0
LINE
  5
98
100
AcDbEntity
  8
DEFAULT
100
AcDbLine
 10
12.5000
 20
-2.5250
 30
0.0000
 11
12.5000
 21
-2.0625
 31
0.0000
  0
LINE
  5
99
100
AcDbEntity
  8
DEFAULT
100
AcDbLine
 10
17.1000
 20
-2.5250
 30
0.0000
 11
17.1000
 21
-2.0625
 31
0.0000
  0
SOLID
  5
9A
100
AcDbEntity
  8
DEFAULT
100
AcDbTrace
 10
17.2849
 20
-2.4674
 30
0.0000
 11
17.2849
 21
-2.5325
 31
0.0000
 12
17.1000
 22
-2.5000
 32
0.0000
 13
17.1000
 23
-2.5000
 33
0.0000
  0
SOLID
  5
9B
100
AcDbEntity
  8
DEFAULT
100
AcDbTrace
 10
19.8150
 20
-2.5325
 30
0.0000
 11
19.8150
 21
-2.4674
 31
0.0000
 12
20.0000
 22
-2.5000
 32
0.0000
 13
20.0000
 23
-2.5000
 33
0.0000
  0
LINE
  5
9C
100
AcDbEntity
  8
DEFAULT
100
AcDbLine
 10
17.1000
 20
-2.5000
 30
0.0000
 11
18.4041
 21
-2.5000
 31
0.0000
  0
LINE
  5
9D
100
AcDbEntity
  8
DEFAULT
100
AcDbLine
 10
18.7959
 20
-2.5000
 30
0.0000
 11
20.0000
 21
-2.5000
 31
0.0000
  0
TEXT
  5
9E
100
AcDbEntity
  8
DEFAULT
100
AcDbText
 10
18.4667
 20
-2.5644
 30
0.0000
 40
0.1263
  1
3 in
  7
ARIAL
100
AcDbText
  0
LINE
  5
9F
100
AcDbEntity
  8
DEFAULT
100
AcDbLine
 10
17.1000
 20
-2.6250
 30
0.0000
 11
17.1000
 21
-2.3625
 31
0.0000
  0
LINE
  5
A0
100
AcDbEntity
  8
DEFAULT
100
AcDbLine
 10
20.0000
 20
-2.6250
 30
0.0000
 11
20.0000
 21
-2.3625
 31
0.0000
  0
LINE
  5
A1
100
AcDbEntity
  8
DEFAULT
100
AcDbLine
 10
-0.2000
 20
-2.8000
 30
0.0000
 11
-0.2000
 21
-5.0000
 31
0.0000
  0
LINE
  5
A2
100
AcDbEntity
  8
DEFAULT
100
AcDbLine
 10
4.5000
 20
-2.8000
 30
0.0000
 11
4.5000
 21
-5.0000
 31
0.0000
  0
LINE
  5
A3
100
AcDbEntity
  8
DEFAULT
100
AcDbLine
 10
-0.2000
 20
-2.8000
 30
0.0000
 11
4.5000
 21
-2.8000
 31
0.0000
  0
LINE
  5
A4
100
AcDbEntity
  8
DEFAULT
100
AcDbLine
 10
-0.2000
 20
-5.0000
 30
0.0000
 11
4.5000
 21
-5.0000
 31
0.0000
  0
TEXT
  5
A5
100
AcDbEntity
  8
DEFAULT
100
AcDbText
 10
0.0000
 20
-3.2000
 30
0.0000
 40
0.2105
  1
mini mono
  7
ARIAL
100
AcDbText
  0
TEXT
  5
A6
100
AcDbEntity
  8
DEFAULT
100
AcDbText
 10
0.0000
 20
-3.5000
 30
0.0000
 40
0.2105
  1
sheeting 1/16 balsa, bulkheads 1/8
  7
ARIAL
100
AcDbText
  0
TEXT
  5
A7
100
AcDbEntity
  8
DEFAULT
100
AcDbText
 10
0.0000
 20
-3.8000
 30
0.0000
 40
0.2105
  1
transon 1/4
  7
ARIAL
100
AcDbText
  0
TEXT
  5
A8
100
AcDbEntity
  8
DEFAULT
100
AcDbText
 10
0.0000
 20
-4.1000
 30
0.0000
 40
0.2105
  1
bottom sheeted with 1/64 ply
  7
ARIAL
100
AcDbText
  0
TEXT
  5
A9
100
AcDbEntity
  8
DEFAULT
100
AcDbText
 10
0.0000
 20
-4.4000
 30
0.0000
 40
0.2105
  1
LM neo 480 motor
  7
ARIAL
100
AcDbText
  0
ENDSEC
  0
SECTION
  2
OBJECTS
  0
DICTIONARY
  5
C
100
AcDbDictionary
  3
ACAD_GROUP
350
D
  3
ACAD_MLINESTYLE
350
1B
  0
DICTIONARY
  5
D
102
{ACAD_REACTORS
330
C
102
}
100
AcDbDictionary
  0
DICTIONARY
  5
1B
102
{ACAD_REACTORS
330
C
102
}
100
AcDbDictionary
  3
STANDARD
350
1C
  0
MLINESTYLE
  5
1C
102
{ACAD_REACTORS
330
1B
102
}
100
AcDbMlineStyle
  2
STANDARD
 70
     0
  3

 62
   256
 51
90.0
 52
90.0
 71
     2
 49
0.5
 62
   256
  6
BYLAYER
 49
-0.5
 62
   256
  6
BYLAYER
  0
ENDSEC
  0
EOF
